<?xml version="1.0" encoding="utf-8"?>
<!-- Generator: Adobe Illustrator 22.1.0, SVG Export Plug-In . SVG Version: 6.00 Build 0)  -->
<svg version="1.1" id="Layer_1" xmlns="http://www.w3.org/2000/svg" xmlns:xlink="http://www.w3.org/1999/xlink" x="0px" y="0px"
	 viewBox="0 0 175.8 57.3" style="enable-background:new 0 0 175.8 57.3;" xml:space="preserve">
<style type="text/css">
	.st0{fill:#1E8BC7;}
	.st1{fill:url(#SVGID_1_);}
	.st2{fill:#FFFFFF;}
</style>
<g id="Layer_2_1_">
</g>
<g>
	<path d="M72.1,18c-0.4-0.3-0.8-0.4-1.4-0.4c-1.2,0-2.1,0.9-2.1,2.2c0,1.4,0.9,2.4,2.2,2.4c0.5,0,0.9-0.1,1.3-0.3l0.2,0.6
		c-0.3,0.2-0.5,0.2-0.8,0.3c-0.3,0.1-0.5,0.1-0.8,0.1c-1.7,0-2.9-1.2-2.9-3c0-1.7,1.2-2.9,2.9-2.9c0.4,0,0.7,0.1,1.1,0.2
		c0.3,0.1,0.4,0.2,0.7,0.4L72.1,18z"/>
	<path d="M73.6,22.7V17h3.2v0.6h-2.5v1.9h2.1v0.6h-2.1v2h2.6v0.6H73.6z"/>
	<path d="M82.1,22.7l-2.9-4.4c0,0-0.1-0.1-0.1-0.2C79.1,18,79,18,79,18c0-0.1-0.1-0.1-0.1-0.2v4.9h-0.7V17h0.9l2.8,4.3
		c0,0,0.1,0.1,0.1,0.1c0,0.1,0,0.1,0.1,0.3c0,0,0,0.1,0,0.1V17h0.7v5.7H82.1z"/>
	<path d="M86.5,17.6v5.1h-0.7v-5.1h-1.9V17h4.5v0.6H86.5z"/>
	<path d="M92.5,22.7l-1.6-2.4h-0.8v2.4h-0.7V17h1.7c0.7,0,1,0.1,1.3,0.4c0.3,0.3,0.4,0.7,0.4,1.1c0,0.4-0.2,0.9-0.5,1.2
		c-0.2,0.2-0.4,0.3-0.9,0.4l1.7,2.5H92.5z M91.9,17.7c-0.2-0.1-0.3-0.2-0.8-0.2h-0.9v2.1h0.9c0.8,0,1.1-0.4,1.1-1.1
		C92.2,18.2,92.1,17.9,91.9,17.7z"/>
	<path d="M96.8,22.8c-1.7,0-2.9-1.2-2.9-3c0-1.7,1.2-3,2.9-3c1.7,0,2.9,1.2,2.9,3C99.7,21.5,98.5,22.8,96.8,22.8z M96.8,17.5
		c-1.1,0-2.1,1.1-2.1,2.3c0,1.3,0.9,2.3,2.1,2.3c1.1,0,2.1-1.1,2.1-2.3C98.9,18.5,98,17.5,96.8,17.5z"/>
	<path d="M107.2,21.8c-0.5,0.6-1.1,0.8-2.1,0.8h-1.9V17h1.9c1.7,0,2.9,1.2,2.9,2.8C108,20.5,107.7,21.3,107.2,21.8z M105,17.6h-1.1
		v4.5h1.1c0.8,0,1.2-0.1,1.5-0.5c0.4-0.4,0.7-1.1,0.7-1.8C107.2,18.5,106.3,17.6,105,17.6z"/>
	<path d="M109.3,22.7V17h3.2v0.6H110v1.9h2.1v0.6H110v2h2.6v0.6H109.3z"/>
	<path class="st0" d="M76.7,35.6v-7.2c-0.1,0.5-0.1,0.6-0.4,1.4l-2.3,5.8h-1.7l-2.1-5.7c-0.2-0.6-0.2-0.7-0.4-1.6v7.3h-1.7v-9.9h2.3
		l2.6,7c0.1,0.3,0.1,0.4,0.2,0.8c0.1-0.5,0.1-0.5,0.2-0.8l2.7-7h2.3v9.9H76.7z"/>
	<path class="st0" d="M86.8,35.6L86,33.2h-3.3l-0.8,2.4h-2l3.6-9.9h1.7l3.6,9.9H86.8z M84.4,28l-1.1,3.6h2.3L84.4,28z"/>
	<path class="st0" d="M92.7,27.3v8.3h-1.9v-8.3h-3v-1.6h7.8v1.6H92.7z"/>
	<path class="st0" d="M97.2,35.6v-9.9h6v1.6H99v2.4h3.4v1.6H99V34h4.3v1.6H97.2z"/>
	<path class="st0" d="M113.8,35.6v-7.2c-0.1,0.5-0.1,0.6-0.4,1.4l-2.3,5.8h-1.7l-2.1-5.7c-0.2-0.6-0.2-0.7-0.4-1.6v7.3h-1.7v-9.9
		h2.3l2.6,7c0.1,0.3,0.2,0.4,0.2,0.8c0.1-0.5,0.1-0.5,0.2-0.8l2.7-7h2.3v9.9H113.8z"/>
	<path class="st0" d="M123.9,35.6l-0.8-2.4h-3.3l-0.8,2.4h-2l3.6-9.9h1.7l3.6,9.9H123.9z M121.4,28l-1.1,3.6h2.3L121.4,28z
		 M121.9,25.3h-1.4l1.4-1.8h1.7L121.9,25.3z"/>
	<path class="st0" d="M129.8,27.3v8.3h-1.9v-8.3h-3v-1.6h7.8v1.6H129.8z"/>
	<path class="st0" d="M134.2,35.6v-9.9h1.9v9.9H134.2z"/>
	<path class="st0" d="M145.3,28c-0.6-0.5-1.4-0.7-2.3-0.7c-1.9,0-3.3,1.3-3.3,3.2c0,2.1,1.4,3.5,3.6,3.5c0.7,0,1.3-0.1,2.2-0.5
		l0.3,1.6c-0.6,0.3-0.9,0.4-1.3,0.5c-0.5,0.1-1,0.2-1.6,0.2c-1.5,0-2.6-0.4-3.6-1.2c-1-0.9-1.7-2.4-1.7-3.9c0-1.4,0.5-2.7,1.5-3.7
		c1-1,2.1-1.4,3.7-1.4c1.3,0,2.2,0.3,3.1,0.9L145.3,28z"/>
	<path class="st0" d="M153.3,35.6l-0.8-2.4h-3.3l-0.8,2.4h-2l3.6-9.9h1.7l3.6,9.9H153.3z M150.8,28l-1.1,3.6h2.3L150.8,28z"/>
	<path d="M72,44.5c-0.4,0.3-0.9,0.5-1.6,0.5c-0.6,0-1.1-0.2-1.6-0.5c-0.5-0.4-0.7-0.8-0.7-1.6v-3.7h0.7v3.5c0,0.7,0.1,0.9,0.3,1.2
		c0.3,0.3,0.7,0.5,1.2,0.5c0.5,0,0.9-0.2,1.2-0.5c0.3-0.3,0.3-0.5,0.3-1.2v-3.5h0.7v3.7C72.7,43.7,72.5,44.1,72,44.5z"/>
	<path d="M78.3,44.9l-2.9-4.4c0,0-0.1-0.1-0.1-0.2c0-0.1-0.1-0.1-0.1-0.1c0-0.1-0.1-0.1-0.1-0.2v4.9h-0.7v-5.7h0.9l2.8,4.3
		c0,0,0.1,0.1,0.1,0.1c0,0.1,0,0.1,0.1,0.3c0,0,0,0.1,0,0.1v-4.8h0.7v5.7H78.3z"/>
	<path d="M81,44.8v-5.7h0.7v5.7H81z"/>
	<path d="M85.3,45h-0.4l-2.2-5.8h0.8l1.7,4.4c0,0.1,0.1,0.2,0.1,0.3c0-0.1,0-0.2,0.1-0.3l1.6-4.4h0.7L85.3,45z"/>
	<path d="M88.6,44.8v-5.7h3.2v0.6h-2.5v1.9h2.1v0.6h-2.1v2h2.6v0.6H88.6z"/>
	<path d="M96.3,44.8l-1.6-2.4h-0.8v2.4h-0.7v-5.7H95c0.7,0,1,0.1,1.3,0.4c0.3,0.3,0.4,0.7,0.4,1.1c0,0.4-0.2,0.9-0.5,1.2
		c-0.2,0.2-0.4,0.3-0.9,0.4l1.7,2.5H96.3z M95.7,39.9c-0.2-0.1-0.3-0.2-0.8-0.2h-0.9v2.1h0.9c0.8,0,1.1-0.4,1.1-1.1
		C96,40.3,95.9,40.1,95.7,39.9z"/>
	<path d="M101.1,40.1c-0.3-0.2-0.4-0.2-0.6-0.3c-0.2-0.1-0.6-0.1-0.8-0.1c-0.6,0-1.1,0.3-1.1,0.8c0,0.4,0.3,0.6,1.4,1.3
		c0.4,0.2,0.7,0.4,0.9,0.6c0.3,0.2,0.4,0.6,0.4,1c0,1-0.7,1.6-1.9,1.6c-0.4,0-0.8-0.1-1.1-0.2c-0.2-0.1-0.4-0.2-0.7-0.4l0.4-0.6
		c0.3,0.2,0.5,0.3,0.7,0.4c0.3,0.1,0.5,0.1,0.8,0.1c0.7,0,1.1-0.3,1.1-0.9c0-0.2,0-0.3-0.1-0.4c-0.1-0.2-0.3-0.3-0.5-0.5
		c-0.1-0.1-0.4-0.2-0.9-0.5c-0.9-0.5-1.2-0.9-1.2-1.5c0-0.9,0.8-1.5,1.9-1.5c0.3,0,0.7,0,1,0.1c0.2,0.1,0.4,0.1,0.7,0.3L101.1,40.1z
		"/>
	<path d="M102.9,44.8v-5.7h0.7v5.7H102.9z"/>
	<path d="M109.4,44c-0.5,0.6-1.1,0.8-2.1,0.8h-1.9v-5.7h1.9c1.7,0,2.9,1.2,2.9,2.8C110.2,42.7,109.9,43.5,109.4,44z M107.2,39.7
		h-1.1v4.5h1.1c0.8,0,1.2-0.1,1.5-0.5c0.4-0.4,0.7-1.1,0.7-1.8C109.5,40.7,108.5,39.7,107.2,39.7z"/>
	<path d="M114.9,44.8l-0.6-1.7h-2.3l-0.6,1.7h-0.8l2.1-5.9h0.8l2.1,5.9H114.9z M113.2,39.9l-0.9,2.6h1.9L113.2,39.9z"/>
	<path d="M120.7,44c-0.5,0.6-1.1,0.8-2.1,0.8h-1.9v-5.7h1.9c1.7,0,2.9,1.2,2.9,2.8C121.5,42.7,121.2,43.5,120.7,44z M118.5,39.7
		h-1.1v4.5h1.1c0.8,0,1.2-0.1,1.5-0.5c0.4-0.4,0.7-1.1,0.7-1.8C120.7,40.7,119.8,39.7,118.5,39.7z"/>
	<path d="M122.8,44.8v-5.7h3.2v0.6h-2.5v1.9h2.1v0.6h-2.1v2h2.6v0.6H122.8z"/>
	<path d="M133.6,44c-0.5,0.6-1.1,0.8-2.1,0.8h-1.9v-5.7h1.9c1.7,0,2.9,1.2,2.9,2.8C134.4,42.7,134.1,43.5,133.6,44z M131.4,39.7
		h-1.1v4.5h1.1c0.8,0,1.2-0.1,1.5-0.5c0.4-0.4,0.7-1.1,0.7-1.8C133.7,40.7,132.7,39.7,131.4,39.7z"/>
	<path d="M138.1,45c-1.7,0-2.9-1.2-2.9-3c0-1.7,1.2-3,2.9-3c1.7,0,2.9,1.2,2.9,3C141,43.7,139.8,45,138.1,45z M138.1,39.7
		c-1.1,0-2.1,1.1-2.1,2.3c0,1.3,0.9,2.3,2.1,2.3c1.1,0,2.1-1.1,2.1-2.3C140.2,40.7,139.3,39.7,138.1,39.7z"/>
	<path d="M146.1,42.8c-0.2,0-0.4,0-0.9-0.1v2.2h-0.7v-5.7h1.8c0.7,0,1.1,0.1,1.4,0.4c0.3,0.3,0.4,0.7,0.4,1.2
		C148.1,42,147.4,42.8,146.1,42.8z M147.1,40c-0.2-0.2-0.4-0.2-0.9-0.2h-1v2.3c0.4,0,0.6,0.1,0.8,0.1c0.3,0,0.6,0,0.7-0.1
		c0.4-0.2,0.7-0.6,0.7-1.2C147.4,40.5,147.3,40.2,147.1,40z"/>
	<path d="M151.7,45c-1.7,0-2.9-1.2-2.9-3c0-1.7,1.2-3,2.9-3c1.7,0,2.9,1.2,2.9,3C154.5,43.7,153.3,45,151.7,45z M151.7,39.7
		c-1.1,0-2.1,1.1-2.1,2.3c0,1.3,0.9,2.3,2.1,2.3c1.1,0,2.1-1.1,2.1-2.3C153.7,40.7,152.8,39.7,151.7,39.7z"/>
	<path d="M158.9,44.8l-1.6-2.4h-0.8v2.4h-0.7v-5.7h1.7c0.7,0,1,0.1,1.3,0.4c0.3,0.3,0.4,0.7,0.4,1.1c0,0.4-0.2,0.9-0.5,1.2
		c-0.2,0.2-0.4,0.3-0.9,0.4l1.7,2.5H158.9z M158.4,39.9c-0.2-0.1-0.3-0.2-0.8-0.2h-0.9v2.1h0.9c0.8,0,1.1-0.4,1.1-1.1
		C158.7,40.3,158.6,40.1,158.4,39.9z"/>
	<path d="M162.7,39.7v5.1H162v-5.1h-1.9v-0.6h4.5v0.6H162.7z"/>
	<path d="M167.9,45c-1.7,0-2.9-1.2-2.9-3c0-1.7,1.2-3,2.9-3c1.7,0,2.9,1.2,2.9,3C170.8,43.7,169.6,45,167.9,45z M167.9,39.7
		c-1.1,0-2.1,1.1-2.1,2.3c0,1.3,0.9,2.3,2.1,2.3c1.1,0,2.1-1.1,2.1-2.3C170,40.7,169.1,39.7,167.9,39.7z"/>
</g>
<g>
	<linearGradient id="SVGID_1_" gradientUnits="userSpaceOnUse" x1="44.7254" y1="12.9237" x2="31.6711" y2="45.5596">
		<stop  offset="0" style="stop-color:#63C9FF"/>
		<stop  offset="1" style="stop-color:#1E8BC7"/>
	</linearGradient>
	<path class="st1" d="M20.7,29.2c0-9.7,7.8-17.5,17.5-17.5c9.7,0,17.5,7.8,17.5,17.5s-7.8,17.5-17.5,17.5
		C28.5,46.7,20.7,38.8,20.7,29.2z"/>
	<rect x="21" y="34.2" class="st2" width="34" height="1.6"/>
	<path d="M55.6,27.1c-0.1-0.6-0.2-1.1-0.3-1.6H21.1c-0.1,0.5-0.2,1.1-0.3,1.6H32c-5.4,2.7-8.8,8.4-15.4,8.4c-4.3,0-7.2-2.4-9.3-6.3
		l-1.4,0.8c2.3,4.2,5.6,7.2,10.7,7.2c9.5,0,12.7-9.8,21.4-9.8c0.1,0,0.2,0,0.3,0c0.1,0,0.2,0,0.3,0c6.8,0,10.2,6,15.9,8.6
		c0.2-0.5,0.4-1,0.6-1.5c-3.7-1.8-6.6-5.2-10.4-7.2H55.6z"/>
</g>
</svg>
