<?xml version="1.0" encoding="utf-8"?>
<!-- Generator: Adobe Illustrator 19.2.1, SVG Export Plug-In . SVG Version: 6.00 Build 0)  -->
<svg version="1.1" id="layer" xmlns="http://www.w3.org/2000/svg" xmlns:xlink="http://www.w3.org/1999/xlink" x="0px" y="0px"
	 viewBox="0 0 652 652" style="enable-background:new 0 0 652 652;" xml:space="preserve">
<style type="text/css">
	.st0{fill:#475DA7;}
	.st1{fill:#3C3C3B;}
	.st2{fill:url(#SVGID_1_);}
	.st3{fill:url(#SVGID_2_);}
	.st4{fill:url(#SVGID_3_);}
</style>
<path class="st0" d="M403.8,214.6h10.3v89.3c-0.2,8.2,0.9,16.4,3.2,24.3c1.8,5.7,4.7,11,8.6,15.6c3.4,3.8,7.6,6.7,12.4,8.4
	c4.8,1.6,9.8,2.5,14.8,2.4c5.2,0,10.4-0.8,15.3-2.4c4.9-1.7,9.3-4.6,12.7-8.4c4-4.5,7-9.8,8.8-15.6c2.4-7.9,3.6-16.1,3.3-24.4v-89.2
	h9.6V305c0.3,9.7-1.2,19.3-4.2,28.4c-2.4,6.8-6.2,13-11.2,18.2c-4.4,4.4-9.9,7.7-15.9,9.6c-12,3.7-24.8,3.7-36.8,0
	c-6-1.9-11.4-5.1-15.9-9.6c-5-5.2-8.7-11.4-11-18.2c-3-9.2-4.4-18.8-4.1-28.5L403.8,214.6L403.8,214.6z M519.2,214.6h10.3v81.5h0.4
	l71.2-81.5h12.3l-46.9,54.3l53.3,92.4h-11.8l-48.6-84.5l-29.9,34.1v50.4h-10.3L519.2,214.6z"/>
<path class="st1" d="M21.3,387.9h4.9v16.5h18.5v-16.5h5.1v39.4h-5.1v-18.5H26.2v18.5h-4.9V387.9z M57,412.8c0-2.2,0.3-4.4,1.1-6.4
	c0.7-1.8,1.7-3.4,2.9-4.8c1.2-1.3,2.6-2.3,4.2-3c3.1-1.4,6.7-1.4,9.8,0c1.4,0.6,2.7,1.5,3.7,2.6c1,1.3,1.8,2.8,2.2,4.3
	c0.6,1.8,0.8,3.7,0.8,5.6c0,0.9-0.1,1.8-0.2,2.6H61.8c0,2.8,1.1,5.4,2.9,7.5c1.8,1.8,4.3,2.8,6.8,2.6c1.3,0,2.6-0.2,3.9-0.6
	c1.2-0.4,2.3-1,3.4-1.6l1.7,3.2c-1.3,0.8-2.8,1.6-4.3,2.1c-1.7,0.6-3.5,0.9-5.3,0.9c-1.9,0-3.8-0.3-5.5-1.1c-1.7-0.7-3.2-1.7-4.5-3
	c-1.3-1.3-2.4-2.9-3.1-4.6C57.2,417.2,56.9,415,57,412.8z M77.4,410.6c0.2-2.4-0.5-4.9-1.9-6.9c-1.3-1.6-3.2-2.5-5.3-2.4
	c-1,0-2.1,0.3-3,0.7c-1,0.4-1.9,1-2.6,1.8c-0.8,0.8-1.4,1.8-1.9,2.9c-0.5,1.3-0.9,2.6-1,3.9L77.4,410.6z M85.8,419.8
	c-0.1-3.1,1.6-5.9,4.3-7.3c4.3-2.1,8.9-3.3,13.7-3.6c0-0.9-0.1-1.8-0.3-2.6c-0.2-0.8-0.5-1.6-1-2.4c-0.5-0.7-1.1-1.2-1.8-1.6
	c-0.9-0.5-1.9-0.7-2.9-0.6c-1.6,0-3.3,0.3-4.8,0.9c-1.4,0.6-2.7,1.3-3.9,2.2l-2-3.5c1.6-1,3.3-1.9,5-2.6c2.1-0.8,4.3-1.3,6.5-1.2
	c3-0.3,5.9,1,7.8,3.3c1.7,2.6,2.6,5.6,2.4,8.7v17.9h-4.1l-0.4-3.5h-0.1c-1.4,1.2-2.9,2.2-4.5,3c-1.6,0.8-3.4,1.2-5.2,1.2
	c-2.3,0.1-4.5-0.7-6.2-2.2C86.6,424.2,85.7,422,85.8,419.8z M90.7,419.4c-0.1,1.4,0.4,2.7,1.5,3.6c1.1,0.7,2.3,1.1,3.6,1.1
	c1.4,0,2.8-0.3,4-0.9c1.5-0.8,2.8-1.8,4-2.9v-8.2c-2.1,0.3-4.1,0.6-6.2,1.1c-1.4,0.3-2.8,0.9-4.1,1.6c-0.9,0.5-1.7,1.2-2.2,2.1
	C90.9,417.6,90.7,418.5,90.7,419.4z M117.1,384.6h4.9v37.2c-0.1,0.6,0.1,1.2,0.4,1.7c0.2,0.3,0.6,0.5,1,0.5h0.5c0.2,0,0.4,0,0.6,0
	l0.7,3.7c-0.4,0.2-0.7,0.3-1.1,0.4c-0.6,0-1.1,0-1.7,0c-1.5,0.2-3.1-0.5-4.1-1.7c-0.9-1.5-1.3-3.2-1.2-4.9V384.6z M132.4,402.2h-4.3
	v-3.7l4.6-0.3l0.6-8.2h4.1v8.2h7.9v4h-7.9v16.2c-0.1,1.5,0.3,2.9,1,4.2c0.8,1.1,2.2,1.6,3.5,1.5c0.6,0,1.1-0.1,1.7-0.2
	c0.6-0.2,1.2-0.4,1.7-0.6l1,3.7c-0.9,0.3-1.8,0.6-2.6,0.8c-0.9,0.2-1.9,0.3-2.8,0.3c-1.3,0-2.7-0.2-3.9-0.7c-1-0.4-1.9-1.1-2.6-2
	c-0.7-0.9-1.2-1.9-1.4-3.1c-0.3-1.3-0.4-2.6-0.4-4L132.4,402.2L132.4,402.2z M151,384.6h4.8v17.6c1.3-1.3,2.8-2.4,4.4-3.4
	c1.6-1,3.4-1.5,5.3-1.4c2.6-0.2,5.1,0.9,6.8,2.9c1.6,2.6,2.3,5.5,2.1,8.5v18.5h-4.9v-17.8c0.2-2.1-0.3-4.2-1.3-6
	c-1-1.3-2.6-2-4.2-1.8c-1.4,0-2.8,0.4-4,1.1c-1.5,1-2.8,2.1-4.1,3.4v21.1H151L151,384.6L151,384.6z M194.6,387.9h9.9
	c5.1-0.4,10.2,1.5,13.9,5c3.4,4,5.1,9.2,4.8,14.5c0.1,2.8-0.3,5.7-1.1,8.4c-0.7,2.3-2,4.4-3.6,6.3c-1.6,1.7-3.6,3.1-5.8,3.9
	c-2.5,0.9-5.2,1.4-7.9,1.3h-10.1V387.9L194.6,387.9z M204.1,423.2c3.9,0.3,7.8-1.2,10.4-4.1c2.5-3.4,3.7-7.5,3.4-11.6
	c0.3-4.1-0.9-8.2-3.4-11.5c-2.7-2.8-6.5-4.3-10.4-4h-4.5v31.2C199.6,423.2,204.1,423.2,204.1,423.2z M228.8,419.8
	c-0.1-3.1,1.6-5.9,4.3-7.3c4.3-2.1,8.9-3.3,13.7-3.6c0-0.9-0.1-1.8-0.3-2.6c-0.2-0.8-0.5-1.6-1-2.4c-0.5-0.7-1.1-1.4-1.8-1.8
	c-0.9-0.5-1.9-0.7-3-0.6c-1.6,0-3.3,0.3-4.8,0.9c-1.4,0.6-2.7,1.3-3.9,2.2l-2.1-3.3c1.6-1,3.2-1.9,5-2.6c2.1-0.8,4.3-1.3,6.5-1.2
	c3-0.3,5.9,1,7.8,3.3c1.7,2.6,2.6,5.6,2.4,8.7v17.9h-4l-0.4-3.5c-1.4,1.2-2.9,2.2-4.5,3c-1.6,0.8-3.3,1.2-5.1,1.2
	c-2.3,0.1-4.6-0.7-6.3-2.2C229.5,424.2,228.6,422,228.8,419.8z M233.6,419.4c-0.1,1.4,0.5,2.7,1.6,3.6c1.1,0.7,2.3,1.1,3.6,1.1
	c1.4,0,2.7-0.3,3.9-0.9c1.5-0.8,2.8-1.8,4-2.9v-8.2c-2.1,0.3-4.2,0.6-6.2,1.1c-1.4,0.3-2.8,0.9-4.1,1.6c-0.9,0.5-1.7,1.2-2.2,2.1
	C233.9,417.6,233.6,418.5,233.6,419.4L233.6,419.4z M261,402.2h-4.3v-3.7l4.6-0.3l0.6-8.2h4.2v8.2h7.9v4h-7.9v16.2
	c-0.1,1.5,0.3,2.9,1,4.2c0.8,1.1,2.2,1.6,3.5,1.5c0.6,0,1.1-0.1,1.7-0.2c0.5-0.1,1.1-0.3,1.6-0.6l1,3.7c-0.9,0.3-1.8,0.6-2.6,0.8
	c-0.9,0.2-1.8,0.3-2.6,0.3c-1.3,0-2.7-0.2-3.9-0.7c-1-0.4-1.9-1.1-2.6-2c-0.7-0.9-1.2-2-1.4-3.1c-0.3-1.3-0.4-2.6-0.4-4L261,402.2
	L261,402.2z M277,419.8c-0.1-3.1,1.6-5.9,4.3-7.3c4.3-2.1,8.9-3.3,13.7-3.6c0-0.9-0.1-1.8-0.3-2.6c-0.2-0.8-0.5-1.6-1-2.4
	c-0.5-0.7-1.1-1.2-1.8-1.6c-0.9-0.5-1.9-0.7-3-0.6c-1.6,0-3.3,0.3-4.8,0.9c-1.4,0.6-2.7,1.3-4,2.2l-2-3.4c1.6-1,3.2-1.9,5-2.6
	c2.1-0.8,4.3-1.3,6.5-1.2c3-0.3,5.9,1,7.8,3.3c1.7,2.6,2.6,5.6,2.4,8.7v17.9h-4.1l-0.4-3.5h-0.1c-1.4,1.2-2.9,2.2-4.4,3
	c-1.6,0.8-3.3,1.2-5.1,1.2c-2.3,0.1-4.5-0.7-6.2-2.2C277.8,424.2,276.9,422,277,419.8z M281.9,419.4c-0.1,1.4,0.4,2.7,1.5,3.6
	c1.1,0.7,2.3,1.1,3.6,1.1c1.4,0,2.8-0.3,4-1c1.4-0.8,2.8-1.8,4-2.9v-8.1c-2.1,0.3-4.2,0.6-6.2,1.1c-1.4,0.3-2.8,0.9-4.1,1.6
	c-0.9,0.5-1.7,1.2-2.2,2.1C282.1,417.6,281.9,418.5,281.9,419.4z M341.8,427.3l-9.5-16.6h-7.1v16.6h-5v-39.4h12.3
	c1.9,0,3.8,0.2,5.6,0.6c1.6,0.3,3.1,1,4.4,1.9c1.2,0.9,2.2,2.1,2.9,3.4c0.8,1.7,1.1,3.5,1,5.3c0.1,2.7-0.7,5.3-2.4,7.4
	c-1.7,1.9-4,3.2-6.5,3.8l10,17.2C347.5,427.5,341.8,427.3,341.8,427.3z M325.2,406.6h6.6c2.5,0.2,5-0.5,7.1-1.9
	c1.7-1.4,2.6-3.6,2.5-5.8c0.2-2.1-0.7-4.2-2.5-5.5c-2.2-1.2-4.6-1.7-7.1-1.6h-6.6C325.2,392,325.2,406.6,325.2,406.6z M350.9,412.8
	c0-2.2,0.3-4.4,1.1-6.4c0.7-1.8,1.7-3.4,2.9-4.8c1.2-1.3,2.6-2.3,4.2-3c3.1-1.4,6.7-1.4,9.8,0c1.4,0.6,2.7,1.5,3.7,2.6
	c1,1.3,1.8,2.8,2.2,4.3c0.6,1.8,0.8,3.7,0.8,5.6c0,0.9-0.1,1.8-0.2,2.6h-19.7c0,2.8,1.1,5.4,2.9,7.5c1.8,1.8,4.3,2.8,6.8,2.6
	c1.3,0,2.6-0.2,3.9-0.6c1.2-0.4,2.3-1,3.4-1.6l1.7,3.2c-1.4,0.8-2.8,1.5-4.3,2.1c-1.7,0.6-3.5,0.9-5.3,0.9c-1.9,0-3.8-0.3-5.5-1.1
	c-1.7-0.7-3.2-1.7-4.5-3c-1.3-1.4-2.3-3-3-4.8C351.3,417,350.9,414.9,350.9,412.8L350.9,412.8z M371.4,410.6
	c0.2-2.4-0.5-4.9-1.9-6.9c-1.3-1.6-3.3-2.5-5.3-2.4c-1,0-2,0.2-3,0.6c-1,0.4-1.9,1-2.6,1.8c-0.8,0.8-1.4,1.8-1.9,2.9
	c-0.5,1.3-0.9,2.6-1,3.9H371.4z M381.2,420.7c1.2,1,2.5,1.9,3.9,2.6c1.5,0.7,3,1,4.7,1c1.6,0.1,3.1-0.4,4.3-1.3
	c0.9-0.8,1.5-2,1.5-3.2c0-0.7-0.2-1.4-0.6-2c-0.4-0.6-0.9-1.1-1.5-1.5c-0.7-0.4-1.4-0.8-2.1-1.1l-2.4-0.9c-1.1-0.4-2.1-0.8-3.1-1.2
	c-1-0.4-1.9-1-2.8-1.7c-0.8-0.6-1.5-1.4-2-2.3c-0.5-1-0.8-2.1-0.8-3.2c0-1.1,0.2-2.2,0.7-3.3c0.5-1,1.1-1.9,2-2.6
	c0.9-0.8,2-1.4,3.2-1.7c1.4-0.4,2.8-0.7,4.2-0.6c1.7,0,3.5,0.3,5.1,1c1.4,0.6,2.8,1.4,4,2.3L397,404c-0.9-0.8-2-1.4-3-2
	c-1.1-0.5-2.3-0.7-3.6-0.7c-1.5-0.1-2.9,0.3-4.1,1.3c-0.8,0.7-1.3,1.8-1.3,2.9c0,0.6,0.2,1.2,0.5,1.8c0.4,0.5,0.9,1,1.5,1.3
	c0.7,0.4,1.3,0.8,2.1,1l2.5,0.9l3.1,1.3c1,0.4,2,1,2.9,1.6c0.8,0.7,1.6,1.5,2.1,2.4c0.6,1.1,0.9,2.3,0.8,3.5c0,1.2-0.2,2.3-0.7,3.4
	c-0.5,1-1.2,1.9-2,2.6c-1,0.9-2.1,1.5-3.4,1.9c-1.5,0.5-3,0.7-4.6,0.7c-2,0-4.1-0.4-6-1.1c-1.8-0.7-3.4-1.7-4.9-2.9L381.2,420.7
	L381.2,420.7z M404.2,412.8c0-2.2,0.3-4.4,1.1-6.4c0.7-1.8,1.7-3.4,2.9-4.8c1.2-1.3,2.6-2.3,4.3-3c3.1-1.4,6.7-1.4,9.8,0
	c1.4,0.6,2.7,1.5,3.7,2.6c1,1.3,1.8,2.8,2.2,4.3c0.7,2.7,0.9,5.6,0.6,8.3h-19.8c0,2.8,1.1,5.4,2.9,7.5c1.8,1.8,4.3,2.8,6.8,2.6
	c1.3,0,2.6-0.2,3.9-0.6c1.2-0.4,2.3-1,3.4-1.6l1.7,3.2c-1.3,0.8-2.8,1.6-4.3,2.1c-1.7,0.6-3.5,0.9-5.3,0.9c-1.9,0-3.8-0.3-5.5-1.1
	c-1.7-0.7-3.2-1.7-4.4-3c-1.3-1.4-2.3-3-3-4.8C404.6,417.1,404.2,414.9,404.2,412.8z M424.6,410.6c0.2-2.4-0.5-4.9-1.9-6.9
	c-1.3-1.6-3.2-2.5-5.3-2.4c-1,0-2,0.2-3,0.6c-1,0.4-1.9,1-2.6,1.8c-0.8,0.8-1.4,1.8-1.9,2.9c-0.5,1.3-0.9,2.6-1,3.9H424.6z
	 M433,419.8c-0.1-3.1,1.6-5.9,4.3-7.3c4.3-2.1,8.9-3.3,13.7-3.6c0-0.9-0.1-1.8-0.3-2.6c-0.2-0.8-0.5-1.6-1-2.4
	c-0.5-0.7-1.1-1.2-1.8-1.6c-0.9-0.5-1.9-0.7-3-0.6c-1.6,0-3.3,0.3-4.8,0.9c-1.4,0.6-2.7,1.3-3.9,2.2l-2-3.4c1.6-1,3.2-1.9,5-2.6
	c2.1-0.8,4.3-1.3,6.5-1.2c3-0.3,5.9,1,7.8,3.3c1.7,2.6,2.6,5.6,2.4,8.7v17.9h-4.1l-0.4-3.5h-0.1c-1.4,1.2-2.9,2.2-4.4,3
	c-1.6,0.8-3.4,1.2-5.2,1.2c-2.3,0.1-4.5-0.7-6.2-2.2C433.9,424.3,432.9,422.1,433,419.8z M437.9,419.4c-0.1,1.4,0.4,2.7,1.5,3.6
	c1.1,0.7,2.3,1.1,3.6,1.1c1.4,0,2.7-0.3,3.9-0.9c1.5-0.8,2.8-1.8,4-2.9v-8.2c-2.1,0.3-4.2,0.6-6.2,1.1c-1.4,0.3-2.8,0.9-4.1,1.6
	c-0.9,0.5-1.7,1.2-2.2,2.1C438,417.6,437.8,418.5,437.9,419.4z M464.4,398.2h4.1l0.4,5.3h0.2c0.9-1.7,2.1-3.2,3.7-4.4
	c1.3-1.1,3-1.6,4.7-1.6c1.1,0,2.1,0.2,3.1,0.6l-1,4.3c-0.4-0.1-0.9-0.3-1.3-0.4c-0.5,0-1,0-1.5,0c-1.4,0.1-2.8,0.6-3.9,1.5
	c-1.6,1.4-2.8,3.2-3.5,5.3v18.7h-4.9C464.4,427.5,464.4,398.2,464.4,398.2z M481.6,412.8c0-2.2,0.4-4.4,1.1-6.5
	c0.7-1.8,1.7-3.4,3.1-4.8c1.3-1.3,2.8-2.3,4.5-3c1.7-0.7,3.5-1,5.3-1c1.7,0,3.4,0.3,5,1.1c1.3,0.6,2.5,1.5,3.6,2.4l-2.5,3.2
	c-0.8-0.7-1.7-1.4-2.6-1.9c-1-0.5-2.1-0.7-3.2-0.7c-2.6,0-5,1.1-6.6,3.2c-0.8,1.1-1.5,2.3-1.9,3.6c-0.5,1.5-0.7,3-0.7,4.6
	c0,1.6,0.2,3.1,0.7,4.6c0.4,1.3,1,2.5,1.8,3.5c0.8,1,1.7,1.8,2.9,2.3c1.2,0.5,2.4,0.8,3.7,0.8c1.3,0,2.6-0.3,3.8-0.9
	c1.1-0.5,2.1-1.2,3-2.1l2.2,3.2c-1.3,1.1-2.8,2-4.4,2.6c-1.6,0.7-3.3,1-5.1,1c-1.8,0-3.6-0.4-5.3-1c-1.7-0.6-3.2-1.7-4.4-3
	c-1.3-1.4-2.3-3-2.9-4.8C482,417.1,481.6,415,481.6,412.8L481.6,412.8z M510.4,384.6h4.9v11.6l-0.2,6c1.3-1.3,2.8-2.4,4.4-3.4
	c1.6-1,3.4-1.5,5.3-1.4c2.6-0.2,5.1,0.9,6.7,2.9c1.6,2.5,2.3,5.5,2.1,8.5v18.5h-4.9v-17.8c0.2-2.1-0.3-4.2-1.3-6
	c-1-1.3-2.6-2-4.2-1.8c-1.4,0-2.8,0.4-4,1.1c-1.4,1-2.8,2.1-4,3.4v21.1h-4.8L510.4,384.6L510.4,384.6z M553.7,387.9h5v23.2
	c0,2,0.2,4,0.7,5.9c0.4,1.4,1,2.7,2,3.9c0.8,0.9,1.8,1.6,2.9,2.1c2.4,0.8,4.9,0.8,7.3,0c1.1-0.4,2.2-1.1,3-2.1
	c0.9-1.1,1.6-2.4,2-3.9c0.5-1.9,0.8-3.9,0.7-5.9v-23.2h4.8v23.1c0.1,2.7-0.3,5.4-1.1,7.9c-0.6,2-1.6,3.8-3,5.3
	c-1.2,1.3-2.8,2.3-4.5,2.9c-1.8,0.6-3.7,0.9-5.6,0.9c-1.9,0-3.8-0.3-5.6-0.9c-1.7-0.6-3.3-1.6-4.5-2.9c-1.4-1.5-2.4-3.3-3-5.3
	c-0.8-2.6-1.2-5.2-1.1-7.9V387.9L553.7,387.9z M591.7,387.9h5v19.8h0.2l16.4-19.8h5.7l-12.4,15l14.3,24.4h-5.6l-11.8-20.5l-6.8,7.9
	v12.5h-5L591.7,387.9z"/>
<linearGradient id="SVGID_1_" gradientUnits="userSpaceOnUse" x1="6.7478" y1="561.9223" x2="13.9294" y2="558.382" gradientTransform="matrix(33.575 0 0 -42.009 -195.45 23863.8496)">
	<stop  offset="0" style="stop-color:#3DB28C"/>
	<stop  offset="0.7" style="stop-color:#475DA7"/>
</linearGradient>
<path class="st2" d="M20.9,214.6h33.2v56.5h50.7v-56.5h33.4v146.7h-33.4v-61.2H54.1v61.2H20.9V214.6z"/>
<linearGradient id="SVGID_2_" gradientUnits="userSpaceOnUse" x1="7.3939" y1="562.6954" x2="14.4647" y2="559.1549" gradientTransform="matrix(33.065 0 0 -42.0142 -154.505 23866.7773)">
	<stop  offset="0" style="stop-color:#3DB28C"/>
	<stop  offset="0.7" style="stop-color:#475DA7"/>
</linearGradient>
<path class="st3" d="M153.2,214.6h41.6c10.3-0.1,20.6,1.3,30.5,4.3c8.6,2.6,16.6,7.1,23.2,13.1c6.7,6.3,11.8,14,14.9,22.6
	c3.7,10.5,5.5,21.5,5.3,32.6c0.2,11.2-1.6,22.3-5.3,32.8c-6,17.4-19.8,31-37.4,36.7c-9.5,3.1-19.4,4.6-29.4,4.5h-43.4V214.6z
	 M192.7,334.5c5.8,0.1,11.6-0.8,17.1-2.5c4.9-1.5,9.4-4.2,13.1-7.9c3.9-4.1,6.8-9.1,8.5-14.5c2.2-7.2,3.2-14.7,3-22.3
	c0.2-7.4-0.8-14.8-3-21.9c-1.7-5.3-4.6-10.2-8.5-14.2c-3.7-3.6-8.1-6.2-13.1-7.6c-5.6-1.6-11.4-2.3-17.1-2.2h-6.3v93.1H192.7
	L192.7,334.5z"/>
<linearGradient id="SVGID_3_" gradientUnits="userSpaceOnUse" x1="7.944" y1="563.7751" x2="15.099" y2="560.2349" gradientTransform="matrix(33.453 0 0 -42.0103 -120.5219 23864.5762)">
	<stop  offset="0" style="stop-color:#3DB28C"/>
	<stop  offset="0.7" style="stop-color:#475DA7"/>
</linearGradient>
<path class="st4" d="M359.6,361.3l-28.2-52.8h-18.3v52.8H280V214.6h52.9c7.4,0,14.8,0.7,22,2.2c6.4,1.3,12.5,3.9,17.9,7.5
	c5.2,3.6,9.4,8.4,12.2,14c3.2,6.8,4.8,14.3,4.5,21.8c0.4,9.4-2.1,18.7-7.1,26.7c-4.7,6.9-11.3,12.4-19.1,15.6l33.4,58.7L359.6,361.3
	L359.6,361.3z M313.1,282.1h17.1c8.7,0,15.3-1.8,19.9-5.5c4.7-4,7.3-10.1,6.9-16.3c0-7.2-2.3-12.2-6.9-15.1
	c-4.6-2.8-11.2-4.2-19.9-4.2h-17.1L313.1,282.1L313.1,282.1z"/>
</svg>
