<?xml version="1.0" encoding="utf-8"?>
<!-- Generator: Adobe Illustrator 26.0.1, SVG Export Plug-In . SVG Version: 6.00 Build 0)  -->
<svg version="1.1" id="Layer_1" xmlns="http://www.w3.org/2000/svg" xmlns:xlink="http://www.w3.org/1999/xlink" x="0px" y="0px"
	 viewBox="0 0 300 300" style="enable-background:new 0 0 300 300;" xml:space="preserve">
<style type="text/css">
	.st0{fill:#832421;}
	.st1{fill:#FFFFFF;}
</style>
<circle class="st0" cx="150" cy="150" r="150"/>
<g>
	<rect x="45.41" y="152.25" class="st1" width="12.54" height="62.52"/>
	<path class="st1" d="M106.55,186.05c-1.29-1.29-2.79-2.28-4.52-3c-1.73-0.71-3.6-1.15-5.56-1.34v-0.53
		c2.21-0.41,4.1-1.11,5.65-2.05c1.54-0.97,2.81-2.1,3.76-3.41c0.95-1.31,1.66-2.72,2.1-4.24s0.67-3.07,0.67-4.61
		c0-3.16-0.74-5.76-2.14-7.79c-1.48-2.03-3.39-3.64-5.79-4.8c-2.4-1.18-5.1-1.98-8.07-2.42c-2.97-0.44-6.02-0.67-9.13-0.67
		c-1.91,0-3.83,0.02-5.74,0.09s-3.78,0.16-5.6,0.28c-1.82,0.12-3.5,0.25-5.09,0.44c-1.57,0.18-3,0.35-4.24,0.53v61.81
		c1.68,0.37,3.55,0.62,5.6,0.81c2.05,0.16,4.08,0.3,6.09,0.39c2.01,0.09,3.9,0.14,5.65,0.14c1.75,0,3.16,0,4.24,0
		c3.27,0,6.5-0.37,9.66-1.08c3.16-0.71,5.97-1.82,8.41-3.32c2.44-1.5,4.43-3.41,5.95-5.74c1.52-2.33,2.28-5.14,2.28-8.41
		c0-2.44-0.39-4.59-1.13-6.41C108.86,188.89,107.85,187.34,106.55,186.05z M75.5,162.28c0.85-0.12,1.98-0.21,3.41-0.28
		c1.43-0.07,3.02-0.09,4.75-0.09c1.45,0,2.84,0.09,4.22,0.28c1.36,0.18,2.61,0.55,3.71,1.08c1.11,0.53,1.98,1.29,2.65,2.24
		s0.99,2.21,0.99,3.76c0,2.33-0.88,4.17-2.61,5.51c-1.73,1.34-3.85,2.4-6.36,3.18c-0.83,0.12-1.87,0.21-3.09,0.23
		c-1.22,0.02-2.28,0.05-3.18,0.05v-0.02h-4.5V162.28z M95.79,200.39c-0.67,1.06-1.61,1.91-2.77,2.61c-1.18,0.69-2.51,1.18-4.03,1.48
		c-1.52,0.3-3.14,0.44-4.8,0.44c-0.65,0-1.41,0-2.26-0.05c-0.88-0.02-1.73-0.07-2.56-0.09c-0.83-0.02-1.59-0.07-2.28-0.14
		c-0.69-0.07-1.2-0.16-1.57-0.28v-16.3h7.33c1.68,0,3.34,0.09,4.98,0.23c1.64,0.16,3.14,0.51,4.47,1.08
		c1.36,0.58,2.44,1.43,3.27,2.56c0.83,1.13,1.25,2.65,1.25,4.56C96.83,198.04,96.48,199.35,95.79,200.39z"/>
	<path class="st1" d="M152.32,155c-2.72-1.52-5.76-2.54-9.18-3.04c-3.41-0.51-6.78-0.76-10.12-0.76c-3.27,0-6.57,0.12-9.84,0.39
		s-6.27,0.65-8.95,1.13v62.04h13.26v-21.14c0.37,0.07,0.9,0.12,1.61,0.18c0.71,0.07,1.48,0.12,2.28,0.14
		c0.81,0.02,1.57,0.05,2.28,0.05s1.22,0,1.52,0c3.34,0,6.59-0.39,9.75-1.2c3.16-0.81,5.99-2.07,8.46-3.8s4.45-3.99,5.95-6.75
		c1.5-2.77,2.24-6.13,2.24-10.07c0-4.47-0.88-8.07-2.61-10.79C157.25,158.64,155.04,156.52,152.32,155z M146.28,177.31
		c-0.85,1.34-1.94,2.4-3.27,3.18c-1.34,0.78-2.88,1.29-4.61,1.52c-1.73,0.25-3.46,0.37-5.19,0.37c-0.3,0-0.69-0.02-1.2-0.05
		c-0.51-0.02-1.06-0.07-1.66-0.09c-0.6-0.02-1.18-0.07-1.71-0.14s-0.92-0.12-1.15-0.18V163.3c0.71-0.18,1.66-0.3,2.81-0.37
		c1.15-0.07,2.37-0.09,3.62-0.09c1.66,0,3.32,0.12,4.98,0.39c1.64,0.23,3.09,0.69,4.38,1.34c1.29,0.65,2.31,1.54,3.09,2.72
		c0.76,1.15,1.15,2.7,1.15,4.61C147.52,174.18,147.11,175.98,146.28,177.31z"/>
	<path class="st1" d="M171.45,156.54c-0.9-0.41-1.84-0.12-2.77-0.21c-0.07,0-0.14,0-0.21,0c-0.39,0-0.81-0.02-1.2,0
		c-0.6,0-1.41-0.18-1.75,0.12c-0.46,0.42-0.18,1.27-0.16,1.91c0.02,1.34-0.18,2.67,0.12,4.01c1.36,0.02,2.7,0.07,4.03,0.07
		c1.48,0.02,1.48,0,1.54-1.41c0.02-0.32-0.07-0.62,0.12-0.97C171.77,158.94,171.31,157.72,171.45,156.54z"/>
	<path class="st1" d="M119.83,97.52c1.38,0.25,2.81,0.25,4.2,0c0.46-0.09,1.2-0.46,0.97-1.36c-0.12-0.46-0.02-0.95-0.02-1.43
		c0-0.74,0.05-1.5,0.02-2.24c-0.05-0.58-0.37-0.97-1.01-0.97c-1.29,0-2.58-0.02-3.87,0c-0.88,0.02-1.2,0.32-1.22,1.18
		c-0.02,1.22,0.14,2.47-0.05,3.67C118.68,97.34,119.49,97.45,119.83,97.52z"/>
	<path class="st1" d="M198.22,156.31c-0.74-0.05-1.5-0.02-2.24,0c-0.95,0.02-1.87,0.07-2.81,0.09c-0.07,0.95-0.12,1.87-0.16,2.81
		c0,0,0.02,0,0.05-0.02c0,0.74,0.02,1.5,0,2.24c-0.02,0.44,0.14,0.6,0.58,0.58c0.42-0.02,0.92-0.16,1.2,0.02
		c0.55,0.39,0.95,0.32,1.59,0.18c0.48-0.09,1.18,0.25,1.8,0.18c0.58-0.07,0.97-0.37,0.97-1.01c0-1.34,0-2.7,0-4.06
		C199.19,156.68,198.79,156.36,198.22,156.31z"/>
	<path class="st1" d="M175.3,180.77c0.74,0.02,1.5,0.02,2.24,0c0.92-0.02,1.87,0.16,2.79-0.12c0-0.95,0-1.87,0-2.81
		c0.02,0,0.07,0,0.05-0.02c0-0.74,0-1.5,0-2.24c-0.02-0.92-0.02-0.95-1.01-0.92c-0.44,0-0.9-0.12-1.36,0.12
		c-0.85,0.46-1.75,0.48-2.61-0.02c-0.65-0.37-0.97,0.23-1.08,0.53c-0.16,0.48-0.23,1.2,0,1.59c0.55,0.9,0.46,1.64,0,2.54
		C173.99,180.06,174.56,180.75,175.3,180.77z"/>
	<path class="st1" d="M208.13,195.97c-0.05-0.81-0.05-1.61-0.07-2.42c-0.85-0.35-1.73,0-2.56-0.16c-1.01,0.14-2.03-0.14-3,0.14
		c-0.02,0.95-0.05,1.89-0.07,2.84c-0.02,0.67-0.02,1.36,0,2.03c0.02,0.74,0.37,1.08,1.08,1.11c1.08,0.05,2.17-0.07,3.25,0.05
		c0.76,0.07,1.11-0.37,1.5-0.81c0.39-0.44,0.35-0.88-0.02-1.41C208.02,197,208.15,196.43,208.13,195.97z"/>
	<path class="st1" d="M199.14,176.35c-0.02-0.99-0.71-1.66-1.73-1.68c-0.46-0.02-0.95,0-1.41,0c-0.6,0-1.22-0.02-1.87-0.02
		c-0.74,0.02-1.11,0.35-1.13,1.04c-0.02,1.36-0.05,2.7,0,4.06c0.02,0.88,0.67,1.31,1.5,0.9c0.85-0.44,1.71-0.42,2.47-0.12
		c0.55,0.21,0.97,0.39,1.41-0.02c0.44-0.42,0.88-0.78,0.78-1.52C199.07,178.12,199.16,177.22,199.14,176.35z"/>
	<path class="st1" d="M202.41,159.22c0,1.11,0,2.05,0,3.02c0,0.05,0.07,0.14,0.12,0.14c1.01,0.05,2.01,0.07,3.02,0.09
		c0.53,0.02,1.08,0.07,1.61,0c0.55-0.07,0.95-0.37,0.95-1.01c0-0.74,0.02-1.5,0-2.24c-0.05-0.92,0.14-1.87-0.14-2.79
		c-0.88-0.02-1.73-0.07-2.61-0.07c-0.95,0-1.87,0.02-2.81,0.05C202.23,157.37,202.53,158.39,202.41,159.22z"/>
	<path class="st1" d="M152.04,137.96c-1.41,0.05-2.84,0-4.24,0.02c-0.88,0-1.2,0.3-1.22,1.13c-0.02,1.08-0.02,2.17,0,3.25
		c0.02,1.01,0.3,1.29,1.27,1.31c0.67,0.02,1.36,0.05,2.03,0c0.92-0.05,1.87,0.18,2.77-0.14c0-0.85,0-1.73,0-2.61
		c0.02,0,0.05,0,0.02,0c0-0.76-0.02-1.5,0-2.24C152.69,138.24,152.64,137.94,152.04,137.96z"/>
	<path class="st1" d="M234.99,100.91c-0.67-0.02-1.36,0-2.03,0c-0.6,0-1.2-0.02-1.8,0c-0.99,0-1.01,0-1.01,0.92
		c0,1.54,0.02,3.09,0.05,4.63c1.59,0.32,3.2,0.09,4.8,0.14c0.88,0.02,1.22-0.32,1.24-1.13c0.02-1.13,0.02-2.28,0-3.44
		C236.21,101.24,235.87,100.94,234.99,100.91z"/>
	<path class="st1" d="M128.39,106.54c0.88,0,1.73,0,2.61,0c0,0.02,0,0.05-0.02,0.05c0.76,0,1.5,0.02,2.24,0
		c0.74-0.02,1.11-0.35,1.13-1.04c0.02-1.22,0.02-2.42,0-3.64c-0.02-0.67-0.39-0.99-1.15-1.01c-1.41-0.02-2.84,0-4.24-0.02
		c-0.46,0-0.76,0.05-0.71,0.65c0.05,0.74,0,1.5,0.02,2.24C128.29,104.69,128.11,105.62,128.39,106.54z"/>
	<path class="st1" d="M147.84,78.9c0.67,0.02,1.34,0,2.17,0c0.78-0.09,1.71,0.16,2.61-0.12c0.02-0.88,0.05-1.73,0.07-2.61
		c0.02-0.6,0.02-1.22,0-1.82c-0.05-0.74-0.35-1.11-1.04-1.13c-1.34-0.02-2.7-0.02-4.03,0c-0.67,0-0.99,0.37-1.01,1.13
		c-0.02,1.15-0.02,2.28,0,3.44C146.62,78.57,146.97,78.87,147.84,78.9z"/>
	<path class="st1" d="M152.73,131.48c0.02-0.6-0.02-1.22,0-1.82c0.02-0.65-0.37-1.01-0.92-1.04c-1.41-0.05-2.84-0.05-4.24,0
		c-0.58,0.02-0.97,0.37-0.97,1.01c0,1.22-0.02,2.42,0,3.64c0.02,0.69,0.39,1.01,1.13,1.04c0.74,0.02,1.48,0,2.21,0
		c0-0.02,0-0.02,0.05-0.07c0.88,0,1.73,0,2.61,0C152.89,133.35,152.69,132.4,152.73,131.48z"/>
	<path class="st1" d="M180.28,221.19c-0.95-0.02-1.89-0.05-2.84-0.07c-0.55,0-1.08,0-1.64,0c-1.34,0.02-1.68,0.32-1.48,1.68
		c0.12,0.81,0.25,1.54-0.02,2.33c-0.05,0.14,0,0.28,0,0.42c0.02,0.99,0.28,1.27,1.31,1.29c0.74,0.02,1.5,0,2.24,0
		c0.81-0.02,1.61-0.05,2.42-0.07c0.35-0.85,0-1.73,0.16-2.56C180.3,223.19,180.58,222.18,180.28,221.19z"/>
	<path class="st1" d="M211.94,152.99c0.95,0.02,1.87,0.05,2.81,0.07c0.6,0,1.22,0.05,1.82-0.02c0.55-0.05,0.95-0.37,0.95-1.01
		c0-1.34-0.02-2.7,0-4.03c0-0.37-0.02-0.6-0.51-0.65c-0.35-0.02-0.58-0.42-1.04-0.39c-1.01,0.05-2.03,0-3.04,0.02
		c-0.81,0.02-1.11,0.37-1.13,1.24c-0.02,0.67,0,1.34,0,2.17C211.89,151.15,211.64,152.09,211.94,152.99z"/>
	<path class="st1" d="M129.01,97.62c0.97-0.05,1.96,0.28,2.95-0.18c0.25-0.12,0.78-0.07,1.11,0.02c0.32,0.12,0.55,0.3,0.85,0
		c0.25-0.23,0.46-0.44,0.44-0.83c-0.05-1.22,0-2.42-0.02-3.64c0-0.69-0.37-1.01-1.13-1.04c-0.6-0.05-1.41,0.23-1.78-0.07
		c-0.65-0.51-0.99,0.18-1.52,0.09c-0.48-0.09-1.22-0.3-1.52,0.12c-0.25,0.35-0.12,1.01-0.14,1.54c0,0.28,0,0.53,0,0.81
		c0,0.74,0,1.48-0.02,2.24C128.2,97.22,128.57,97.64,129.01,97.62z"/>
	<path class="st1" d="M175.53,100.89c-0.88,0-1.22,0.32-1.22,1.15c-0.02,1.11,0.05,2.19,0.35,3.3c0.35,1.22,0.18,1.27,1.34,1.27
		c0.53,0,1.08,0.05,1.61,0c0.92-0.07,1.87,0.18,2.77-0.16c0-0.85,0-1.73,0-2.61c0,0,0.02,0,0.05-0.02c0-0.76-0.02-1.5,0-2.24
		c0.02-0.48-0.07-0.74-0.65-0.71C178.37,100.91,176.94,100.87,175.53,100.89z"/>
	<path class="st1" d="M185.1,143.68c0.95,0,1.89-0.07,2.84,0.02c1.27,0.14,1.8-0.16,1.84-1.22c0.02-0.6,0-1.22,0-1.82
		c0-0.74,0.07-1.48-0.05-2.21c-0.05-0.39-0.12-1.27-0.97-0.55c-0.05,0.05-0.46-0.23-0.85,0.05c-0.32,0.21-0.92,0.05-1.38,0.05
		c-0.6,0-1.22,0-1.82,0c-0.35,0-0.62-0.02-0.65,0.48c-0.05,1.22,0.14,2.44-0.35,3.69C183.39,142.96,184.18,143.68,185.1,143.68z"/>
	<path class="st1" d="M174.7,113.34c0.09,0.85-0.16,1.73,0.14,2.58c0.88,0,1.73,0,2.61,0c0.92,0.02,1.87,0.02,2.81,0.02
		c0.32-0.97,0.09-1.98,0.14-2.97c0.02-0.76,0-1.5,0-2.24c0-0.35-0.16-0.46-0.48-0.46c-1.54,0.02-3.11-0.02-4.66,0.02
		c-0.71,0.02-1.31,0.81-0.92,1.36C174.75,112.23,174.63,112.76,174.7,113.34z"/>
	<path class="st1" d="M208.13,110.92c-0.05-0.83-0.41-1.06-1.25-0.81c-0.83,0.25-1.61,0.23-2.47-0.02
		c-0.46-0.14-1.11-0.09-1.66,0.18c-0.62,0.32-0.25,0.81-0.3,1.22c-0.07,0.53-0.02,1.08-0.02,1.61c-0.02,3.11-0.28,2.9,2.95,2.88
		c0.88-0.02,1.73-0.05,2.61-0.07c0.3-0.92,0.05-1.87,0.14-2.63C208.13,112.39,208.15,111.66,208.13,110.92z"/>
	<path class="st1" d="M179.52,137.96c-1.2,0.05-2.44,0.09-3.64,0c-1.15-0.09-1.15-0.18-1.15,0.85c0,0.67-0.02,1.36,0,2.03
		c0.05,0.95-0.16,1.87,0.14,2.79c0.85,0,1.73,0,2.61,0c0.92,0,1.87,0,2.81-0.02c0.3-0.97,0.09-1.98,0.14-2.97
		c0.02-0.6-0.07-1.22,0.02-1.82C180.58,137.96,180.17,137.94,179.52,137.96z"/>
	<path class="st1" d="M230.29,143.68c1.68,0.02,3.37,0.02,5.05,0.05c0.48,0,0.51-0.28,0.51-0.65c0-0.76,0-1.5,0-2.24
		c0-0.69-0.05-1.36-0.02-2.01c0.05-0.55-0.05-0.81-0.71-0.85c-1.18-0.07-2.4,0.41-3.5-0.32c-0.35,0.51-1.01,0.16-1.36,0.48
		c-0.18,0.16-0.14,0.62-0.12,0.95C230.19,140.61,229.94,142.16,230.29,143.68z"/>
	<path class="st1" d="M233.4,165.72c-0.35-0.05-0.69,0.02-1.01-0.02c-2.07-0.3-2.26-0.18-2.26,1.78c0,1.08,0.02,2.17,0,3.25
		c0,0.48,0.07,0.76,0.65,0.71c0.74-0.07,1.48-0.02,2.37-0.02c0.78-0.09,1.71,0.16,2.61-0.14c0.02-0.88,0.05-1.73,0.07-2.61
		c0-0.18,0-0.39,0-0.6c0-0.74,0.25-1.71-0.12-2.14C235.22,165.35,234.18,165.79,233.4,165.72z"/>
	<path class="st1" d="M249.49,115.99c1.34-0.02,2.7,0,4.03-0.02c0.69,0,1.01-0.37,1.04-1.13c0.02-1.15,0.02-2.28,0-3.44
		c-0.02-0.81-0.37-1.11-1.24-1.13c-1.34-0.02-2.7,0-4.03,0c-0.14,0-0.28,0-0.39,0c0,0.03,0,0.05,0,0.08
		c-0.01-0.02-0.01-0.04-0.02-0.05c-0.05,0-0.18-0.02-0.18,0c-0.48,1.64-0.14,3.3-0.18,4.96
		C248.48,115.64,248.94,115.99,249.49,115.99z"/>
	<path class="st1" d="M226.16,175.08c-1.01,0.02-2.03,0.02-3.04,0c-0.39-0.02-0.74,0.05-1.15-0.16c-0.62-0.32-1.15,0-1.2,0.62
		c-0.05,0.6-0.02,1.22,0,1.82c0.05,0.99-0.18,2.01,0.14,2.97c0.95,0,1.87,0,2.81,0c0,0,0,0.02,0,0.05c0.81,0,1.61-0.02,2.42,0
		c0.46,0.02,0.76-0.02,0.74-0.62c-0.05-1.36-0.05-2.72,0-4.06C226.9,175.12,226.62,175.08,226.16,175.08z"/>
	<path class="st1" d="M165.48,88.21c0.85,0,1.73,0,2.61,0c0.92,0,1.87,0,2.81,0.02c0.3-0.99,0.12-2.01,0.12-3
		c0-0.85,0.41-2.03-0.18-2.49c-0.55-0.44-1.66-0.16-2.54-0.16c-0.95-0.02-1.87,0.02-2.81,0.05c-0.3,0.99-0.12,2.01-0.12,3
		C165.37,86.48,165.16,87.36,165.48,88.21z"/>
	<path class="st1" d="M110.06,115.92c0.85,0,1.73,0,2.61,0c0,0.02,0,0.05-0.02,0.07c0.14,0,0.28,0,0.42,0
		c0.81-0.02,1.61-0.05,2.42-0.07c0.32-0.85,0.12-1.73,0.12-2.58c0.02-0.99,0.18-2.01-0.12-3c-0.95-0.02-1.87-0.07-2.81-0.07
		c-0.85,0-1.73,0.05-2.61,0.07c-0.28,0.92-0.12,1.87-0.12,2.79C109.94,114.05,109.78,115,110.06,115.92z"/>
	<path class="st1" d="M245.06,110.34c-0.95-0.02-1.87-0.07-2.81-0.07c-0.85,0-1.73,0.05-2.61,0.07c-0.28,0.92-0.12,1.87-0.12,2.79
		c0,0.92-0.16,1.87,0.12,2.79c0.85,0,1.73,0,2.61,0c0,0.02,0,0.05-0.02,0.07c0.14,0,0.28,0,0.42,0c0.81-0.02,1.61-0.05,2.42-0.07
		c0.32-0.85,0.12-1.73,0.12-2.58C245.2,112.35,245.36,111.33,245.06,110.34z"/>
	<path class="st1" d="M239.55,134.18c0.99,0.28,2.01,0.12,3,0.12c0.85,0,1.73,0.21,2.58-0.12c0-0.85,0-1.73,0-2.61
		c0.02-0.95,0.02-1.87,0-2.81c-0.99-0.28-2.01-0.12-3-0.12c-0.85,0-2.03-0.41-2.49,0.18c-0.44,0.55-0.16,1.66-0.16,2.54
		C239.49,132.31,239.53,133.23,239.55,134.18z"/>
	<path class="st1" d="M110.04,106.54c0.85,0,1.73,0,2.61,0c0.95,0,1.89,0,2.81,0c0.28-0.99,0.12-2.01,0.12-3
		c0-0.85,0.42-2.03-0.18-2.49c-0.55-0.44-1.66-0.16-2.54-0.16c-0.95,0-1.87,0.05-2.81,0.07c-0.28,0.99-0.12,2.01-0.12,3
		C109.92,104.81,109.71,105.68,110.04,106.54z"/>
	<path class="st1" d="M217.45,110.43c-0.92-0.28-1.87-0.12-2.79-0.12s-1.87-0.16-2.79,0.12c0,0.85,0,1.73,0,2.61
		c-0.02,0-0.05,0-0.07-0.02c0,0.14,0,0.28,0,0.42c0.02,0.81,0.05,1.61,0.07,2.42c0.85,0.32,1.73,0.12,2.58,0.12
		c0.99,0.02,2.01,0.18,3-0.12c0.02-0.95,0.07-1.87,0.07-2.81C217.51,112.19,217.47,111.31,217.45,110.43z"/>
	<path class="st1" d="M111.16,125.3c1.01-0.28,1.96,0.12,2.93,0.07c1.52-0.09,1.52-0.02,1.52-1.45c0-0.42,0-0.81,0-1.22
		c0-0.18,0-0.39,0-0.6c-0.07-0.81,0.35-1.78-0.18-2.33c-0.32-0.35-1.31,0.02-1.91-0.18c-0.44-0.16-0.71-0.07-1.11,0.02
		c-0.37,0.07-0.76,0.05-1.18-0.07c-0.74-0.23-1.31,0.16-1.31,0.83c-0.02,1.29-0.02,2.56,0,3.85
		C109.94,125.05,110.36,125.53,111.16,125.3z"/>
	<path class="st1" d="M128.78,115.85c0.37,0.28,0.99,0,1.36,0.46c0.99-0.67,2.07-0.23,3.11-0.32c0.48-0.02,0.76-0.07,0.71-0.65
		c-0.07-0.74-0.02-1.5-0.02-2.24c0-0.6,0.02-1.22,0-1.84c-0.02-0.48,0.21-1.13-0.74-1.01c-0.6,0.07-1.36,0.23-1.8-0.05
		c-0.53-0.32-1.06-0.12-1.57-0.28c-1.13-0.35-1.5,0.14-1.64,1.29c-0.16,1.29,0.46,2.44,0.44,3.69
		C128.64,115.23,128.59,115.71,128.78,115.85z"/>
	<path class="st1" d="M159.46,91.92c-1.04,0.12-2.03-0.14-3.02,0.14c-0.02,1.01-0.07,2.01-0.07,3.02c-0.02,0.81-0.3,1.87,0.12,2.35
		c0.51,0.62,1.64,0.21,2.49,0.21c3.41,0.05,3.11,0.39,3.09-3.14c0-0.81,0.28-1.89-0.14-2.35C161.4,91.53,160.29,92.08,159.46,91.92z
		"/>
	<path class="st1" d="M205.27,100.91c-3.11-0.05-2.9-0.28-2.88,2.95c0.02,0.85,0.05,1.73,0.07,2.61c0.92,0.3,1.87,0.14,2.79,0.14
		c0.92,0,1.87,0.14,2.79-0.12c0-0.95,0-1.87,0-2.81c0.02,0,0.02,0,0-0.02c0-0.85,0-1.73,0-2.61
		C207.14,100.73,206.19,100.94,205.27,100.91z"/>
	<path class="st1" d="M195.73,138.01c-2.81-0.07-2.72-0.21-2.67,2.74c0.02,0.95,0.05,1.87,0.07,2.81c0.97,0.28,1.98,0.12,2.97,0.12
		c0.85,0,1.73,0.18,2.58-0.12c0-0.88,0-1.73,0-2.61c0.02-0.95,0.02-1.87,0.02-2.81C197.73,137.82,196.72,138.03,195.73,138.01z"/>
	<path class="st1" d="M193.19,97.57c0.88,0,1.73,0,2.61,0c0,0.02,0,0.05-0.02,0.05c0.83,0,1.64-0.02,2.44,0
		c0.48,0,0.58-0.23,0.53-0.62c-0.02-0.25,0.02-0.53,0-0.81c-0.07-1.38,0.18-2.81-0.12-4.2c-1.48-0.02-2.95-0.05-4.43-0.07
		c-0.07,0-0.14-0.02-0.21,0c-0.55,0.12-0.97,0.39-0.95,1.04c0,0.6-0.02,1.22,0,1.82C193.1,95.73,192.92,96.65,193.19,97.57z"/>
	<path class="st1" d="M168.32,110.3c-0.83,0-1.64,0-2.44,0c-0.28,0-0.53,0.02-0.53,0.41c0.02,1.36-0.02,2.7,0.02,4.06
		c0.02,0.71,0.67,1.25,1.34,1.25c1.2,0,2.42-0.02,3.64,0c0.46,0,0.76-0.05,0.71-0.65c-0.07-0.76-0.02-1.5-0.02-2.4
		c-0.09-0.78,0.16-1.71-0.12-2.61C170.05,110.34,169.19,110.3,168.32,110.3z"/>
	<path class="st1" d="M143.16,91.97c-0.88-0.02-1.73-0.05-2.61-0.05c-0.81,0-1.61,0.02-2.42,0c-0.48,0-0.53,0.23-0.53,0.62
		c0.02,1.34,0,2.7,0.02,4.03c0.02,0.69,0.42,1.01,1.13,1.06c0.62,0.05,1.2-0.21,1.89-0.05c0.81,0.18,1.91,0.28,2.51-0.14
		c0.53-0.37,0.12-1.52,0.16-2.31c0-0.14,0-0.25,0-0.55C143.23,93.83,143.49,92.89,143.16,91.97z"/>
	<path class="st1" d="M213.99,106.61c0.39,0,0.62,0.16,0.85,0.42c0.21-0.25,0.44-0.42,0.83-0.44c0.46-0.05,1.31,0.32,1.34-0.32
		c0.02-0.6,0.53-0.9,0.48-1.45c-0.02-0.35,0-0.67,0-1.01c-0.02-0.92-0.07-1.87-0.09-2.79c-0.92-0.23-1.87-0.09-2.79-0.09
		c-0.92,0.02-1.84-0.14-2.77,0.14c0,0.88,0,1.73,0,2.61c0,0-0.02,0-0.07,0.02c0,0.18,0,0.39,0,0.6c0,0.74-0.23,1.66,0.12,2.14
		C212.28,106.98,213.27,106.58,213.99,106.61z"/>
	<path class="st1" d="M101.9,115.97c1.22,0,2.42-0.02,3.64,0c0.51,0.02,0.76-0.07,0.71-0.65c-0.07-0.74-0.02-1.48-0.02-2.37
		c-0.09-0.76,0.16-1.71-0.14-2.63c-0.88-0.02-1.73-0.05-2.61-0.07c-0.67,0-1.36-0.02-2.03,0c-0.55,0.02-0.9,0.35-0.92,0.85
		c-0.05,1.22-0.05,2.42,0,3.64C100.58,115.46,101.23,115.97,101.9,115.97z"/>
	<path class="st1" d="M230.19,156.5c-0.02,1.34-0.05,2.7-0.07,4.03c0,0.35-0.02,0.67,0,1.01c0.05,0.53,0.35,0.88,0.88,0.9
		c1.29,0.05,2.58,0.05,3.87,0c0.58-0.02,0.97-0.37,0.97-1.01c0-0.88,0-1.78,0-2.65c0-0.28,0-0.53,0-0.78
		c-0.02-1.64-0.02-1.64-1.64-1.66c0,0.01,0,0.02,0.01,0.03c0,0,0,0-0.01-0.01C232.87,156.43,231.53,156.2,230.19,156.5z"/>
	<path class="st1" d="M217.49,188.93c-0.09-1.61,0.16-3.23-0.14-4.82c-1.61-0.02-3.23-0.05-4.84-0.07c-0.07,0-0.14,0-0.21,0
		c-0.48-0.05-0.51,0.23-0.53,0.62c-0.07,1.15,0.14,2.33-0.35,3.5c-0.39,0.95,0.53,1.96,1.59,1.98c0.81,0.02,1.64,0,2.44,0
		c-0.04-0.11-0.12-0.24-0.19-0.36c0.02,0.01,0.03,0,0.05,0.01c0.07,0.07,0.09,0.23,0.14,0.35c0.32,0,0.65,0,1.01,0
		c0.83,0.02,1.08-0.48,1.06-1.22C217.52,188.93,217.5,188.94,217.49,188.93C217.49,188.94,217.49,188.94,217.49,188.93z"/>
	<path class="st1" d="M128.25,87.06c0.05,0.58-0.25,1.13,0.85,1.34c0.88,0.14,1.61-0.37,2.42-0.09c0.01,0,0.03,0.01,0.04,0.01
		c0.71,0.51,1.55,0.51,2.27,0.03c0.04-0.01,0.09-0.02,0.13-0.04c0-0.14,0-0.28,0-0.42c0-0.01-0.01-0.01-0.01-0.02
		c0.4,0.02,0.4-0.26,0.4-0.53c0-1.22,0-2.42,0-3.64c-0.02-1.22-0.83-1.82-1.98-1.36c-0.53,0.21-0.88,0.28-1.41-0.05
		c-0.83-0.51-1.59,0.09-2.31,0.48c-0.6,0.35-0.41,0.95-0.41,1.45C128.25,85.17,128.25,86.11,128.25,87.06z"/>
	<path class="st1" d="M137.61,86.64c0,0.14,0,0.28,0,0.41c0.07,1.2,0.07,1.2,1.06,1.22c0.6,0,1.18,0,1.78,0c0.74,0,1.5,0,2.24,0
		c0.67,0,0.99-0.39,1.01-0.97c0.05-1.29,0.02-2.58,0-3.87c-0.02-0.53-0.37-0.83-0.9-0.88c-0.35-0.02-0.67,0-1.01,0
		c-1.34,0.02-2.7,0.05-4.03,0.07C137.45,83.97,137.68,85.3,137.61,86.64z"/>
	<path class="st1" d="M198.89,148.27c0.6-0.62,0.25-0.69-0.35-1.04c-0.55-0.3-1.01-0.3-1.52-0.25c-0.32,0.02-0.6,0.55-0.9-0.02
		c-0.3,0.48-0.55,0.18-0.9,0.02c-0.71-0.3-1.43,0.14-2.01,0.48c-0.42,0.25-0.12,0.88-0.16,1.34c-0.02,0.32,0,0.67,0,1.01
		c0,0.53,0,1.08,0,1.64c0,0,0,0,0,0c0.11,0.39-0.34,1.01,0.32,1.17c1.57,0.35,3.14,0.51,4.73,0.44c0.65-0.02,1.08-0.37,1.04-0.92
		c-0.05-0.97,0.42-2.01-0.3-2.93C198.68,148.98,198.66,148.52,198.89,148.27z"/>
	<path class="st1" d="M213.04,180.54c0.83-0.23,1.61-0.21,2.47,0.02c0.51,0.14,1.15-0.32,1.78-0.21c0.05,0.02,0.18-0.18,0.18-0.3
		c0.02-1.54,0.05-3.11-0.02-4.66c0-0.23-0.14-0.74-0.9-0.48c-1.08,0.37-2.33,0.3-3.5,0c-0.55-0.16-1.24,0.3-1.24,0.78
		c0,0.67,0,1.36,0,2.03s-0.02,1.34,0,2.03C211.8,180.24,212.49,180.68,213.04,180.54z"/>
	<path class="st1" d="M179.04,128.62c-0.55,0.02-1.08,0-1.64,0c-0.74,0-1.48,0-2.24,0.02c-0.32-0.02-0.46,0.14-0.46,0.46
		c0.02,1.57-0.02,3.11,0.02,4.68c0.02,0.71,0.39,0.69,1.29,0.74c0.71,0.02,1.34-0.35,2.05-0.18c0.55,0.12,0.99-0.12,1.48-0.39
		c0.99-0.6,1.06-0.6,0.65-1.64c-0.12-0.32-0.28-0.74-0.14-0.92c0.32-0.46,0.28-0.76-0.16-1.06c-0.3-0.18-0.09-0.32-0.02-0.58
		C180.17,128.67,180.07,128.55,179.04,128.62z"/>
	<path class="st1" d="M189.76,176.05c0.05-0.07,0.02-0.3-0.05-0.37c-0.3-0.32-0.65-0.62-0.99-0.95c-0.39,0.78-0.88-0.46-1.27,0.05
		c-0.65,0.83-1.41-0.02-2.12,0.09c-0.69,0.09-1.22,0.07-1.24,0.62c-0.02,0.74,0,1.5,0,2.24c0,0.6-0.02,1.22-0.02,1.84
		c0.02,0.95,0.02,0.95,1.2,0.81c0.55-0.07,1.18,0.37,1.57,0.21c0.62-0.25,1.2-0.21,1.75-0.16c0.65,0.05,0.65-0.41,0.92-0.74
		c0.37-0.44,0.39-0.97,0.23-1.31C189.37,177.57,189.04,176.83,189.76,176.05z"/>
	<path class="st1" d="M193.19,189.69c0.81,0,1.59,0,2.4,0c0,0,0,0.02,0,0.07c0.69,0,1.36,0.02,2.03,0c0.81-0.02,1.11-0.35,1.13-1.22
		c0.02-1.15-0.02-2.28,0.02-3.44c0.02-0.6-0.25-0.65-0.71-0.65c-0.95,0.02-1.87-0.02-2.81-0.05c-0.28-0.02-2.03,0.05-2.07,0.14
		c-0.28,0.51-0.07,1.04-0.12,1.57c-0.02,0.35-0.02,0.69,0,1.01C193.15,187.99,192.87,188.86,193.19,189.69z"/>
	<path class="st1" d="M226.76,128.67c-1.54-0.02-3.09-0.05-4.63-0.07c-0.14,0-0.28-0.02-0.41,0c-0.55,0.12-0.97,0.39-0.95,1.04
		c0,0.6,0,1.22,0,1.82c0,0.62,0.02,1.22,0,1.84c-0.05,0.39,0.16,0.74,0.44,0.81c0.78,0.18,1.57,0.69,2.42,0.21
		c0,0.06-0.02,0.12,0,0.18c0.02,0.05,0.14,0.14,0.14,0.14c0.83-0.62,1.78-0.23,2.65-0.32c0.3-0.05,0.51-0.12,0.48-0.46
		C226.81,132.13,227.08,130.4,226.76,128.67z"/>
	<path class="st1" d="M221.78,162.03c0.74,0,1.5,0,2.24,0c0.81,0,1.64,0,2.47-0.02c0,0,0,0,0-0.01c0.36,0,0.37-0.26,0.37-0.52
		c0-1.48-0.02-2.97,0-4.47c0.02-0.48-0.07-0.74-0.65-0.71c-1.15,0.05-2.31,0.09-3.46,0c-1.66-0.12-1.98,0.12-2.01,1.71
		c0,1.04-0.02,2.05,0.02,3.07C220.81,161.64,221.13,162.03,221.78,162.03z"/>
	<path class="st1" d="M122.95,100.91c-0.55,0-1.08,0-1.66,0c0,0.01,0,0.02,0,0.02c-0.41,0-0.79-0.02-1.2,0
		c-0.88,0.02-1.2,0.32-1.22,1.15c-0.02,1.15-0.02,2.31,0,3.46c0.02,0.71,0.39,1.06,1.11,1.08c1.15,0.02,2.31,0,3.46,0
		c0.97,0,1.5-0.48,1.54-1.45c0.05-0.81,0.07-1.64,0-2.44C124.88,101.56,124.21,101,122.95,100.91z"/>
	<path class="st1" d="M180.42,188.54c0-1.29-0.02-2.56,0-3.83c0.02-0.51-0.14-0.69-0.67-0.67c-1.13,0.02-2.28,0-3.41,0
		c-0.55,0-1.08,0-1.61,0c-0.23-0.02-0.39,0.09-0.41,0.3c-0.05,0.25,0,0.53,0.39,0.51c0.01,0,0.02,0,0.02,0c0,0,0,0,0,0
		c0.07,0.71-0.46,1.29-0.44,2.03c0.05,3.07-0.23,2.93,2.88,2.88c0.01-0.01,0.02-0.01,0.02-0.02c0.72,0,1.42,0.02,2.14,0
		C180.37,189.74,180.37,189.72,180.42,188.54C180.42,188.54,180.42,188.54,180.42,188.54z"/>
	<path class="st1" d="M188.86,119.29c-0.35-0.07-0.85,0.16-1.11,0.14c-0.81-0.07-1.54,0.58-2.4,0.12c-0.53-0.28-1.84,0.74-1.59,1.15
		c0.71,1.22,0.12,2.51,0.32,3.73c0.07,0.35,0.83,0.92,1.18,0.76c0.65-0.32,1.18-0.42,1.82,0.07c0.25,0.21,0.76,0.09,1.5-0.16
		c1.11,0.25,1.13,0.09,0.9-1.52c-0.18-1.04-0.35-2.26,0-3.2C189.8,119.45,189.39,119.38,188.86,119.29z M189.39,124.96
		c-0.01-0.01-0.03-0.02-0.04-0.04c0,0,0,0,0,0C189.38,124.92,189.4,124.93,189.39,124.96z"/>
	<path class="st1" d="M231.76,153.06c0.99,0,1.98,0.02,2.97,0.02c1.04,0,1.04-0.02,1.08-1.22c-0.02,0-0.04,0-0.05,0
		c0.02-0.01,0.04-0.01,0.05-0.02c0-1.36-0.14-2.72,0.05-4.06c0.14-1.13-0.9-0.3-1.04-0.81c-0.39,0.74-1.15-0.58-1.54,0.28
		c-0.53-0.21-1.13-0.14-1.68-0.25c-1.04-0.21-1.45,0.21-1.48,1.27c-0.02,1.13-0.02,2.28,0,3.44
		C230.15,152.83,230.33,152.97,231.76,153.06z"/>
	<path class="st1" d="M245.2,138.65c0.05-0.48-0.09-0.71-0.65-0.69c-1.27,0.05-2.54,0.02-3.83,0.02c-1.22,0.05-1.22,0.05-1.22,1.08
		c0,0.71,0,1.41,0,2.12c-0.01,0.01-0.01,0.02-0.02,0.02c0,0.6,0.05,1.22,0,1.82c-0.05,0.6,0.25,0.65,0.71,0.65
		c1.61-0.02,3.23-0.02,4.84-0.05C245.41,142,245.09,140.31,245.2,138.65z"/>
	<path class="st1" d="M220.77,168.97c0.02,0.78,0.07,1.57,0.09,2.37c0.78,0.02,1.57,0.07,2.35,0.09c0-0.02,0-0.03,0-0.05
		c0.87,0,1.74-0.02,2.6,0c0.67,0.02,1.01-0.37,1.04-0.92c0.05-1.52,0-3.07-0.02-4.61c-1.31-0.37-2.65-0.09-3.97-0.16
		c-0.46-0.02-0.95,0.02-1.41,0c-0.51-0.02-0.74,0.07-0.71,0.65C220.81,167.22,220.77,168.09,220.77,168.97z"/>
	<path class="st1" d="M235.84,114.35c0-1.15-0.02-2.28,0.02-3.44c0.02-0.58-0.23-0.65-0.71-0.65c-1.61,0.05-3.23,0.05-4.84,0.05
		c-0.42,1.64-0.07,3.32-0.18,4.98c-0.02,0.48,0.07,0.74,0.65,0.71c1.15-0.05,2.28-0.02,3.44-0.02c0.25,0,0.53-0.05,0.76,0
		c0.69,0.12,0.97-0.16,0.85-0.85c-0.02-0.25,0-0.52,0-0.78C235.83,114.36,235.84,114.36,235.84,114.35z"/>
	<path class="st1" d="M170.85,165.81c-0.3-0.28-1.06,0.02-1.52-0.16c-1.13-0.46-2.31-0.35-3.48-0.37c-0.28,0-0.55,0.02-0.53,0.41
		c0,0.81,0,1.6,0,2.39c-0.01,0-0.02,0.01-0.02,0.01c0,0.48,0,0.95,0,1.43c0,1.84,0,1.84,1.94,1.84c1.2,0,2.42-0.02,3.62-0.05
		c0.32-1.24,0.09-2.51,0.14-3.78C171.01,166.94,171.29,166.2,170.85,165.81z"/>
	<path class="st1" d="M175.39,208.09c0.74,0.02,1.48,0,2.37,0c0.76-0.09,1.71,0.16,2.61-0.16c0.02-0.88,0.05-1.73,0.05-2.61
		c0-0.42,0.02-0.81,0-1.22c-0.05-1.04-0.71-1.61-1.71-1.75c-1.06-0.14-1.61,0.55-2.1,1.22c-0.46,0.62-0.67,1.41-1.71,1.29
		c-0.21-0.02-0.67,0.42-0.62,0.92c0.05,0.42,0,0.83,0.02,1.22C174.36,207.72,174.68,208.07,175.39,208.09z"/>
	<path class="st1" d="M119.7,88.28c0.05,0.12,0.09,0.32,0.14,0.35c1.41,0.02,2.84,0.09,4.24,0.05c0.58-0.02,0.95-0.42,0.92-1.06
		c-0.02-0.9-0.02-1.78,0-2.65c0.09-2.58-0.12-2.44-2.44-2.4c0.01,0.01,0.02,0.03,0.02,0.04c-0.01,0-0.02-0.01-0.02-0.01
		c-0.81,0-1.61-0.02-2.42,0c-0.88,0.02-1.22,0.32-1.24,1.13c-0.02,1.2,0,2.42,0,3.62C118.89,87.86,119.21,88.14,119.7,88.28z"/>
	<path class="st1" d="M184.5,106.61c0.25-0.02,0.53,0,0.81,0c1.18,0,2.37,0,3.57,0c0.28,0,0.53-0.02,0.51-0.42
		c0.12-0.05,0.32-0.09,0.32-0.14c0.02-1.41,0.09-2.81,0.05-4.22c-0.02-0.55-0.39-0.97-1.04-0.92c-1.66,0.09-3.34-0.21-5,0.14
		c0,1.48-0.02,2.95-0.05,4.43c0,0.14,0.02,0.28,0,0.42C183.56,106.58,183.95,106.68,184.5,106.61z"/>
	<path class="st1" d="M150.77,106.61c0.58,0,1.38,0.18,1.73-0.12c0.46-0.42,0.12-1.27,0.18-1.91c0-0.88,0.02-1.73-0.02-2.61
		c0-1.04-0.02-1.04-1.22-1.08c0,0.02-0.01,0.03-0.01,0.05c-1.39,0-2.81,0.02-4.21-0.02c-0.55-0.02-0.69,0.18-0.65,0.69
		c0.02,0.28-0.02,0.53,0,0.81c0.09,1.38-0.23,2.79,0.16,4.17C148.1,106.58,149.44,106.61,150.77,106.61z"/>
	<path class="st1" d="M216.62,119.24c-1.06-0.18-2.07,0.18-3.04,0.48c-0.3,0.09-0.6,0.44-0.58,0.95c0.07,1.18-0.39,2.24-0.78,3.32
		c-0.28,0.74,0.25,1.08,1.29,1.11c0.71,0.02,1.41-0.07,2.1-0.09c1.5-0.05,1.87-0.21,1.89-1.43c0-0.46,0-0.95,0-1.41
		c0-0.69,0.02-1.36,0-2.03C217.47,119.61,217.15,119.33,216.62,119.24z"/>
	<path class="st1" d="M198.1,202.35c-1.34,0.02-2.7,0-4.03,0.02c-0.67,0.02-0.99,0.39-1.01,1.15c-0.02,1.41-0.02,2.84,0,4.24
		c0,0.21,0.14,0.37,0.39,0.32c0.01,0.01,0.02,0.01,0.03,0.01c0,0.35,0.24,0.38,0.5,0.38c1.31,0,2.65,0,3.97,0c0-0.01,0-0.01,0-0.02
		c0.71,0.09,1.17-0.25,1.2-0.95c0.07-1.41,0.07-2.84,0-4.24C199.12,202.72,198.75,202.35,198.1,202.35z M195.63,207.64
		c0.08-0.06,0.15-0.11,0.22-0.16C195.83,207.56,195.75,207.61,195.63,207.64z"/>
	<path class="st1" d="M193.19,171.32c1.34,0.02,2.7,0.05,4.03,0.07c0.07,0,0.14,0,0.21,0c0.65,0.05,1.06-0.14,1.34-0.85
		c0.35-0.95,0.55-3.48,0.16-4.84c0-0.02-0.12,0-0.18,0c-0.05-0.12-0.09-0.32-0.16-0.35c-1.52-0.05-3.07-0.09-4.61-0.07
		c-0.55,0.02-0.97,0.37-0.95,1.01c0,0.35,0,0.67,0,1.01c0.01,0,0.02,0,0.02,0C193.12,168.65,192.89,169.98,193.19,171.32z"/>
	<path class="st1" d="M215.6,165.72c-0.41,0.02-0.55-0.37-0.85-0.41c-0.25-0.05-0.53,0-0.51,0.39c-0.16-0.07-0.32-0.14-0.46-0.25
		c-0.35-0.25-0.35,0.02-0.37,0.25c-0.28,0-0.53,0.02-0.81,0c-0.55-0.05-0.83,0.02-0.85,0.71c-0.05,1.22,0.37,2.49-0.35,3.69
		c-0.21,0.37,1.11,1.84,1.43,1.64c1.22-0.74,2.49-0.14,3.71-0.35c0.55-0.09,0.95-0.37,0.95-1.01c0-0.88,0.02-1.75,0-2.63
		c-0.02-0.65,0.28-1.5-0.16-1.91C217.01,165.53,216.2,165.67,215.6,165.72z"/>
	<path class="st1" d="M203.11,189.76c1.31,0.16,2.63-0.35,3.92,0.28c0.41,0.21,1.52-0.99,1.34-1.45c-0.48-1.25-0.09-2.49-0.23-3.73
		c-0.18-0.58-0.55-0.83-1.15-0.83c-1.29,0.02-2.56,0.02-3.85,0c-0.46,0-0.74,0.05-0.71,0.65c0.07,0.87,0.02,1.75,0.02,2.62
		c-0.01,0.01-0.02,0.02-0.02,0.03c0,0.6,0.05,1.2,0,1.8C202.37,189.69,202.64,189.72,203.11,189.76z"/>
	<path class="st1" d="M180.42,92.75c-0.07-0.3,0.18-0.76-0.32-0.81c-0.62-0.02-1.2-0.23-1.89-0.07c-0.95,0.21-1.98,0.07-3,0.05
		c-0.69,0-0.48,0.46-0.51,0.83c0.01,0,0.02,0.01,0.02,0.01c0,1.14-0.02,2.26,0,3.4c0.02,1.29,0.18,1.48,1.52,1.45
		c0.58,0,1.15,0.05,1.75-0.14c0.53-0.16,1.18,0.09,1.75,0.16c0.51,0.07,0.71-0.09,0.69-0.65C180.4,95.59,180.42,94.16,180.42,92.75z
		"/>
	<path class="st1" d="M120.25,124.94c0.25,0,0.62-0.12,0.78,0.02c0.88,0.74,1.91,0.3,2.86,0.37c0.69,0.07,1.06-0.35,1.08-1.04
		c0.02-1.01,0-2.01,0-3.02c-0.02-1.61-0.02-1.61-1.45-1.61c-0.6,0-1.22-0.07-1.8,0.02c-0.64,0.09-1.01-0.6-1.61-0.44c0,0,0,0,0,0
		c0,0,0,0,0,0c-0.01,0-0.01,0-0.02,0c0,0,0,0,0,0c-0.72-0.02-1.2,0.24-1.2,1.06c0,0.32,0,0.64,0,0.96c-0.01,0-0.01,0.01-0.02,0.01
		c0,0.83,0,1.64-0.02,2.47c0.02-0.01,0.03-0.01,0.05-0.01C118.98,125.03,118.99,125,120.25,124.94z"/>
	<path class="st1" d="M171.01,215.22c-0.02-0.81,0-1.61,0-2.42c0-1.01,0-0.99-0.9-1.04c-0.76-0.05-1.5,0.05-2.28-0.32
		c-0.51-0.23-1.52-0.51-2.1,0.32c-0.37-0.02-0.41,0.23-0.39,0.51c0,1.03,0,2.09,0,3.14c-0.02,0.01-0.03,0.01-0.05,0.02
		c0,0.53,0.02,1.08,0,1.61c-0.02,0.25,0.09,0.42,0.3,0.42c1.68,0.02,3.37,0.05,5.05,0c0.48,0,0.9-0.71,0.6-1.11
		C170.94,215.95,171.01,215.58,171.01,215.22z"/>
	<path class="st1" d="M180.3,119.89c-0.39-0.58-1.38-0.21-2.1-0.18c-0.44,0.02-0.85-0.76-1.29-0.05c-0.44-0.83-0.81,0.12-1.29,0.07
		c-0.85-0.12-0.88,0.05-0.92,1.15c0,1.18,0,2.37,0,3.55c0,0.28,0.02,0.53,0.42,0.51c0,0,0.01,0,0.01,0
		c-0.01,0.01-0.02,0.02-0.04,0.02c-0.02,0.39,0.28,0.35,0.53,0.42c1.08,0.28,2.03-0.42,3.09-0.42c1.68-0.02,1.68-0.05,1.68-1.68
		c0-0.41,0-0.81,0-1.22C180.4,121.32,180.65,120.39,180.3,119.89z"/>
	<path class="st1" d="M146.58,96.35c0.02,0.97,0.3,1.24,1.29,1.27c0.69,0.02,1.52,0.25,1.98-0.05c0.69-0.46,1.13,0.21,1.71,0.09
		c0.69-0.14,1.08-0.37,1.13-1.06c0.02-0.46,0-0.95,0-1.41c0-0.92,0.07-1.87-0.02-2.81c-0.05-0.37-0.05-1.04-0.97-0.58
		c-0.67,0.32-1.61,0.35-2.44-0.16c-0.44-0.28-1.18-0.14-1.75-0.09c-0.67,0.07-1.04,0.48-0.95,1.2c0.01-0.01,0.02-0.01,0.02-0.01
		C146.58,93.93,146.55,95.15,146.58,96.35z"/>
	<path class="st1" d="M129.89,124.57c-0.02,0.3,0.81,0.69,1.25,0.53c0.18-0.07,0.37-0.16,0.55-0.14c2.24,0.21,2.26,0.21,2.26-1.78
		c0-0.28,0-0.53,0-0.81c0-0.76,0.05-1.5,0-2.21c-0.02-0.55-0.65-1.08-1.01-0.81c-0.46,0.35-0.97-0.3-1.31,0.21
		c-0.41-0.62-1.01,0.69-1.45-0.16c-0.14-0.25-0.35,0.23-0.53,0.35c-0.3,0.18-0.12,0.48-0.16,0.74
		C129.15,121.89,129.98,123.18,129.89,124.57z"/>
	<path class="st1" d="M137.61,124.66c0,0.48,0.07,0.74,0.65,0.71c0.88-0.07,1.75-0.02,2.63-0.02c0.6,0,1.2,0.02,1.8-0.02
		c0.83-0.05,1.36-0.74,0.95-1.45c-0.35-0.62-0.23-0.95-0.02-1.57c0.23-0.65,0.6-1.61-0.28-2.26v0c0-0.28-0.14-0.42-0.39-0.42
		c-0.01,0.01-0.02,0.02-0.02,0.03c0,0,0-0.01,0-0.01c-0.76-0.58-1.68-0.58-2.44,0c0,0,0,0,0,0c-0.44-0.39-0.83-0.23-1.29-0.02
		c-0.48,0.21-1.22-0.25-1.5,0.23c-0.23,0.39-0.07,1.04-0.07,1.57C137.61,122.51,137.63,123.57,137.61,124.66z"/>
	<path class="st1" d="M179.94,216.07c0.32-1.22,0.55-2.42,0.48-3.69c-0.02-0.58-0.23-0.69-0.71-0.65c-0.32,0.02-0.67,0-1.01,0
		c-1.29,0.02-2.56,0.05-3.85,0.07c-0.3,1.31-0.07,2.67-0.14,4.01c0,0.14,0,0.28,0,0.41c0,0.41,0,0.82,0,1.2
		c-0.01,0.01-0.02,0.01-0.02,0.02c-0.05,0.25,0.12,0.39,0.32,0.39c1.29,0,2.58,0,3.87,0c0.28,0,0.48-0.07,0.74-0.21
		c0.62-0.32,0.69-0.32,0.16-0.99C179.5,216.28,179.89,216.25,179.94,216.07z"/>
	<path class="st1" d="M193.98,115.97c0.35,0,0.69,0.02,1.01,0c1.38-0.09,2.77,0.23,4.15-0.16c0-1.41,0.05-2.81,0.02-4.22
		c-0.02-1.08-0.25-1.29-1.45-1.31c-0.74,0-1.48,0-2.21,0c-0.12-0.05-0.23-0.09-0.37-0.14c-1.48-0.62-2.07-0.25-2.1,1.24
		c-0.02,1.11,0,2.24,0,3.37c0.01,0,0.02,0.01,0.02,0.01C193.12,115.94,193.13,115.94,193.98,115.97z"/>
	<path class="st1" d="M123.41,128.62c-1.06-0.02-2.14-0.02-3.2,0c-1.06,0.02-1.27,0.28-1.34,1.43c0,0.21,0,0.39,0,0.6
		c0,0.81,0,1.64,0.02,2.47c0.02,0.83,1.13,1.91,1.8,1.59c1.04-0.51,1.91-0.55,2.95,0c0.65,0.32,1.31-0.25,1.36-0.99
		c0.02-0.6,0-1.2,0-1.82c-0.01,0-0.02,0-0.03,0c0.01-0.01,0.02-0.02,0.03-0.03c0-0.21-0.07-0.41,0-0.6
		C125.71,129.48,125.23,128.65,123.41,128.62z M119.23,132.17c-0.01-0.04-0.01-0.09,0-0.14c0.08,0.21,0.17,0.4,0.26,0.56
		C119.37,132.52,119.29,132.41,119.23,132.17z"/>
	<path class="st1" d="M158.06,110.27c-0.35-0.02-0.67-0.02-1.01,0c-0.71,0.05-1.04,0.39-1.06,1.13c-0.02,1.29-0.02,2.56,0,3.85
		c0,0.21,0.14,0.37,0.39,0.32c0.76,0.92,0.76,0.92,1.75,0.51c0.21-0.09,0.48-0.07,0.71-0.12h0l0,0c0,0.07-0.02,0.18,0,0.21
		c1.06,0.58,1.91-0.37,2.88-0.46c0.18,0,0.37-0.3,0.37-0.62c-0.02-1.57-0.02-3.11-0.05-4.66
		C160.73,110.09,159.39,110.34,158.06,110.27z"/>
	<path class="st1" d="M188.77,128.6c-1.34,0.02-2.7,0-4.03,0.02c-0.69,0-1.01,0.37-1.04,1.13c-0.02,1.41-0.02,2.84,0,4.24
		c0,0.21,0.14,0.37,0.39,0.32c0,0.01,0,0.02,0,0.02c0.3,0.02,0.58,0.05,0.88,0.23c0.51,0.28,1.13,0.44,1.57-0.23
		c-0.1-0.01-0.17-0.01-0.25-0.01c0.08,0,0.14,0,0.23-0.01c0.32-0.07,0.55,0.42,0.6,0.37c0.67-0.74,1.52-0.21,2.26-0.37
		c0-0.02,0-0.04,0-0.06c0.01,0.01,0.02,0.03,0.02,0.04c0.05,0,0.18,0.02,0.18,0c0.48-1.64,0.14-3.3,0.18-4.96
		C189.78,128.95,189.32,128.6,188.77,128.6z"/>
	<path class="st1" d="M187.75,110.27c-0.48,0-1.22,0.18-1.38-0.02c-0.37-0.58-0.81,0.02-1.22-0.23c-0.53-0.32-1.8,0.83-1.45,1.25
		c0.65,0.76,0.21,1.54,0.37,2.28c0.01,0,0.01,0,0.02,0c0.06,0.78-0.36,1.83,0.18,2.26c0.51,0.39,1.54,0.14,2.33,0.16
		c0.74,0.02,1.48,0.02,2.21,0c0.6-0.02,0.95-0.37,0.97-0.97c0.02-0.85,0.02-1.73,0-2.61c0-0.67,0.18-1.5-0.14-1.94
		C189.3,109.97,188.4,110.34,187.75,110.27z"/>
	<path class="st1" d="M217.51,129.82c-0.02-0.88-0.32-1.18-1.18-1.2c-1.41-0.02-2.81-0.02-4.22,0c-0.21,0-0.37,0.14-0.32,0.39
		c-0.12,0.05-0.32,0.07-0.35,0.14c-0.46,1.66,0.51,3.23,0.35,4.86c-0.02,0.35,0.37,0.3,0.62,0.3c1.01,0,2.03,0,3.04,0
		c0.01,0.02,0.02,0.03,0.03,0.05c0.65-0.07,1.52,0.28,1.89-0.18c0.32-0.44,0.14-1.27,0.14-1.94
		C217.54,131.44,217.54,130.63,217.51,129.82z"/>
	<path class="st1" d="M171.04,137.98c-0.05-0.12-0.09-0.32-0.14-0.32c-1.41-0.02-2.79-0.02-4.2,0c-0.05,0-0.09,0.2-0.14,0.32
		c-0.01,0-0.02,0-0.02,0c0,0,0,0,0,0c-1.2,0.05-1.2,0.05-1.22,0.92c0,0.67,0,1.36,0,2.03c0.02,0.85,0.05,1.73,0.07,2.61
		c0.92,0.28,1.87,0.07,2.79,0.14c0.48,0,0.95,0,1.41,0c1.27-0.02,1.43-0.18,1.45-1.5C171.04,140.77,171.04,139.39,171.04,137.98z"/>
	<path class="st1" d="M208.04,147.07c-0.95-0.05-1.87-0.07-2.79-0.09c-0.62-0.02-1.22-0.02-1.82,0c-0.62,0.02-0.99,0.37-0.99,0.97
		c-0.05,1.59-0.05,3.2,0,4.82c0.02,0.48,0.51,0.25,0.81,0.3c1.24,0,2.51,0.02,3.78-0.02c1.27,0,1.73-0.78,1.22-2.1
		c-0.15-0.37-0.06-0.75-0.11-1.1c0.01,0,0.01,0,0.02-0.01C208.11,148.91,208.27,147.99,208.04,147.07z"/>
	<path class="st1" d="M157.27,134.71c1.2,0.02,2.42,0.02,3.62,0c1.08-0.02,1.31-0.53,0.76-1.61c0.55-0.6,0.42-1.31,0.42-2.03
		c0-0.67,0-1.31,0-1.96c0-0.28-0.05-0.51-0.42-0.48c0,0.01-0.01,0.01-0.01,0.02c-1.39,0-2.77,0-4.16,0c-1.04,0-1.06,0.03-1.1,1.16
		c-0.01,0.01-0.02,0.01-0.03,0.01c-0.12,1.08,0.16,2.17-0.35,3.27C155.57,134.06,156.17,134.69,157.27,134.71z"/>
	<path class="st1" d="M211.41,157.44c-0.02,1.41-0.02,2.84,0,4.27c0,0.21,0.14,0.37,0.39,0.32c0,0.07-0.02,0.21,0,0.18
		c1.84,0.44,3.71,0.18,5.56,0.12c0.27,0,0.11-0.42,0.14-0.68c0.01,0,0.02-0.01,0.02-0.01c0-0.14,0-0.28,0-0.41
		c-0.2-0.02-0.3-0.08-0.37-0.16c0.13,0.06,0.25,0.12,0.39,0.16c0-1.29,0-2.58,0-3.87c0-0.67-0.39-0.99-0.97-1.01
		c-1.36-0.05-2.72-0.02-4.08,0C211.77,156.36,211.43,156.7,211.41,157.44z"/>
	<path class="st1" d="M138.02,78.9c-0.02,0.39,0.23,0.42,0.53,0.42c0.6-0.02,1.36,0.18,1.75-0.12c0.67-0.48,0.99,0.25,1.54,0.18
		c1.5-0.16,2.21-0.97,1.68-2.49c-0.12-0.35-0.16-0.51-0.02-0.85c0.39-1.08,0.3-1.61-0.18-2.44c0,0.03,0,0.05,0,0.08
		c-0.01-0.03-0.02-0.05-0.02-0.08c-0.05-0.12-0.09-0.32-0.14-0.32c-1.08,0.02-2.21-0.42-3.25,0.28c-0.3-0.37-0.67-0.02-0.99-0.07
		c-0.92-0.16-1.29-0.05-1.29,0.67c-0.02,1.54,0.02,3.07,0.07,4.61C137.7,78.8,137.91,78.85,138.02,78.9z M143.17,75.15
		c0,0-0.01,0.01-0.01,0.01C143.17,75.15,143.17,75.15,143.17,75.15z"/>
	<path class="st1" d="M208.13,166.62c-0.02-0.9-0.02-0.92-1.04-0.92c-0.6,0-1.22,0-1.82,0c-0.62,0-1.22,0-1.84,0
		c-0.99,0.02-1.01,0.02-1.01,0.92c0,1.27,0,2.56,0,3.85c0,0.88,0.02,0.88,1.22,0.92c0-0.01,0-0.02,0-0.03
		c0.01,0.01,0.02,0.02,0.02,0.03c1.01,0,2.03,0.02,3.04,0c1.18,0,1.41-0.23,1.43-1.34C208.15,168.92,208.13,167.77,208.13,166.62z"
		/>
	<path class="st1" d="M137.68,106.47c0.92,0.28,1.87,0.07,2.79,0.14c0.42-0.07,0.78,0.05,1.01,0.42c0.25-0.42,0.62-0.37,1.04-0.42
		c0.95-0.09,1.18-0.32,1.2-1.15c0.02-1.13,0.02-2.28,0-3.41c-0.02-0.81-0.32-1.06-1.22-1.13c-0.28-0.02-0.53,0-0.81,0
		c-0.35,0-0.67-0.02-1.01,0c-0.99,0.07-2.01-0.14-3,0.14c-0.02,0.95-0.07,1.87-0.07,2.81C137.61,104.72,137.65,105.59,137.68,106.47
		z"/>
	<path class="st1" d="M189.39,94.71c-0.05-0.88-0.05-1.75-0.07-2.63c-0.92-0.28-1.87-0.07-2.79-0.14c-0.41,0-0.83,0.02-1.2-0.02
		c-0.76-0.09-0.85,0.07-1.27,0.55c-0.41,0.48-0.55,1.06-0.35,1.45c0.6,1.08,0.28,2.21,0.37,3.3c0.02,0,0.03,0,0.05,0
		c-0.01,0.01-0.02,0.01-0.03,0.02c0.05,0.12,0.09,0.32,0.14,0.32c1.54,0.05,3.11,0.09,4.66,0.07c0.69-0.02,1.22-0.83,0.81-1.43
		C189.34,95.68,189.41,95.22,189.39,94.71z"/>
	<path class="st1" d="M208.5,138.17c-1.57-0.37-3.16-0.07-4.75-0.16c-0.35-0.02-0.69-0.02-1.01,0c-0.21,0-0.37,0.14-0.32,0.39
		c0,1.54,0.02,3.09-0.02,4.68c-0.02,0.53,0.14,0.67,0.67,0.67c1.68-0.02,3.37,0,5.05,0c0-0.03,0-0.05,0-0.08
		c0.01,0.01,0.01,0.02,0.02,0.03c0.12-0.05,0.32-0.09,0.32-0.14C208.48,141.76,208.5,139.97,208.5,138.17z M207.19,141.18
		c0.21-0.22,0.37-0.48,0.51-0.74C207.79,140.81,207.48,141.06,207.19,141.18z"/>
	<path class="st1" d="M184.2,171.32c1.34,0.05,2.67,0.07,4.01,0.09c0.18,0,0.39,0.02,0.6,0c0.69-0.12,1.06-0.51,0.97-1.22
		c0-1.22,0.02-2.44-0.02-3.64c-0.02-0.88-0.32-1.22-1.13-1.24c-1.41-0.02-2.84-0.02-4.24,0c-0.21,0-0.37,0.14-0.32,0.39
		c0.01,0,0.02,0,0.02,0c0,0.53-0.02,1.08,0,1.61C184.13,168.65,183.95,169.98,184.2,171.32z"/>
	<path class="st1" d="M226.87,101.42c0-0.28-0.02-0.53-0.42-0.51c-1.63,0-3.23,0-4.85,0c0-0.01-0.01-0.02-0.01-0.02
		c-0.37,0.05-0.83-0.16-0.83,0.53c0.02,1.61,0,3.25,0.02,4.86c0,0.2,0.13,0.35,0.37,0.32c0,0,0,0,0,0.01c0.69,0,1.36,0,2.01,0
		c-0.05-0.03-0.07-0.06-0.06-0.1c0.04,0.04,0.07,0.05,0.11,0.1c0,0.07-0.02,0.16,0,0.21c0.02,0.07,0.12,0.14,0.14,0.14
		c0.35-0.12,0.58-0.37,1.01-0.35c0.78,0.05,1.84,0.28,2.31-0.12c0.62-0.53,0.16-1.61,0.21-2.47
		C226.92,103.15,226.87,102.3,226.87,101.42z"/>
	<path class="st1" d="M189.8,212.17c0.02-0.41-0.25-0.41-0.53-0.41c-0.95,0-1.89,0-2.84,0c-0.74,0.02-1.73-0.23-2.14,0.14
		c-0.58,0.48-0.14,1.52-0.21,2.31c0.01,0.02,0.03,0.04,0.04,0.05c-0.02-0.01-0.04-0.02-0.07-0.03c0,1.06,0.02,2.12,0,3.18
		c0,0.67,0.48,0.44,0.83,0.48c0-0.01,0-0.02,0-0.02c1.27,0,2.54,0.02,3.8,0c0.71-0.02,1.06-0.37,1.08-1.06c0.02-0.86,0-1.69,0-2.55
		c0.01-0.01,0.01-0.02,0.02-0.03c0-0.14,0-0.28,0-0.41c-0.01-0.01-0.01-0.02-0.02-0.03c0-0.52,0-1.06,0-1.58
		C189.79,212.19,189.79,212.18,189.8,212.17z M189.28,216.58c0.03-0.06,0.06-0.15,0.08-0.23c0,0,0,0,0,0
		C189.37,216.44,189.33,216.52,189.28,216.58z"/>
	<path class="st1" d="M225.7,146.98c-1.41-0.02-2.81-0.02-4.22,0c-0.21,0-0.37,0.14-0.32,0.39c-0.07,0-0.18-0.02-0.21,0.07
		c-0.44,1.5-0.14,3.04-0.18,4.56c-0.02,0.41,1.01,1.01,1.45,1.15c0.6,0.16,1.04-0.46,1.73-0.09c0.58,0.3,1.45,0.07,2.19,0.05
		c0.21,0,0.37-0.14,0.32-0.39c0,0-0.01,0-0.01,0c0.01-0.01,0.02-0.02,0.03-0.02c0.25,0.05,0.39-0.12,0.39-0.32
		c0.02-1.41,0.02-2.81,0-4.22C226.85,147.3,226.55,147,225.7,146.98z M225.86,152.69c-0.22-0.09-0.08-0.22-0.03-0.39
		c0.14,0.14,0.28,0.28,0.41,0.43C226.11,152.73,225.98,152.74,225.86,152.69z"/>
	<path class="st1" d="M161.12,146.98c-1.15-0.05-2.31-0.07-3.46,0c-0.55,0.05-1.48,0.23-1.54,0.53c-0.18,0.71-0.62,1.64,0.25,2.31
		c0,0.95,0,1.88,0,2.81c-0.01,0.01-0.01,0.02-0.02,0.02c0.07,0.67,0.65,0.46,0.92,0.39c1.82-0.44,1.82-0.46,3.3-0.05
		c0.81,0.23,1.43-0.16,1.48-0.99c0.02-0.72,0-1.44,0-2.16c0.01-0.01,0.03-0.02,0.05-0.03c0-0.6,0-1.22,0-1.82
		C162.09,147.32,161.7,147,161.12,146.98z"/>
	<path class="st1" d="M119.05,115.76c0.48,0.57,1.51,0.14,2.3,0.21c1,0,1.98-0.02,2.98,0.02c0.55,0.02,0.67-0.18,0.67-0.69
		c-0.02-1.48,0-2.95,0-4.43c0-0.65-0.39-0.97-0.95-0.99c-1.01-0.02-2.01,0.02-3,0.07c-0.05,0-0.09,0.21-0.14,0.32
		c-0.67,0.07-1.5-0.28-1.89,0.16c-0.3,0.35-0.09,1.15-0.12,1.75c0,0.48,0,0.95,0,1.43C118.93,114.35,118.68,115.34,119.05,115.76z"
		/>
	<path class="st1" d="M188.7,202.37c-0.88-0.02-1.75-0.05-2.63,0c-1.41,0.07-1.98,0.67-1.98,2.05c0,0.95,0,1.89,0,2.84
		c0.11,0.01,0.17-0.03,0.25-0.05c-0.06,0.03-0.14,0.06-0.25,0.05c0,0.28,0,0.55,0,0.83l0,0c-0.05,0.25,0.09,0.39,0.3,0.39
		c0.88,0.02,1.75,0.02,2.63,0c0.21,0,0.37-0.14,0.32-0.39l0,0c0-0.3,0.14-0.41,0.41-0.41c0,0.01,0,0.01,0.01,0.02
		c0.53-0.23,0.78,0.37,1.25,0.39c0.39,0,0.83,0.12,0.81-0.55c-0.05-1.36,0-2.7-0.02-4.06C189.76,202.74,189.41,202.4,188.7,202.37z"
		/>
	<path class="st1" d="M193.1,134.18c1.59,0.32,3.2,0.09,4.8,0.14c0.88,0.02,1.22-0.3,1.24-1.11c0.02-1.01,0.02-2.03,0-3.04
		c0-0.21-0.14-0.37-0.39-0.32c0.02-0.78-0.25-1.24-1.13-1.2c-1.38,0.02-2.78,0-4.16,0c-0.01-0.01-0.01-0.02-0.01-0.02
		c-0.67,0.07-0.39,0.6-0.39,0.92C193.05,131.09,193.08,132.64,193.1,134.18z"/>
	<path class="st1" d="M189.78,185.13c-0.02-0.69-0.37-1.04-1.11-1.06c-1.41-0.02-2.84-0.02-4.27,0c-0.21,0-0.37,0.14-0.32,0.39
		c0,0.92-0.02,1.87,0,2.81c0.02,0.78-0.23,1.8,0.16,2.31c0.44,0.55,1.5,0.12,2.28,0.18c0-0.01,0-0.02,0-0.03c0,0,0,0,0,0
		c0.55,0,1.08,0,1.64,0c1.15,0,1.57-0.37,1.61-1.57C189.83,187.16,189.8,186.14,189.78,185.13z"/>
	<path class="st1" d="M184.06,152.27c-0.03,0.16-0.03,0.32,0.16,0.37c-0.11,0.32,0,0.41,0.17,0.39c1.54,0.02,3.11,0.02,4.66,0
		c0.2,0,0.35-0.14,0.32-0.38c0.01,0,0.02,0.01,0.03,0.01c0.37,0.02,0.42-0.21,0.42-0.48c0-0.51,0-1.04,0-1.54
		c-0.2,0.04-0.3-0.07-0.36-0.22c0.12,0.06,0.21,0.14,0.36,0.17c0-0.88,0.02-1.75,0-2.61c-0.02-0.69-0.39-1.04-1.08-1.06
		c-1.2-0.02-2.4,0.05-3.6-0.02c-0.48-0.02-0.62,0.46-1.04,0.44c0,0,0,0.01,0,0.01c-0.01,0-0.02,0-0.02-0.01
		c-0.67,0.07-0.48,0.69-0.37,0.9c0.46,0.85,0.53,1.59,0.07,2.54C183.54,151.23,183.35,151.96,184.06,152.27z M187.75,148.59
		c-0.01,0-0.01,0.01-0.02,0.01c0-0.03,0.01-0.05,0.01-0.08C187.74,148.54,187.75,148.56,187.75,148.59z"/>
	<path class="st1" d="M101.09,125.28c0.62-0.62,1.2,0.32,1.87,0.07c0.3-0.12,0.69-0.67,1.06-0.05c0.37-0.74,0.71,0.07,1.08,0.07
		c1.06,0.05,1.08,0.07,1.13-1.25c0-1.27-0.02-2.56,0.05-3.83c0-0.55-0.23-0.67-0.71-0.65c-0.55,0.05-1.11-0.09-1.61,0.05
		c-0.42,0.12-0.6-0.76-1.15-0.14c-0.25,0.28-1.01,0.14-1.54,0.09c-0.71-0.07-0.74,0.32-0.71,0.85c0.02,0.65,0,1.31,0,1.96
		c0,0.02,0,0.05,0,0.07c0,0.67,0,1.31,0,1.96C100.51,124.91,100.91,125,101.09,125.28z"/>
	<path class="st1" d="M138.44,134.32c0.67-0.02,1.36,0,2.03,0c0.92-0.07,1.87,0.14,2.81-0.14c0.02-0.85,0.05-1.73,0.07-2.61
		c0-0.07,0-0.14,0-0.21c-0.02-0.85-0.05-1.73-0.07-2.61c-0.92-0.28-1.87-0.07-2.79-0.14c0,0,0,0.01,0,0.01
		c-0.02-0.01-0.03-0.02-0.05-0.03c-0.53,0-1.08-0.02-1.61,0c-0.88,0.05-1.2,0.32-1.22,1.15c-0.02,1.29,0.05,2.56-0.02,3.85
		C137.56,134.32,137.91,134.34,138.44,134.32z"/>
	<path class="st1" d="M156.35,125.17c1.43,0.42,2.9,0.28,4.33,0.12c1.06-0.14,1.38-0.78,1.38-1.98c0-1.01-0.02-2.01,0-3.02
		c0-0.39-0.09-0.53-0.51-0.65c-0.39-0.14-0.74-0.41-1.24-0.39c-1.15,0.05-2.28,0.02-3.44,0.02c-0.28,0-0.53,0.02-0.51,0.42
		c-0.39,0.42-0.09,0.83-0.05,1.27c0.12,1.31,0.05,2.67,0.05,4.01C156.37,125,156.35,125.14,156.35,125.17z M159.91,119.77
		c-0.02-0.02-0.04-0.04-0.05-0.06C159.89,119.73,159.9,119.75,159.91,119.77z"/>
	<path class="st1" d="M137.61,115.67c0,0.21,0.14,0.37,0.39,0.32c0.01-0.01,0.02-0.02,0.03-0.02c1.4,0,2.81,0.02,4.21,0
		c0.37-0.02,0.97,0.23,1.04-0.25c0.05-0.48,0.88-0.85,0.16-1.54c-0.28-0.3-0.18-1.15-0.05-1.71c0.48-2.14,0.51-2.14-1.71-2.19
		c-0.97-0.14-1.96,0.3-2.93-0.23c-0.32-0.18-1.15,0.44-1.15,0.78C137.59,112.44,137.59,114.05,137.61,115.67z"/>
	<path class="st1" d="M147.13,124.91c0.6-0.37,1.08,0.71,1.75,0.07c0.18-0.16,0.85-0.16,1.31,0.14c0.65,0.44,1.38,0.39,2.03,0.02
		c0.74-0.41,0.37-1.16,0.44-1.78c0.02-0.02,0.03-0.03,0.05-0.05c0-0.6,0.02-1.22,0-1.82c-0.02-0.6,0.28-1.34-0.16-1.73
		c-0.32-0.28-1.08,0.02-1.54-0.16c-1.13-0.44-2.31-0.35-3.48-0.37c-0.28,0-0.55,0.02-0.53,0.42c-0.07,0-0.18-0.02-0.25-0.02
		c-0.46,1.5-0.14,3.04-0.18,4.56C146.55,124.45,147.08,124.94,147.13,124.91z"/>
	<path class="st1" d="M193.81,193.43c-0.41-0.02-0.78,0.39-0.76,0.97c0.02,0.6-0.02,1.2,0,1.8c0.02,0.95,0.07,1.87,0.09,2.79
		c0.9,0.22,1.79,0.08,2.69,0.11c0.02,0.01,0.03,0.02,0.05,0.02c0.74,0,1.48-0.05,2.21,0c0.55,0.05,0.65-0.21,0.65-0.69
		c-0.02-1.52,0-3.07,0-4.61c-0.11,0.04-0.22,0.08-0.34,0.13c0.06-0.06,0.17-0.11,0.34-0.13c0-0.07,0.02-0.18,0-0.21
		C197.13,193.13,195.45,193.48,193.81,193.43z"/>
	<path class="st1" d="M235.17,128.6c-0.74,0-1.48,0-2.21,0c0.01,0.02,0.02,0.03,0.02,0.05c0,0,0,0,0,0c-0.18,0-0.39-0.02-0.6,0
		c-0.71,0.07-1.71-0.35-2.1,0.18c-0.37,0.48-0.14,1.41-0.14,2.14c0,1.2,0.02,2.42,0.05,3.62c1.25,0.32,2.51,0.07,3.78,0.14
		c0.67,0.02,1.31,0.05,1.87-0.42c0.12-0.05,0.32-0.09,0.28-0.14c0.05-1.54,0.09-3.09,0.07-4.63
		C236.19,128.99,235.82,128.6,235.17,128.6z M234.94,129.24c0-0.01,0-0.02,0-0.04c0-0.01,0-0.01-0.01-0.01
		c0.02,0.02,0.04,0.02,0.05,0.04C234.97,129.23,234.96,129.23,234.94,129.24z"/>
	<path class="st1" d="M245.02,119.79c-0.44-0.12-0.69-0.6-1.2-0.53c-0.23,0.05-0.3,0.6-0.76,0.21c-0.12-0.12-0.76-0.09-1.08,0
		c-0.53,0.16-0.85-0.32-1.36-0.23c-0.69,0.12-1.08,0.37-1.11,1.06c-0.02,0.87,0,1.73,0,2.6c-0.01,0-0.02,0.01-0.02,0.01
		c0,0.42-0.02,0.83,0,1.22c0.05,0.88,0.35,1.2,1.15,1.22c1.15,0.02,2.28,0.02,3.44,0c0.81-0.02,1.11-0.37,1.13-1.24
		c0.02-1.08,0-2.14,0-3.23c-0.03-0.03-0.06-0.04-0.09-0.06c0.04,0,0.07,0.02,0.09,0.06C245.13,120.49,245.41,119.86,245.02,119.79z"
		/>
	<path class="st1" d="M150.4,88.26c0.53,0.05,1.08,0,1.61,0.02c0.48,0.05,0.71-0.09,0.69-0.65c-0.05-1.14-0.02-2.26-0.02-3.4
		c0.01-0.01,0.02-0.02,0.02-0.04c-0.44-0.44-0.21-1.34-0.6-1.52c-0.53-0.28-1.29-0.12-1.96-0.12c-0.88,0-1.75,0-2.63,0
		c-0.28,0-0.55,0.02-0.53,0.41c-0.07,0-0.18-0.02-0.18-0.02c-0.44,1.71-0.14,3.44-0.16,5.14C147.87,88.44,149.16,88.19,150.4,88.26z
		"/>
	<path class="st1" d="M189.8,73.73c0.02-0.71-0.46-0.51-0.83-0.53c-0.14,0-0.28,0-0.39,0c0.01,0.04,0,0.07,0,0.1
		c-0.01-0.03-0.01-0.07-0.02-0.1c-0.67,0-1.36,0-2.03,0c-0.01,0.01-0.02,0.02-0.03,0.03c0-0.01,0.01-0.02,0.01-0.03
		c-0.39,0-0.78-0.02-1.18,0c-0.95,0.05-1.2,0.3-1.27,1.25c-0.02,0.25,0,0.53,0,0.78c0.02,0,0.05,0,0.07,0
		c-0.02,0.01-0.03,0.01-0.05,0.02c0,1.06,0,2.14,0,3.2c0,0.32,0.14,0.46,0.46,0.46c1.06,0,2.14,0,3.2,0
		c-0.02-0.05-0.05-0.1-0.08-0.15c0.03,0.05,0.07,0.1,0.1,0.15c0.65-0.07,1.5,0.3,1.91-0.18c0.3-0.35,0.12-1.15,0.12-1.75
		C189.8,75.9,189.78,74.81,189.8,73.73z"/>
	<path class="st1" d="M167.05,153.06c1.27,0.05,2.56-0.02,3.83-0.05c0.3-1.24,0.07-2.51,0.14-3.78c0.02-0.35,0.02-0.67,0-1.01
		c-0.02-0.88-0.32-1.22-1.13-1.24c-1.41-0.02-2.84-0.02-4.24,0c-0.2,0-0.35,0.13-0.32,0.37c0,0,0,0-0.01,0c0,1.61,0,3.2,0,4.8
		c0,0.28,0.02,0.53,0.41,0.51c-0.01,0.01-0.01,0.01-0.02,0.02C165.97,153.48,166.61,153.04,167.05,153.06z"/>
	<path class="st1" d="M175.51,88.28c1.13,0.02,2.28,0,3.41,0c1.48-0.02,1.48-0.02,1.5-1.64c0.12-0.05,0.32-0.09,0.32-0.14
		c0.02-1.13,0.02-2.26,0-3.39c0-0.05-0.21-0.09-0.32-0.14c0.02-0.41-0.25-0.41-0.53-0.41c-1.15,0-2.31,0-3.46,0
		c-1.73,0-1.73,0-1.73,1.64c0,0.67,0,1.36,0,2.03c-0.76,0.51-0.44,1.29-0.3,1.91C174.5,88.51,175.14,88.28,175.51,88.28z"/>
	<path class="st1" d="M171.06,121.66c0-0.51,0-1.04,0-1.54c0-0.28-0.05-0.51-0.42-0.48c-0.01,0-0.01,0-0.02,0
		c0-0.07,0.02-0.16,0-0.16c-1.5-0.46-3.02-0.16-4.54-0.18c-0.42,0-0.78,0.44-0.76,0.99c0.02,1.15,0.05,2.28,0,3.44
		c-0.02,0.69,0.28,1.01,0.92,1.27c1.59,0.62,3.18,0.42,4.8,0.16c0,0,0-0.12,0-0.18c-0.01-0.01-0.01-0.01-0.02-0.02
		c0,0,0.01,0,0.01,0c0.01,0.01,0.01,0.02,0.01,0.02c0.25,0.05,0.39-0.12,0.39-0.32c0.02-0.88,0.02-1.75,0-2.63
		c0-0.21-0.14-0.36-0.39-0.32C171.05,121.68,171.05,121.67,171.06,121.66z"/>
	<path class="st1" d="M217.1,143.7c0.25,0.05,0.39-0.12,0.39-0.32c0.02-1.71,0.02-3.39,0-5.07c0-0.21-0.14-0.37-0.39-0.32
		c-0.42,0-0.83,0-1.24,0c-1.08,0-2.17,0-3.25,0c-0.37,0.02-0.83-0.16-0.81,0.55c0.02,1.27,0,2.56,0,3.85
		c0.02,1.31,0.02,1.31,1.25,1.31C214.4,143.7,215.74,143.7,217.1,143.7z"/>
	<path class="st1" d="M202.41,96.07c0.02,1.48,0.02,1.48,1.64,1.18c0-0.01,0-0.02,0-0.03c0,0,0,0,0,0.01c0.32,0,0.65-0.05,0.9,0.28
		c0.23,0.28,0.6-0.58,0.85,0.05c0.65-0.51,1.66,0.02,2.12-0.41c0.55-0.55,0.16-1.52,0.18-2.31c0.02-0.92-0.05-1.84-0.07-2.77
		c-0.92-0.23-1.84-0.07-2.77-0.12c-0.12-0.92-0.51,0.18-0.71-0.12c-0.58-0.85-0.99,0.18-1.52,0.14c-1.18-0.12-0.55,0.85-0.6,1.29
		C202.34,94.18,202.41,95.13,202.41,96.07z"/>
	<path class="st1" d="M171.04,129.22c-0.09-0.53-0.23-0.62-0.71-0.62c-1.13,0.02-2.26,0-3.39,0c-0.01,0.01-0.01,0.02-0.01,0.02
		c-1.57,0.02-1.58,0.04-1.58,1.66c0,0.41,0,0.79,0,1.18c-0.01,0-0.01,0-0.02,0c0,0.6,0,1.2-0.02,1.75c0,1.03,0.02,1.04,1.21,1.08
		c0.01,0.02,0.01,0.03,0.01,0.05c0.48,0.18,0.9,0.62,1.45,0.37c0.53-0.25,1.04-0.16,1.59-0.02c1.25,0.3,1.45,0.09,1.45-1.27
		c0-0.55,0.02-1.08,0-1.64c0-0.21-0.14-0.37-0.39-0.32C170.55,130.7,171.22,130.08,171.04,129.22z"/>
	<path class="st1" d="M225.33,115.97c1.38-0.02,1.48-0.12,1.52-1.64c0-0.11,0-0.25,0-0.39c0.01,0,0.02,0,0.02-0.01
		c0-1.06,0-2.14,0-3.2c0-0.32-0.14-0.46-0.46-0.46c-0.95,0-1.87,0-2.81,0c-0.65,0-1.29,0-1.98,0c-0.27,0-0.5,0.05-0.48,0.4
		c-0.22-0.01-0.35,0.12-0.35,0.31c-0.02,1.54-0.02,3.11,0,4.66c0,0.2,0.13,0.35,0.37,0.32c0,0.01,0,0.02,0,0.03
		C222.56,115.99,223.97,115.99,225.33,115.97z"/>
	<path class="st1" d="M165.46,97.52c0.92,0.02,1.87,0.05,2.79,0.07c0.6,0,1.22,0,1.82,0c0.55,0,0.83-0.32,0.97-0.81
		c-0.01,0-0.02-0.01-0.02-0.01c0-1.4-0.02-2.81,0.02-4.21c0.02-0.58-0.21-0.62-0.69-0.67c-1.29-0.14-2.65,0.42-3.92-0.28
		c-0.23-0.12-1.11,0.67-1.11,0.95c0,0.74,0,1.48,0,2.21C165.39,95.73,165.2,96.65,165.46,97.52z"/>
	<path class="st1" d="M193.45,124.98c0.05,0.12,0.09,0.32,0.14,0.32c1.54,0.02,3.09,0.09,4.63,0.05c0.55,0,0.95-0.37,0.95-1.01
		c0-1.29,0-2.56,0-3.85c-0.21-0.83-0.35-0.6-0.97-0.92c-0.51-0.25-1.01,0.28-1.34-0.28c-0.35,0.9-0.95-0.14-1.41,0.18
		c-0.41,0.28-0.69-0.32-1.18-0.25c-0.83,0.12-1.2,0.35-1.22,1.18c-0.02,1.41-0.02,2.84,0,4.24c0,0.21,0.14,0.37,0.39,0.32
		c0.01-0.01,0.02-0.02,0.03-0.02c0.02,0,0.05,0,0.07,0C193.51,124.95,193.48,124.96,193.45,124.98z"/>
	<path class="st1" d="M221.36,125.3c0.23,0.18,0.48,0.02,0.69-0.18c0.37-0.39,0.41,0.44,0.76,0.23c0,0,0,0,0,0
		c0.42,0.06,0.72-0.1,1.04-0.39c0.35-0.32,0.58,0.55,0.95,0.21c0.46-0.42,0.58,0.3,0.97,0.23c0.6-0.09,1.08-0.28,1.11-0.9
		c0.05-1.5,0-2.97,0.02-4.45c0-0.25-0.12-0.37-0.32-0.39c-0.69-0.05-1.41,0.12-2.03-0.32c0,0-0.09,0.09-0.14,0.14
		c-0.3,0.23-0.67-0.39-1.06,0.14c-0.16,0.23-0.9,0.05-1.36,0.05c0-0.07,0-0.14,0-0.23c-0.02-0.05-0.09-0.09-0.14-0.14
		c-0.23,0.44-1.08,0.07-1.08,0.81c0,1.5,0,2.97,0,4.45C220.77,124.96,221.13,125.12,221.36,125.3z"/>
	<path class="st1" d="M158.8,137.98c-0.6,0-1.22,0-1.82,0c-0.65-0.02-0.99,0.39-1.01,0.95c-0.05,1.29-0.07,2.58,0,3.85
		c0.02,0.55,0.39,0.97,1.04,0.92c1.66-0.12,3.34,0.18,5-0.16c0.02-1.48,0.05-2.95,0.05-4.43c0-0.35-0.02-0.67-0.07-0.99
		c0-0.07-0.21-0.09-0.32-0.14C160.71,137.98,159.76,137.98,158.8,137.98z"/>
	<path class="st1" d="M180.33,147.02c-1.08-0.02-2.14-0.05-3.23-0.07c-0.67,0-1.36-0.02-2.03,0.02c-0.51,0.04-0.27,0.48-0.32,0.78
		c-0.01,0.01-0.02,0.02-0.02,0.03c0,1.08,0,2.17,0,3.25c0,0,0,0,0,0c-0.01,0-0.01-0.01-0.02,0c0,0.21,0.02,0.41,0,0.62
		c-0.09,0.69,0.02,1.22,0.92,1.01c0.51-0.12,0.92,0.6,1.52,0.02c0.37-0.37,0.78,0.3,1.22,0.37c0,0,0,0,0-0.01
		c0.01,0.01,0.02,0.02,0.02,0.03c0.51,0,1.04,0,1.54,0c0.28,0,0.51-0.05,0.48-0.41c0-0.69,0-1.36,0-2.03h0l0,0c0-0.14,0-0.28,0-0.41
		C180.33,149.14,180.58,148.08,180.33,147.02z M179.45,148.29c0.01,0.01,0.03,0.01,0.04,0.03c0.02,0.02,0.02,0.05,0.03,0.07
		C179.51,148.35,179.48,148.31,179.45,148.29z"/>
	<path class="st1" d="M184.06,194.95c0,1.2,0,2.42,0,3.64c0,0.28,0.02,0.55,0.41,0.53c0.01-0.01,0.01-0.02,0.02-0.02
		c1.55,0,3.08-0.02,4.61,0.02c0.58,0.02,0.67-0.18,0.67-0.69c-0.02-1.48-0.02-2.97,0-4.45c0.02-0.41-0.14-0.53-0.55-0.6
		c-0.44-0.07-2.97-0.32-3.53-0.16c-0.02,0,0,0.12,0,0.18C184.09,193.43,184.09,193.43,184.06,194.95z"/>
	<path class="st1" d="M225.56,137.89c-0.53,0.16-1.04,0.02-1.54,0.09c-0.05-0.12-0.09-0.23-0.14-0.35c-0.85,0.58-1.8,0.28-2.72,0.35
		c0.04,0.38,0.1,0.76,0.17,1.13c-0.26-0.23-0.18-0.7-0.17-1.13c-0.12,0.05-0.32,0.09-0.32,0.14c-0.02,1.54-0.09,3.09-0.05,4.63
		c0,0.55,0.37,0.95,1.01,0.95c1.15,0,2.28,0,3.44,0c0,0,0,0,0,0c1.61-0.02,1.61-0.03,1.61-1.48c0-0.6,0-1.2,0-1.8
		c0.01,0,0.01,0,0.02,0c0-0.58,0-1.18,0-1.78C226.85,138.03,226.28,137.66,225.56,137.89z"/>
	<path class="st1" d="M166.43,106.61c1.25,0,2.51,0,3.76,0c0.37-0.02,0.85,0.18,0.83-0.51c-0.02-1.68-0.02-3.34-0.05-5.03
		c-1.66-0.37-3.32-0.05-4.98-0.16c-0.48-0.05-0.71,0.09-0.69,0.65c0.05,1.27,0.02,2.56,0.02,3.83
		C165.39,106.58,165.39,106.61,166.43,106.61z"/>
	<path class="st1" d="M208.13,129.02c0,0.03,0,0.06,0,0.09c-0.01-0.03-0.01-0.06-0.02-0.09c0-0.55-0.41-0.39-0.71-0.39
		c-1.61,0-3.2,0.02-4.82,0.05c-0.37,1.66-0.05,3.32-0.16,4.98c-0.05,0.48,0.09,0.71,0.65,0.69c0.99-0.05,2.01-0.02,3.02-0.02
		c0.35,0,0.69-0.05,1.04,0c1.01,0.23,1.43,0.05,1.43-0.76c0-1.36,0-2.7,0-4.03C208.55,129.25,208.52,128.99,208.13,129.02z"/>
	<path class="st1" d="M129.31,134.73c0.32-0.05,0.65,0,0.97,0c0-0.04,0-0.08,0-0.13c0.01,0.03,0.01,0.07,0.02,0.1
		c1.2-0.05,2.4,0.16,3.6-0.12c0.02-1.22,0.05-2.42,0.07-3.62c0.02-0.46,0.05-0.95,0-1.41c-0.07-0.58-0.37-0.97-1.01-0.97
		c-1.22,0-2.42-0.02-3.64,0c-0.69,0.02-1.01,0.39-1.04,1.13c-0.02,1.29-0.02,2.56,0,3.85c0,0.21,0.14,0.37,0.39,0.32
		C128.62,134.39,128.59,134.85,129.31,134.73z"/>
	<path class="st1" d="M152.55,110.43c-0.46-0.25-1.04-0.51-1.59-0.53c-1.29-0.07-2.56,0-3.83,0.05c-0.05,0-0.09,0.21-0.14,0.32
		c0.01,0,0.02,0,0.02,0c-0.41-0.02-0.41,0.25-0.41,0.53c0,1.2,0,2.42,0,3.64c0,0.44-0.09,0.88,0.32,1.29
		c0.46,0.46,1.22-0.07,1.54,0.6c0.74-0.71,1.66-0.32,2.49-0.35c1.73-0.05,1.73-0.02,1.73-1.84c0-0.06,0-0.12,0-0.18
		c0-0.69,0.05-1.36,0-2.03C152.66,111.43,152.99,110.66,152.55,110.43z M149.89,111.14c-0.2,0.01-0.37-0.08-0.43-0.39
		c0-0.01,0.01-0.02,0.01-0.03C149.58,110.88,149.73,111.02,149.89,111.14z"/>
	<path class="st1" d="M203.24,124.51c-0.01,0.02-0.01,0.04-0.02,0.06c0.05,0.35,0.44,0.28,0.67,0.55c0.41,0.48,0.65-0.35,0.9,0
		c0.3,0.42,0.74,0.23,1.11,0.25c0.42,0.02,0.81,0.02,1.22,0c0.62-0.05,0.99-0.37,0.99-0.99c0.02-1.15,0-2.31,0-3.46
		c0-1.71-0.25-1.84-2.05-1.48c-0.39,0.07-0.83,0-1.2,0.21c0-0.07,0.02-0.14,0.02-0.18c-0.02-0.05-0.14-0.14-0.14-0.14
		c-0.55,0.46-1.2,0.32-1.82,0.32c-0.21,0-0.48,0.05-0.48,0.23c0.02,0.71-0.32,1.64,0.16,2.1
		C203.44,122.76,203.18,123.64,203.24,124.51z"/>
	<path class="st1" d="M230.26,125.26c1.54,0.05,3.09,0.09,4.63,0.07c0.55,0,0.95-0.37,0.95-1.01c0-0.74,0-1.48,0-2.21
		c-0.01,0-0.02,0-0.03,0c0,0,0,0,0,0c0-0.67,0.09-1.36-0.02-2.01c-0.07-0.39-0.18-1.29-0.97-0.46c-0.62-0.65-1.24,0.37-1.87,0.02
		c-0.74-0.39-1.43-0.16-2.17-0.02c-0.46,0.07-0.71,0.12-0.69,0.67c0.05,1.54,0.02,3.11,0.02,4.66
		C230.17,125.07,230.22,125.28,230.26,125.26z"/>
	<path class="st1" d="M180.4,193.41C180.39,193.41,180.39,193.41,180.4,193.41c-0.09-0.63-0.65-0.44-0.9-0.35
		c-0.42,0.16-0.76,0.37-1.25,0.39c-1.2,0.05-2.4-0.23-3.55,0.18c0,1.2,0,2.42,0,3.62c0,0.39,0.02,0.81,0,1.2
		c-0.05,0.51,0.09,0.71,0.65,0.69c1.01-0.05,2.01-0.02,3.02-0.02c0.67,0.58,1.38,0.58,2.03,0c-0.02,0-0.04,0-0.06,0
		c0.02-0.01,0.04-0.01,0.06-0.02C180.4,197.21,180.4,195.3,180.4,193.41z"/>
	<path class="st1" d="M156.26,84.47c-0.67,1.18-0.21,2.42-0.23,3.64c0,0.04,0.18,0.09,0.3,0.13c0,0.01,0,0.02,0,0.03
		c1.36,0,2.72,0,4.08,0c-0.02-0.02-0.05-0.04-0.08-0.06c0.04,0.01,0.06,0.03,0.1,0.04c0.21,0,0.39,0,0.6,0
		c1.01-0.02,1.04-0.02,1.04-0.88c0-1.2-0.07-2.4,0.02-3.6c0.05-0.53-0.37-0.78-0.44-1.22c0.05-0.25-0.09-0.39-0.3-0.39
		c-0.88-0.02-1.75-0.02-2.63,0c-0.21,0-0.37,0.14-0.32,0.39h0c-0.01,0.01-0.02,0.01-0.03,0.02c0-0.01,0.01-0.01,0.01-0.02
		c-0.25-0.07-0.53,0.09-0.76-0.14c-0.44-0.42-0.9-0.42-1.36,0c-0.46,0.42-0.48,0.9-0.09,1.36C156.37,84.01,156.4,84.22,156.26,84.47
		z"/>
	<path class="st1" d="M194.71,100.91c-0.01-0.01-0.01-0.01-0.02-0.02c-0.21,0-0.39,0-0.6,0c-1.01,0.05-1.04,0.05-1.04,0.9
		c0,1.34,0,2.67,0,4.01h0c0.14,1.08,0.39,1.24,1.22,0.81c1.43,0,2.84-0.02,4.27,0c0.37,0.02,0.62-0.02,0.62-0.51
		c-0.02-1.61,0-3.25-0.02-4.86c0-0.21-0.14-0.37-0.39-0.32C197.39,100.91,196.04,100.91,194.71,100.91z"/>
	<path class="st1" d="M185.54,162.4c0.69-0.41,1.22-0.35,1.96-0.05c0.55,0.23,1.36,0.46,1.89-0.3c-0.03,0-0.06-0.01-0.09-0.01
		c0.02-0.01,0.05-0.01,0.07-0.02c0.14-0.25,0.28-0.53,0.42-0.81c0-1.08,0-2.17,0.02-3.25c-0.02-1.48-0.14-1.61-1.54-1.64
		c-1.08-0.02-2.17,0-3.25,0c-0.87,0-0.88,0.02-0.92,1.21c-0.01,0-0.01,0-0.02,0.01c-0.07,0-0.16-0.02-0.16,0.02
		c-0.46,1.25-0.18,2.51-0.18,3.76C183.72,162.01,184.98,162.74,185.54,162.4z M189.43,158.91c-0.05-0.33-0.11-0.61-0.2-0.83
		c0.02,0.02,0.06,0.02,0.07,0.05C189.42,158.34,189.44,158.62,189.43,158.91z"/>
	<path class="st1" d="M155.94,103.75c0,0.74,0.02,1.48-0.02,2.21c-0.02,0.58,0.23,0.69,0.71,0.65c0.28-0.02,0.53,0.02,0.81,0
		c1.52-0.09,3.04,0.18,4.56-0.16c0.02-1.61,0.05-3.2,0.05-4.82c0-0.21-0.14-0.37-0.39-0.32c0.05-0.37-0.23-0.39-0.51-0.42
		c-1.45,0-2.93,0-4.38,0c0,0.01,0,0.02,0,0.02c-0.55,0.14-0.83,0.48-0.83,1.11C155.96,102.59,155.94,103.18,155.94,103.75z"/>
	<path class="st1" d="M115.61,132.27L115.61,132.27L115.61,132.27c0-0.99-0.02-2.01,0.02-3.02c0.02-0.58-0.23-0.65-0.71-0.65
		c-1.41,0.02-2.84,0-4.24,0.02c-1.11,0.02-1.34,0.53-0.78,1.61c0,1.13-0.02,2.26,0,3.41c0.02,0.69,0.37,1.06,1.06,1.08
		c0.6,0.02,1.2,0,1.8,0c0.14,0,0.28,0,0.39-0.02C115.68,134.78,115.68,134.71,115.61,132.27z"/>
	<path class="st1" d="M254.17,119.66c0-0.01,0-0.02,0-0.02c0.05-0.25-0.16-0.46-0.32-0.39c-1.04,0.42-2.08,0.74-3.11,0.02
		c-0.28,0.55-0.74-0.09-0.99,0.14c-0.35,0.32-0.88,0.25-1.15,0.69c-0.21,0.35-0.12,0.65-0.12,0.97c-0.02,1.01,0.14,2.05-0.05,3.02
		c-0.18,0.97,0.71,0.76,0.99,1.2c0.44-0.74,1.13-0.18,1.54-0.12c0.85,0.12,1.71-0.78,2.54,0.07c0.14,0.14,1.08-0.65,1.08-0.92
		c0-0.46,0-0.95,0-1.41c0-0.92,0-1.84,0-2.74C254.59,119.89,254.54,119.63,254.17,119.66z"/>
	<path class="st1" d="M184.09,85.42c0,0.78,0,1.57,0,2.35c0,0.28,0.05,0.53,0.41,0.51c0,0.07-0.02,0.14,0,0.18
		c0.02,0.05,0.12,0.14,0.12,0.14c0.53-0.46,1.18-0.32,1.8-0.32c0.99,0,1.98,0,2.97,0c0,0,0,0,0,0c0.24,0.03,0.37-0.12,0.37-0.32
		c0.02-1.71,0.02-3.39,0-5.07c0-0.21-0.14-0.37-0.39-0.32c-1.48,0-2.95,0-4.43,0c-0.42-0.02-0.78,0-1.06,0.39
		C183.53,83.48,183.6,84.59,184.09,85.42L184.09,85.42z"/>
	<path class="st1" d="M180.42,157.53c-0.01,0-0.02,0-0.02,0c0.02-0.73-0.24-1.22-1.08-1.2c-0.46,0-0.9,0-1.36,0
		c-0.9,0-1.82,0-2.74,0.02c-0.28,0-0.53,0.05-0.51,0.42c0-0.02,0-0.03,0-0.05c-0.07,0-0.18,0-0.21,0c-0.41,1.57-0.23,3.18-0.07,4.75
		c0.02,0.32,0.18,1.13,1.15,0.99c1.2-0.18,2.44-0.02,3.67-0.05c0.85-0.02,1.11-0.32,1.18-1.22c0.02-0.25,0-0.53,0-0.81
		c-0.01,0-0.02,0.01-0.02,0.01c0-0.41,0-0.8,0-1.21c-0.01-0.01-0.01-0.02-0.03-0.02c0.02,0,0.03,0,0.05,0
		C180.42,158.64,180.42,158.09,180.42,157.53z"/>
	<path class="st1" d="M207.99,174.76c-1.41-0.02-2.79-0.02-4.2,0c-0.05,0-0.09,0.21-0.14,0.32c0.05,0,0.1,0,0.14,0
		c-0.04,0.01-0.08,0.01-0.12,0.02c-0.01,0-0.02-0.01-0.02-0.02c-1.2,0.07-1.22,0.07-1.22,0.92c0,1.41,0.02,2.81,0.02,4.22
		c1.43,0.35,2.9,0.07,4.36,0.16c0.12,0,0.25,0,0.39,0c0.88-0.02,0.88-0.02,0.92-1.22c0-1.36,0-2.72,0-4.06
		c-0.05-0.01-0.09-0.01-0.14-0.02c0.05,0,0.09,0,0.14,0C208.09,174.96,208.04,174.76,207.99,174.76z M207.14,176.99
		c-0.04-0.05-0.09-0.09-0.14-0.13C207.06,176.88,207.1,176.93,207.14,176.99z"/>
	<path class="st1" d="M137.63,143.45c0.25,0.53,0.78,0.16,1.2,0.25c0-0.01,0.01-0.01,0.01-0.02c1.22,0,2.41,0.02,3.63,0
		c0.88-0.02,1.22-0.32,1.24-1.13c0.02-1.15,0.02-2.28,0-3.44c-0.02-0.81-0.37-1.11-1.24-1.13c-1.06-0.02-2.14,0-3.23,0
		c-0.21,0-0.39,0-0.6,0c-1.01,0.02-1.04,0.02-1.04,0.88c0,1.2,0,2.4,0,3.6c0.01,0.01,0.03,0.01,0.04,0.02c-0.01,0-0.03,0-0.04,0
		C137.61,142.8,137.52,143.17,137.63,143.45z"/>
	<path class="st1" d="M180.42,168.65c-0.01-0.02-0.01-0.05-0.02-0.08c0-0.14,0-0.28,0-0.41c0.01-0.03,0.01-0.05,0.02-0.08
		c0,0.02,0,0.03,0,0.05c0.55-0.95,0.53-1.57,0.07-2.19c-0.71-0.9-1.61-0.83-2.49-0.44c-0.53,0.21-1.11,0.32-1.5,0.07
		c-0.53-0.35-0.95-0.46-1.41-0.05c-0.42,0.39-0.88,0.74-0.81,1.5c0.09,1.13,0.02,2.28,0.02,3.44c0,0.27,0.03,0.54,0.39,0.53
		c0,0,0,0,0,0c-0.05,0.25,0.12,0.39,0.32,0.39c1.71,0.02,3.39,0.02,5.07,0c0.21,0,0.37-0.14,0.32-0.39c0.58-0.76,0.58-1.68,0-2.44
		C180.42,168.59,180.42,168.62,180.42,168.65z M175.68,168.6c-0.19,0.25-0.35,0.52-0.5,0.78c0-0.08,0.03-0.16,0.01-0.25
		C175.17,169.04,175.4,168.71,175.68,168.6z M174.74,170.76c0.01-0.11,0.01-0.21,0.05-0.31
		C174.76,170.56,174.75,170.66,174.74,170.76z"/>
	<path class="st1" d="M171.01,175.08c0.01-0.01,0.02-0.02,0.02-0.02c-0.05-0.12-0.09-0.32-0.14-0.32c-1.54-0.02-3.09-0.09-4.63-0.05
		c-0.55,0.02-0.97,0.39-0.92,1.04c0.09,1.66-0.18,3.34,0.14,5c1.48,0,2.95,0.02,4.43,0.05c0.35,0,0.67-0.02,0.99-0.07
		c0.07,0,0.09-0.21,0.14-0.32c0-1.08,0-2.19,0-3.25c0-0.01,0-0.02,0-0.03c0,0,0,0,0,0c0.58-0.65,0.58-1.36,0-2.03
		C171.03,175.08,171.02,175.08,171.01,175.08z"/>
</g>
</svg>
