<?xml version="1.0" encoding="utf-8"?>
<!-- Generator: Adobe Illustrator 25.0.0, SVG Export Plug-In . SVG Version: 6.00 Build 0)  -->
<!DOCTYPE svg PUBLIC "-//W3C//DTD SVG 1.1//EN" "http://www.w3.org/Graphics/SVG/1.1/DTD/svg11.dtd" [
	<!ENTITY ns_extend "http://ns.adobe.com/Extensibility/1.0/">
	<!ENTITY ns_ai "http://ns.adobe.com/AdobeIllustrator/10.0/">
	<!ENTITY ns_graphs "http://ns.adobe.com/Graphs/1.0/">
	<!ENTITY ns_vars "http://ns.adobe.com/Variables/1.0/">
	<!ENTITY ns_imrep "http://ns.adobe.com/ImageReplacement/1.0/">
	<!ENTITY ns_sfw "http://ns.adobe.com/SaveForWeb/1.0/">
	<!ENTITY ns_custom "http://ns.adobe.com/GenericCustomNamespace/1.0/">
	<!ENTITY ns_adobe_xpath "http://ns.adobe.com/XPath/1.0/">
]>
<svg version="1.1" id="Layer_1" xmlns:x="&ns_extend;" xmlns:i="&ns_ai;" xmlns:graph="&ns_graphs;"
	 xmlns="http://www.w3.org/2000/svg" xmlns:xlink="http://www.w3.org/1999/xlink" x="0px" y="0px" viewBox="0 0 328.2363 192.99808"
	 style="enable-background:new 0 0 328.2363 192.99808;" xml:space="preserve">
<style type="text/css">
	.st0{fill:#3865B0;}
	.st1{fill:url(#Path_237_1_);}
	.st2{fill:url(#Path_238_1_);}
</style>
<metadata>
	<sfw  xmlns="&ns_sfw;">
		<slices></slices>
		<sliceSourceBounds  bottomLeftOrigin="true" height="186.07983" width="324.07352" x="608.73883" y="-424.62073">
			</sliceSourceBounds>
	</sfw>
</metadata>
<g>
	<g id="Group_161" transform="translate(0 27.528)">
		<g id="Group_160" transform="translate(0.134 40.916)">
			<path id="Path_204" class="st0" d="M2.23014,96.21187V79.8468h2.35475v16.36507H2.23014z"/>
			<path id="Path_205" class="st0" d="M10.18058,96.2119H7.97142V85.52692c0-0.15476-0.00774-0.39597-0.02321-0.72373h2.10999
				l0.07385,1.71752c0.23062-0.31696,0.49368-0.60902,0.78492-0.87141c0.83192-0.75116,1.92229-1.15116,3.0426-1.1162
				c1.24786-0.099,2.47119,0.38567,3.31268,1.3124c0.76282,1.0095,1.14466,2.25594,1.0782,3.51946v6.8448H16.1434v-6.67388
				c0.07123-0.84086-0.17827-1.67757-0.69841-2.34209c-0.50468-0.51488-1.20648-0.78777-1.92642-0.74904
				c-0.72042-0.03902-1.42939,0.19279-1.98761,0.64988c-0.50271,0.45097-0.86525,1.03687-1.04444,1.688
				c-0.205,0.69315-0.30806,1.41246-0.30595,2.13529v5.29819L10.18058,96.2119z"/>
			<path id="Path_206" class="st0" d="M22.30035,92.47721v-5.83833h-2.06146v-1.8399h2.06146v-3.7157h2.20705v3.72835h3.33589
				v1.8399H24.5074v5.6147c-0.0703,0.66208,0.0779,1.32898,0.422,1.89898c0.30257,0.35065,0.75084,0.54086,1.21324,0.51485
				c0.36581,0.01155,0.72986-0.05538,1.06766-0.19624c0.30723-0.14556,0.58592-0.34495,0.8229-0.58871l1.00646,1.3504
				c-0.8415,0.88026-2.02225,1.35413-3.23883,1.29974c-0.98743,0.08088-1.95936-0.28358-2.65015-0.99379
				C22.5086,94.66144,22.20691,93.57068,22.30035,92.47721z"/>
			<path id="Path_207" class="st0" d="M39.15494,93.2199l1.25122,1.32509c-0.26697,0.28754-0.56327,0.54636-0.88408,0.77225
				c-0.50882,0.36301-1.06646,0.65213-1.65634,0.85876c-0.79319,0.27176-1.62837,0.40035-2.46657,0.37978
				c-1.08885,0.02283-2.16425-0.24362-3.11646-0.77225c-0.89035-0.50515-1.61797-1.254-2.09733-2.15851
				c-0.5147-0.98706-0.77232-2.0879-0.74905-3.20084c-0.01514-1.05049,0.23371-2.08797,0.72372-3.01727
				c0.46698-0.883,1.16207-1.62469,2.01293-2.14798c0.88946-0.53976,1.91372-0.81632,2.95399-0.79758
				c1.14887-0.05489,2.28221,0.28294,3.21351,0.95792c0.81977,0.63928,1.44101,1.49836,1.79138,2.47711
				c0.38213,1.0455,0.57366,2.15104,0.56548,3.26415h-9.00121c0.00656,0.64021,0.1938,1.26555,0.54016,1.80403
				c0.33869,0.52779,0.80828,0.95885,1.36305,1.25122c0.56116,0.3029,1.18956,0.45966,1.82725,0.45576
				c0.82544,0.0302,1.64606-0.1384,2.39272-0.49163C38.32053,93.94608,38.77355,93.62045,39.15494,93.2199z M31.69613,89.51477
				h6.72243c-0.04689-0.83632-0.37561-1.6321-0.93262-2.25771c-0.60865-0.6434-1.47061-0.98477-2.35475-0.93262
				c-0.63654-0.01706-1.26514,0.14446-1.81459,0.46629c-0.48572,0.28857-0.88788,0.69872-1.16683,1.19003
				C31.88379,88.45092,31.72862,88.97559,31.69613,89.51477z"/>
			<path id="Path_208" class="st0" d="M45.36463,96.21399h-2.20916V85.51633c-0.00001-0.14066-0.00774-0.37772-0.02321-0.71107
				h2.10999l0.07385,1.8399c0.22147-0.30969,0.47232-0.59727,0.74904-0.85876c0.3566-0.33561,0.76663-0.60944,1.21325-0.81024
				c0.55658-0.24201,1.15934-0.35937,1.76606-0.34392c0.22599-0.00148,0.45174,0.01475,0.6752,0.04852
				c0.19622,0.03104,0.38908,0.08052,0.57602,0.14771l-0.49163,2.06147c-0.36281-0.12492-0.74531-0.18284-1.12885-0.1709
				c-0.59744-0.00917-1.18441,0.15738-1.68799,0.47898c-0.49613,0.31606-0.90525,0.75129-1.19003,1.26601
				c-0.2965,0.53178-0.44855,1.13194-0.44099,1.74073v6.01136L45.36463,96.21399z"/>
			<path id="Path_209" class="st0" d="M54.2941,96.2119h-2.20915V85.52692c0-0.15476-0.00773-0.39597-0.02321-0.72373h2.10999
				l0.07385,1.71752c0.23062-0.31696,0.49368-0.60902,0.78492-0.87141c0.83192-0.75116,1.92228-1.15116,3.0426-1.1162
				c1.24786-0.099,2.47119,0.38567,3.31268,1.3124c0.76282,1.0095,1.14466,2.25594,1.07821,3.51946v6.8448h-2.20915v-6.67388
				c0.07122-0.84086-0.17827-1.67757-0.69841-2.34209c-0.50468-0.51488-1.20647-0.78777-1.92642-0.74904
				c-0.72042-0.03902-1.42939,0.19279-1.98761,0.64988c-0.50271,0.45097-0.86525,1.03687-1.04444,1.688
				c-0.205,0.69315-0.30806,1.41246-0.30595,2.13529L54.2941,96.2119z"/>
			<path id="Path_210" class="st0" d="M72.62357,96.21399l-0.04853-1.3736c-0.4318,0.57296-1.01705,1.01192-1.688,1.26601
				c-0.68147,0.2774-1.41008,0.4207-2.14585,0.42199c-0.63303-0.00187-1.26057-0.11765-1.85257-0.34182
				c-1.352-0.46864-2.22138-1.78613-2.12053-3.2135c-0.0466-1.13262,0.43323-2.22313,1.29974-2.95397
				c1.06353-0.79871,2.37791-1.19016,3.70514-1.10352c0.35869,0,0.73216,0.01056,1.11618,0.03587s0.73216,0.04852,1.04234,0.07386
				c0.31017,0.02534,0.51484,0.0443,0.61189,0.0612v-0.42199c0.06667-0.70026-0.22359-1.38703-0.77225-1.82725
				c-0.62466-0.39958-1.359-0.59292-2.09944-0.5528c-0.70031-0.02798-1.39859,0.09286-2.04881,0.35448
				c-0.45111,0.20103-0.88268,0.44331-1.2892,0.72373l-1.02967-1.49598c1.31661-1.01311,2.95383-1.51865,4.61243-1.42425
				c1.24384-0.06787,2.47102,0.31075,3.46038,1.06764c0.86747,0.76015,1.33479,1.87863,1.26599,3.02995v7.06635
				c0,0.16246,0,0.36082,0.02532,0.5887L72.62357,96.21399z M72.54972,92.11639v-1.29974
				c-0.18386-0.05029-0.37289-0.07933-0.56337-0.08651c-0.29399-0.02534-0.62526-0.04996-0.9938-0.07386
				c-0.36714-0.02531-0.72373-0.03587-1.06554-0.03587c-0.64543-0.03561-1.28986,0.08603-1.87789,0.35448
				c-0.38508,0.1878-0.69628,0.49901-0.88408,0.8841c-0.14992,0.3272-0.22901,0.68242-0.2321,1.04234
				c-0.03057,0.54179,0.20585,1.06424,0.633,1.39891c0.51847,0.35564,1.14054,0.52859,1.76817,0.49163
				c0.5507,0.00538,1.09422-0.12505,1.58249-0.37978c0.46306-0.23722,0.86577-0.57715,1.17738-0.99379
				c0.29016-0.37234,0.44958-0.82988,0.45364-1.30191H72.54972z"/>
			<path id="Path_211" class="st0" d="M78.65813,92.47721v-5.83833h-2.06145v-1.8399h2.06145v-3.7157h2.20704v3.72835h3.3359v1.8399
				h-3.33588v5.6147c-0.0703,0.66208,0.0779,1.32898,0.422,1.89898c0.30256,0.35065,0.75082,0.54086,1.21323,0.51485
				c0.36581,0.01155,0.72985-0.05538,1.06765-0.19624c0.30723-0.14556,0.58593-0.34495,0.82289-0.58871l1.00646,1.3504
				c-0.84151,0.8803-2.02225,1.35413-3.23885,1.29974c-0.98743,0.08088-1.95936-0.28358-2.65013-0.99379
				C78.86637,94.66141,78.56467,93.57068,78.65813,92.47721z"/>
			<path id="Path_212" class="st0" d="M87.04955,82.76704v-2.47712h2.47713v2.47712H87.04955z M87.19725,96.21399v-11.4087h2.20704
				v11.4087H87.19725z"/>
			<path id="Path_213" class="st0" d="M98.04048,96.55582c-1.09474,0.01764-2.17313-0.2671-3.11645-0.8229
				c-0.90017-0.53075-1.64183-1.29282-2.14796-2.20705c-1.02924-1.89335-1.02924-4.17922,0-6.07256
				c0.50911-0.90924,1.25031-1.6672,2.14796-2.1965c0.94371-0.55467,2.02197-0.83864,3.11645-0.8208
				c1.0906-0.01881,2.16505,0.26532,3.10379,0.8208c2.8929,1.74688,3.82191,5.50816,2.07503,8.40105
				c-0.51312,0.84975-1.22528,1.56189-2.07503,2.07503C100.20592,96.28952,99.13134,96.57442,98.04048,96.55582z M98.04048,94.64206
				c0.72942,0.02199,1.44696-0.18861,2.0488-0.60136c0.56142-0.39707,1.00944-0.93384,1.29974-1.55718
				c0.60646-1.25567,0.60646-2.71955,0-3.97523c-0.29309-0.62534-0.74575-1.16243-1.31242-1.55718
				c-1.24012-0.80068-2.83427-0.80068-4.07439,0c-0.5649,0.39221-1.01737,0.92541-1.31242,1.54662
				c-0.30098,0.62296-0.45612,1.30632-0.45364,1.99818c-0.00035,0.68564,0.1593,1.36189,0.46631,1.97495
				c0.30196,0.61961,0.7529,1.15464,1.31242,1.55719C96.60614,94.44592,97.31672,94.66131,98.04048,94.64206z"/>
			<path id="Path_214" class="st0" d="M108.78665,96.2119h-2.20915V85.52692c0-0.15476-0.00772-0.39597-0.02321-0.72373h2.10999
				l0.07386,1.71752c0.23061-0.31696,0.49369-0.60902,0.7849-0.87141c0.83191-0.75116,1.92229-1.15116,3.0426-1.1162
				c1.24791-0.09933,2.47139,0.38538,3.3127,1.3124c0.76282,1.0095,1.14466,2.25594,1.07821,3.51946v6.8448h-2.20915v-6.67388
				c0.07121-0.84086-0.17827-1.67757-0.69839-2.34209c-0.50467-0.51488-1.20647-0.78777-1.92641-0.74904
				c-0.72041-0.03902-1.4294,0.19279-1.98761,0.64988c-0.50281,0.45087-0.86536,1.03683-1.04443,1.688
				c-0.20499,0.69315-0.30805,1.41246-0.30596,2.13529L108.78665,96.2119z"/>
			<path id="Path_215" class="st0" d="M127.11823,96.21399l-0.04852-1.3736c-0.43181,0.57296-1.01704,1.01192-1.688,1.26601
				c-0.68146,0.2774-1.41008,0.4207-2.14585,0.42199c-0.63304-0.00187-1.26057-0.11765-1.85258-0.34182
				c-1.35201-0.46864-2.22142-1.78613-2.12055-3.2135c-0.04659-1.13262,0.43323-2.22313,1.29975-2.95397
				c1.06352-0.79871,2.37792-1.19016,3.70513-1.10352c0.3587,0,0.73216,0.01056,1.1162,0.03587s0.73217,0.04852,1.04234,0.07386
				s0.51485,0.0443,0.61189,0.0612v-0.42199c0.06664-0.70026-0.2236-1.38703-0.77225-1.82725
				c-0.62466-0.39958-1.35899-0.59292-2.09943-0.5528c-0.70029-0.02798-1.39859,0.09286-2.04878,0.35448
				c-0.4511,0.20103-0.88265,0.44331-1.28918,0.72373l-1.02969-1.49598c1.31662-1.01311,2.95384-1.51865,4.61245-1.42425
				c1.24382-0.06787,2.471,0.31075,3.46037,1.06764c0.86749,0.76015,1.33481,1.87863,1.26601,3.02995v7.06635
				c0,0.16246,0,0.36082,0.02531,0.5887L127.11823,96.21399z M127.04436,92.11639v-1.29974
				c-0.18387-0.05029-0.37289-0.07933-0.56336-0.08651c-0.29398-0.02534-0.62524-0.04996-0.99379-0.07386
				c-0.36713-0.02531-0.72373-0.03587-1.06555-0.03587c-0.64543-0.03561-1.28986,0.08603-1.87789,0.35448
				c-0.38509,0.1878-0.6963,0.49901-0.8841,0.8841c-0.1499,0.3272-0.229,0.68242-0.23209,1.04234
				c-0.03056,0.54179,0.20586,1.06424,0.633,1.39891c0.51845,0.35564,1.14053,0.52859,1.76816,0.49163
				c0.55068,0.00538,1.09422-0.12505,1.5825-0.37978c0.46304-0.23722,0.86578-0.57715,1.17737-0.99379
				c0.28941-0.3726,0.4481-0.83014,0.45155-1.30191H127.04436z"/>
			<path id="Path_216" class="st0" d="M132.15266,96.21187V79.8468h2.20705v16.36507H132.15266z"/>
			<path id="Path_217" class="st0" d="M154.42149,91.9687l1.64369,1.37361c-0.35146,0.49514-0.76323,0.9445-1.22589,1.33774
				c-0.64366,0.5613-1.37219,1.01707-2.15851,1.35039c-0.95476,0.40238-1.98352,0.59936-3.01939,0.57814
				c-1.49452,0.0285-2.96768-0.35789-4.25584-1.1162c-1.2218-0.73043-2.21896-1.78307-2.88223-3.04261
				c-0.70145-1.34292-1.05548-2.84013-1.02969-4.355c-0.00926-1.14273,0.19025-2.27753,0.58871-3.34856
				c0.38055-1.01462,0.95374-1.94604,1.68799-2.74299c0.72882-0.79411,1.61378-1.42915,2.5995-1.86523
				c1.05569-0.45992,2.19713-0.69009,3.34856-0.67522c1.02318-0.02498,2.04106,0.15435,2.99408,0.5275
				c0.75793,0.3018,1.45926,0.72985,2.07413,1.26601c0.48332,0.42663,0.91527,0.90815,1.28709,1.43478l-1.66687,1.42425
				c-0.2946-0.41481-0.6273-0.80122-0.99379-1.15415c-0.43629-0.41675-0.94273-0.75316-1.49599-0.99379
				c-1.7287-0.67386-3.67348-0.49646-5.25175,0.47897c-0.8596,0.59032-1.54579,1.39962-1.98761,2.34418
				c-0.47557,1.0171-0.71437,2.12879-0.69839,3.25149c-0.01508,1.11037,0.22379,2.20954,0.69839,3.21351
				c0.43668,0.93043,1.11967,1.7236,1.97496,2.29356c2.16928,1.44199,5.05243,1.16549,6.9081-0.66252
				C153.92216,92.50393,154.20909,92.19801,154.42149,91.9687z"/>
			<path id="Path_218" class="st0" d="M166.02853,96.62967c-1.12985,0.00934-2.24933-0.21629-3.28735-0.66252
				c-0.99973-0.43172-1.90131-1.06198-2.65015-1.85258c-1.56108-1.64453-2.42334-3.83047-2.40538-6.09786
				c-0.00635-1.14653,0.2086-2.28349,0.633-3.34856c0.40338-1.02116,1.00342-1.95313,1.76608-2.743
				c0.75751-0.78297,1.66249-1.40828,2.66278-1.8399c2.10269-0.88271,4.47205-0.88271,6.57472,0
				c1.00029,0.43162,1.90529,1.05693,2.6628,1.8399c0.76375,0.79147,1.36768,1.7228,1.77872,2.743
				c1.31914,3.22432,0.62274,6.92265-1.77872,9.44643c-1.55014,1.62527-3.7043,2.53581-5.95018,2.51511H166.02853z
				 M166.02853,94.42052c1.10413,0.02573,2.19032-0.28242,3.11647-0.88409c0.88123-0.58574,1.59233-1.39363,2.06146-2.34209
				c0.49573-0.9935,0.74814-2.09061,0.73639-3.20085c0.01323-1.11707-0.23459-2.2218-0.72374-3.22619
				c-0.46188-0.94376-1.16965-1.74556-2.04878-2.321c-1.92389-1.1606-4.33221-1.1606-6.2561,0
				c-0.87907,0.57553-1.58681,1.3773-2.04878,2.321c-0.96556,2.03429-0.96556,4.39484,0,6.42913
				c0.46223,0.94917,1.16951,1.75773,2.04878,2.34209C163.84,94.13903,164.92534,94.44643,166.02853,94.42052z"/>
			<path id="Path_219" class="st0" d="M181.48628,96.21187l-6.32996-16.36507h2.62483l4.98166,13.44483l4.98167-13.44483h2.47711
				l-6.32997,16.36507H181.48628z"/>
			<path id="Path_220" class="st0" d="M192.38226,96.21187V79.8468h2.35475v16.36507H192.38226z"/>
			<path id="Path_221" class="st0" d="M198.46535,96.21187V79.8468h5.47121c1.57695-0.03007,3.14307,0.26662,4.59976,0.87141
				c1.29881,0.55051,2.39601,1.48858,3.14177,2.686c0.81355,1.41524,1.20938,3.03208,1.14151,4.66309
				c0.05975,1.59875-0.33614,3.18153-1.14151,4.5639c-0.74977,1.201-1.8501,2.14299-3.15233,2.69869
				c-1.45927,0.6122-3.03021,0.91333-4.61244,0.88409L198.46535,96.21187z M200.8201,94.10188h3.0426
				c1.72293,0.10612,3.42387-0.43152,4.77278-1.50863c1.20245-1.16691,1.82666-2.80626,1.70486-4.47739
				c0.11484-1.69041-0.48625-3.3512-1.65634-4.57658c-1.36299-1.14556-3.11957-1.7134-4.89519-1.58249h-2.96875L200.8201,94.10188z"
				/>
			<path id="Path_222" class="st0" d="M215.81371,90.39677v-2.10999h7.19507v2.10999H215.81371z"/>
			<path id="Path_223" class="st0" d="M228.24994,96.2119v-1.96227h2.74297v-11.1133l-3.18817,1.71752l-0.90727-1.74286
				l4.34238-2.38008h1.98758v13.51868h2.69867v1.96228L228.24994,96.2119z"/>
			<path id="Path_224" class="st0" d="M239.8064,95.57468l0.95583-1.79137c0.15808,0.10022,0.32228,0.19044,0.49162,0.27009
				c0.32416,0.15473,0.66086,0.28178,1.00645,0.37978c0.43039,0.1255,0.87675,0.18735,1.32504,0.18358
				c0.8239,0.03542,1.63324-0.22588,2.28088-0.73638c0.60381-0.5116,1.06473-1.17094,1.33774-1.91376
				c0.30716-0.81017,0.47688-1.66591,0.5022-2.53197c-0.40463,0.31297-0.84528,0.57649-1.31244,0.7849
				c-0.73335,0.30921-1.52576,0.45329-2.321,0.422c-0.88789,0.02179-1.76439-0.20319-2.53201-0.64988
				c-0.71693-0.42994-1.29601-1.05589-1.66896-1.80403c-0.40471-0.82379-0.60657-1.73246-0.58867-2.65014
				c-0.01958-0.95171,0.21339-1.8916,0.6752-2.72399c0.43439-0.76936,1.07059-1.40551,1.83994-1.8399
				c0.80542-0.44942,1.71533-0.67798,2.63748-0.66253c1.57581-0.07382,3.08971,0.62061,4.06171,1.86311
				c1.08823,1.64472,1.60155,3.60332,1.46008,5.57037c0.03297,1.59228-0.21198,3.17812-0.72369,4.68627
				c-0.40071,1.21062-1.14664,2.27773-2.14586,3.07c-1.03252,0.74589-2.28462,1.12537-3.55745,1.07821
				c-0.77592,0.01237-1.54805-0.11191-2.28088-0.36713C240.75031,96.04338,240.2673,95.83009,239.8064,95.57468z
				 M247.73154,87.45333c0.06477-1.30457-0.20085-2.60442-0.77226-3.77898c-0.49208-0.90319-1.4633-1.43903-2.48976-1.3736
				c-0.51649-0.00004-1.0246,0.13062-1.47702,0.37978c-0.47032,0.25741-0.86086,0.63915-1.12885,1.10352
				c-0.30316,0.54353-0.46014,1.15638-0.45576,1.77872c-0.02171,0.78255,0.22556,1.54888,0.70052,2.1712
				c0.57985,0.64459,1.43027,0.97711,2.29356,0.89675c0.68332,0.02457,1.3644-0.09253,2.00026-0.34392
				c0.48204-0.21021,0.93008-0.49112,1.32924-0.83346H247.73154z"/>
			<path id="Path_225" class="st0" d="M2.23014,120.74895v-16.36719h5.4712c1.57696-0.03008,3.14308,0.26662,4.59977,0.87141
				c1.29881,0.55051,2.39602,1.48857,3.14177,2.686c0.81357,1.41523,1.20936,3.03207,1.1415,4.66309
				c0.05975,1.59875-0.33613,3.18153-1.1415,4.5639c-0.74979,1.201-1.8501,2.14298-3.15232,2.69868
				c-1.45928,0.61221-3.03021,0.91333-4.61243,0.8841H2.23014z M4.58489,118.63895h3.0426
				c1.72293,0.10612,3.42387-0.43152,4.77279-1.50863c1.20244-1.16691,1.82666-2.80626,1.70487-4.47739
				c0.11484-1.69041-0.48623-3.3512-1.65634-4.57658c-1.36299-1.14556-3.11953-1.7134-4.89517-1.58249H4.58489V118.63895z"/>
			<path id="Path_226" class="st0" d="M26.49501,120.74895l-0.04853-1.3736c-0.4318,0.57295-1.01704,1.01192-1.68799,1.26601
				c-0.68146,0.27746-1.41008,0.42073-2.14586,0.42199c-0.63303-0.00187-1.26056-0.11765-1.85257-0.34183
				c-1.35201-0.46864-2.22139-1.78613-2.12054-3.2135c-0.04659-1.13261,0.43323-2.22312,1.29975-2.95397
				c1.06353-0.79871,2.37792-1.19015,3.70514-1.10351c0.3587,0,0.73216,0.01056,1.11618,0.03587
				c0.38402,0.02531,0.73216,0.04852,1.04233,0.07385c0.31017,0.02534,0.51484,0.0443,0.6119,0.06121v-0.40519
				c0.06666-0.70026-0.2236-1.38703-0.77225-1.82724c-0.62466-0.39958-1.359-0.59292-2.09944-0.5528
				c-0.70031-0.02798-1.39859,0.09285-2.0488,0.35448c-0.45111,0.20103-0.88267,0.4433-1.2892,0.72372l-1.02968-1.49598
				c1.31915-1.01433,2.95968-1.51923,4.62087-1.42216c1.24384-0.06786,2.47101,0.31076,3.46038,1.06765
				c0.86747,0.76015,1.3348,1.87863,1.26599,3.02995v7.06635c0,0.16246,0,0.36082,0.02532,0.58871H26.49501z M26.42116,116.65134
				v-1.29974c-0.18386-0.05029-0.37289-0.07933-0.56337-0.08651c-0.29399-0.02534-0.62526-0.04994-0.99381-0.07386
				c-0.36714-0.02531-0.72373-0.03587-1.06554-0.03587c-0.64543-0.03561-1.28985,0.08603-1.87789,0.35448
				c-0.38508,0.1878-0.69628,0.499-0.88409,0.88409c-0.14992,0.32721-0.22901,0.68243-0.2321,1.04234
				c-0.03057,0.54179,0.20584,1.06423,0.63299,1.39891c0.51847,0.35564,1.14054,0.52859,1.76817,0.49163
				c0.55069,0.00538,1.09422-0.12505,1.58249-0.37978c0.46306-0.23721,0.86577-0.57714,1.17738-0.99379
				C26.25632,117.58119,26.4165,117.12363,26.42116,116.65134z"/>
			<path id="Path_227" class="st0" d="M32.53168,117.01848v-5.83834h-2.06146v-1.8399h2.06146v-3.72834h2.20705v3.72834h3.3359
				v1.8399h-3.3359v5.61889c-0.0703,0.66208,0.07791,1.32898,0.422,1.89898c0.30257,0.35065,0.75084,0.54086,1.21325,0.51484
				c0.36582,0.01163,0.72988-0.05531,1.06765-0.19623c0.30725-0.14553,0.58596-0.34492,0.8229-0.58871l1.00647,1.3504
				c-0.8415,0.88026-2.02225,1.35413-3.23883,1.29974c-0.98743,0.08088-1.95937-0.28358-2.65015-0.99379
				C32.7419,119.1965,32.44031,118.10911,32.53168,117.01848z"/>
			<path id="Path_228" class="st0" d="M48.16037,120.74895l-0.04853-1.3736c-0.43179,0.57295-1.01704,1.01192-1.68799,1.26601
				c-0.68147,0.2774-1.41008,0.4207-2.14585,0.42199c-0.63303-0.00187-1.26056-0.11765-1.85257-0.34183
				c-1.35201-0.46864-2.22139-1.78613-2.12054-3.2135c-0.04659-1.13261,0.43323-2.22312,1.29976-2.95397
				c1.06353-0.79871,2.37791-1.19015,3.70514-1.10351c0.35869,0,0.73217,0.01056,1.11618,0.03587
				c0.38402,0.02531,0.73217,0.04852,1.04233,0.07385c0.31017,0.02534,0.51484,0.0443,0.6119,0.06121v-0.40519
				c0.06666-0.70026-0.2236-1.38703-0.77226-1.82724c-0.62466-0.39958-1.359-0.59292-2.09943-0.5528
				c-0.70031-0.02798-1.3986,0.09285-2.0488,0.35448c-0.4511,0.20103-0.88268,0.4433-1.2892,0.72372l-1.02967-1.49598
				c1.31915-1.0143,2.95967-1.51923,4.62085-1.42216c1.24384-0.06786,2.47101,0.31076,3.46038,1.06765
				c0.86747,0.76015,1.3348,1.87863,1.26599,3.02995v7.06635c0,0.16246,0,0.36082,0.02532,0.58871H48.16037z M48.08652,116.65134
				v-1.29974c-0.18386-0.05029-0.37288-0.07933-0.56336-0.08651c-0.29399-0.02534-0.62526-0.04994-0.9938-0.07386
				c-0.36714-0.02531-0.72372-0.03587-1.06555-0.03587c-0.64543-0.03561-1.28986,0.08603-1.87789,0.35448
				c-0.38508,0.1878-0.69627,0.499-0.88408,0.88409c-0.14992,0.32721-0.22901,0.68243-0.2321,1.04234
				c-0.03057,0.54179,0.20584,1.06423,0.63299,1.39891c0.51847,0.35564,1.14055,0.52859,1.76817,0.49163
				c0.55069,0.00538,1.09422-0.12505,1.58249-0.37978c0.46305-0.23721,0.86576-0.57714,1.17737-0.99379
				C47.92168,117.58119,48.08187,117.12363,48.08652,116.65134z"/>
			<path id="Path_229" class="st0" d="M56.42942,120.74895l6.40382-16.36507h2.39904l6.40382,16.36507h-2.62061l-1.688-4.5639
				h-6.73718l-1.688,4.5639H56.42942z M61.28239,114.20797h5.32351l-2.63961-7.19929L61.28239,114.20797z"/>
			<path id="Path_230" class="st0" d="M73.4317,120.74895v-16.36719h2.20704v16.36506L73.4317,120.74895z"/>
			<path id="Path_231" class="st0" d="M78.63492,120.74895v-16.36719h2.20705v16.36506L78.63492,120.74895z"/>
			<path id="Path_232" class="st0" d="M83.81073,107.30199v-2.47712h2.47713v2.47712H83.81073z M83.95843,120.74895v-11.40871
				h2.20704v11.40871H83.95843z"/>
			<path id="Path_233" class="st0" d="M96.49598,120.74895l-0.04854-1.3736c-0.43179,0.57295-1.01705,1.01192-1.688,1.26601
				c-0.68147,0.2774-1.41008,0.4207-2.14585,0.42199c-0.63303-0.00187-1.26057-0.11765-1.85257-0.34183
				c-1.352-0.46864-2.22138-1.78613-2.12053-3.2135c-0.04661-1.13261,0.43323-2.22312,1.29974-2.95397
				c1.06353-0.79871,2.37791-1.19015,3.70513-1.10351c0.3587,0,0.73217,0.01056,1.11619,0.03587
				c0.38401,0.02531,0.73216,0.04852,1.04234,0.07385c0.31018,0.02534,0.51485,0.0443,0.6119,0.06121v-0.40519
				c0.06667-0.70026-0.2236-1.38703-0.77225-1.82724c-0.62466-0.39958-1.35901-0.59292-2.09945-0.5528
				c-0.7003-0.02798-1.39858,0.09285-2.0488,0.35448c-0.45111,0.20103-0.88268,0.4433-1.2892,0.72372l-1.02967-1.49598
				c1.31661-1.01311,2.95382-1.51865,4.61243-1.42425c1.24384-0.06787,2.47102,0.31075,3.46038,1.06765
				c0.86746,0.76014,1.33479,1.87862,1.26598,3.02995v7.06635c0,0.16246,0,0.36082,0.02532,0.5887L96.49598,120.74895z
				 M96.42212,116.65134v-1.29974c-0.18385-0.05029-0.37289-0.07933-0.56336-0.08651
				c-0.29398-0.02534-0.62526-0.04994-0.9938-0.07386c-0.36714-0.02531-0.72373-0.03587-1.06554-0.03587
				c-0.64543-0.03561-1.28986,0.08603-1.87789,0.35448c-0.38508,0.1878-0.69628,0.499-0.88408,0.88409
				c-0.14992,0.32721-0.22901,0.68243-0.2321,1.04234c-0.03057,0.54179,0.20584,1.06423,0.633,1.39891
				c0.51846,0.35564,1.14054,0.52859,1.76817,0.49163c0.55069,0.00538,1.09422-0.12505,1.58249-0.37978
				c0.46306-0.23721,0.86576-0.57714,1.17737-0.99379C96.25729,117.58119,96.41747,117.12363,96.42212,116.65134z"/>
			<path id="Path_234" class="st0" d="M103.76065,120.74895h-2.20914v-10.68497c0-0.15473-0.00773-0.396-0.02322-0.72373h2.10999
				l0.07386,1.71752c0.23062-0.31696,0.49369-0.60902,0.78492-0.87141c0.83192-0.75116,1.92229-1.15116,3.0426-1.1162
				c1.24786-0.099,2.4712,0.38567,3.31268,1.3124c0.76282,1.0095,1.14468,2.25593,1.07821,3.51945v6.84481h-2.20915v-6.67388
				c0.07121-0.84086-0.17827-1.67757-0.69841-2.34209c-0.50443-0.5122-1.20437-0.78342-1.92222-0.74482
				c-0.72042-0.03902-1.42939,0.19279-1.98762,0.64987c-0.50272,0.45097-0.86524,1.03687-1.04445,1.688
				c-0.20499,0.69318-0.30805,1.41246-0.30594,2.13529v5.29818L103.76065,120.74895z"/>
			<path id="Path_235" class="st0" d="M123.46161,117.75486l1.3504,1.42212c-0.52972,0.58909-1.17648,1.06124-1.89898,1.38626
				c-0.80931,0.36382-1.68913,0.54395-2.57628,0.5275c-1.1106,0.02966-2.20857-0.24156-3.17764-0.7849
				c-0.87763-0.50828-1.59595-1.25145-2.07413-2.14585c-0.50457-0.96455-0.75783-2.04077-0.73638-3.12912
				c-0.01262-1.06265,0.249-2.11057,0.7596-3.0426c0.49884-0.9078,1.23088-1.66604,2.12054-2.1965
				c0.939-0.55486,2.01324-0.83893,3.10378-0.8208c0.87852-0.01825,1.7503,0.15754,2.5531,0.51485
				c0.7227,0.33033,1.36926,0.8066,1.89897,1.39891l-1.44746,1.39682c-0.3399-0.42155-0.76665-0.76482-1.25123-1.00648
				c-0.54437-0.2566-1.14122-0.38232-1.74286-0.36713c-0.71745-0.01894-1.42355,0.18207-2.02348,0.57601
				c-0.55856,0.37669-1.00419,0.89817-1.28918,1.50864c-0.29771,0.63709-0.44843,1.33294-0.44099,2.03613
				c-0.0028,0.69256,0.15235,1.37666,0.45364,2.00026c0.28983,0.6142,0.73403,1.14273,1.28918,1.53397
				c0.59163,0.40293,1.2953,0.60896,2.01083,0.5887c0.62225,0.01076,1.23893-0.11906,1.80403-0.37978
				C122.65643,118.53648,123.10584,118.18876,123.46161,117.75486z"/>
			<path id="Path_236" class="st0" d="M135.45901,117.75695l1.25122,1.32509c-0.267,0.28751-0.56329,0.54633-0.88409,0.77225
				c-0.50882,0.36298-1.06648,0.65209-1.65634,0.85876c-0.79321,0.27177-1.62837,0.40036-2.4666,0.37978
				c-1.08887,0.02286-2.16426-0.24362-3.11646-0.77225c-0.89035-0.50515-1.61797-1.254-2.09734-2.15851
				c-0.51468-0.98706-0.77231-2.0879-0.74903-3.20085c-0.01514-1.05048,0.2337-2.08796,0.72372-3.01727
				c0.467-0.883,1.16208-1.6247,2.01292-2.14798c0.88943-0.53976,1.91371-0.81632,2.95396-0.79758
				c1.14888-0.05489,2.28221,0.28294,3.2135,0.95792c0.81978,0.63928,1.44102,1.49836,1.79138,2.47711
				c0.38213,1.0455,0.57367,2.15104,0.56549,3.26415h-9.00545c0.00658,0.64021,0.19379,1.26555,0.54015,1.80402
				c0.33813,0.5275,0.80696,0.95854,1.36096,1.25123c0.56137,0.30219,1.18973,0.45818,1.82724,0.45364
				c0.82544,0.0302,1.64607-0.13841,2.39273-0.49163C134.62032,118.48232,135.07553,118.1574,135.45901,117.75695z
				 M128.0002,114.05182h6.72243c-0.04688-0.83632-0.37563-1.6321-0.93262-2.25771c-0.60863-0.6434-1.47061-0.98477-2.35474-0.93262
				c-0.63655-0.01706-1.26514,0.14446-1.81459,0.46629c-0.48578,0.28848-0.88794,0.69865-1.16681,1.19003
				c-0.26723,0.47266-0.42244,1.00036-0.45367,1.54244V114.05182z"/>
		</g>
		
			<linearGradient id="Path_237_1_" gradientUnits="userSpaceOnUse" x1="-601.69879" y1="499.20084" x2="-601.69879" y2="501.31082" gradientTransform="matrix(119.07001 0 0 -35.75124 71771.97656 17956.49805)">
			<stop  offset="0.245" style="stop-color:#3865B0"/>
			<stop  offset="0.524" style="stop-color:#3887C8"/>
			<stop  offset="0.784" style="stop-color:#39A1DA"/>
			<stop  offset="0.941" style="stop-color:#39AAE1"/>
		</linearGradient>
		<path id="Path_237" class="st1" d="M142.27957,109.44485c-20.82993-0.05127-37.67436-16.97883-37.62309-37.80876
			s16.97884-37.67436,37.80876-37.62309c20.79446,0.05119,37.6243,16.9234,37.6232,37.71793
			c0.19728,20.6321-16.36842,37.51766-37.00053,37.71494C142.81847,109.44843,142.549,109.4481,142.27957,109.44485z
			 M142.27957,39.7034c-17.688-0.10488-32.11198,14.14905-32.21686,31.83704s14.14905,32.11198,31.83704,32.21686
			c17.688,0.10488,32.11198-14.14906,32.21686-31.83704c0.00037-0.06312,0.00056-0.12622,0.00056-0.18934
			c0.44505-17.24091-13.17067-31.57822-30.41159-32.02328C143.23035,39.69537,142.75488,39.69397,142.27957,39.7034z
			 M61.03025,109.44485c-20.82906,0.19798-37.87482-16.52683-38.07278-37.35588C22.7595,51.2599,39.4843,34.21414,60.31335,34.01618
			c0.17777-0.00169,0.35555-0.00212,0.53333-0.0013h0.19201c12.89649,0.11219,24.87546,6.69056,31.89036,17.51291l1.55506,2.42016
			h-6.98406l-0.46842-0.65409c-6.01891-8.3999-15.66667-13.44536-25.99927-13.59676
			c-17.68772,0.1434-31.91021,14.59838-31.76682,32.28609c0.14175,17.48528,14.28154,31.62507,31.76682,31.76682
			c10.27459-0.0313,19.92412-4.93867,26.00139-13.22329l0.46841-0.64987h6.75196l-1.39048,2.3653
			C85.89624,103.04687,73.88631,109.53701,61.03025,109.44485z M195.25082,108.21894V35.24078h21.29401
			c23.02631,0,36.77289,13.64106,36.77289,36.49014s-13.74869,36.48802-36.77289,36.48802H195.25082z M216.54483,102.52198
			c19.2874,0,30.80583-11.44246,30.80583-30.61172c0-19.69252-11.22725-30.98728-30.80583-30.98728h-15.32275v61.60532h15.32274
			L216.54483,102.52198z M2.0814,108.21894V35.24078h5.97127v72.97817C8.05267,108.21896,2.0814,108.21896,2.0814,108.21894z"/>
	</g>
	
		<linearGradient id="Path_238_1_" gradientUnits="userSpaceOnUse" x1="-592.32983" y1="530.09552" x2="-592.32983" y2="532.2287" gradientTransform="matrix(38.57419 0 0 -88.18599 23134.10156 46936.52734)">
		<stop  offset="0.245" style="stop-color:#3865B0"/>
		<stop  offset="0.524" style="stop-color:#3887C8"/>
		<stop  offset="0.784" style="stop-color:#39A1DA"/>
		<stop  offset="0.941" style="stop-color:#39AAE1"/>
	</linearGradient>
	<path id="Path_238" class="st2" d="M325.39279,163.50383c-0.28693-4.35078-1.02756-8.65094-1.54031-12.97432l-1.1394-6.43758
		c-0.35873-2.15219-0.81024-4.28539-1.29764-6.41016c-1.83884-8.534-4.16364-16.95602-6.96292-25.22491
		c-2.75778-8.28804-6.11896-16.35663-9.64481-24.3345c-7.28006-15.85351-15.99252-31.00918-26.02881-45.27824
		c-4.98804-7.13387-10.33893-13.99977-15.96835-20.62303c-5.60049-6.64041-11.62897-12.90775-18.04677-18.76199
		c11.04042,13.24941,21.20473,27.20496,30.42812,41.77777c4.31284,6.88911,8.50537,13.84574,12.38562,20.97117l-29.8605,69.54733
		h6.44601l10.52463-24.47587h33.7345c0.3566,0.96848,0.72797,1.93064,1.07187,2.90334
		c2.92654,8.04749,5.52817,16.21948,7.72046,24.50751c1.21744,4.11658,2.0108,8.33234,3.06793,12.49745
		c0.79968,4.21997,1.8125,8.40198,2.41171,12.65993c1.59726,8.46739,2.35901,17.05293,3.23886,25.68277
		C326.35526,180.85291,326.17477,172.15645,325.39279,163.50383z M276.90524,105.58256l13.78452-32.70482
		c3.31058,6.16116,6.16119,11.91721,8.68472,17.5129c2.50458,5.48596,4.642,10.46764,6.5051,15.18136L276.90524,105.58256z"/>
</g>
</svg>
