<svg id="Capa_1" enable-background="new 0 0 512 512" height="512" viewBox="0 0 512 512" width="512" xmlns="http://www.w3.org/2000/svg"><g><path d="m511.988 255.104c-.476-17.358-15.154-30.972-32.518-30.972h-33.5c-18.704 0-35.557-11.718-42.684-29.009-7.232-17.375-3.698-37.645 9.579-50.922l24.154-24.154c12.445-12.445 12.445-32.622 0-45.067s-32.622-12.445-45.067 0l-24.154 24.154c-13.277 13.277-33.545 16.811-50.879 9.597-17.335-7.145-29.052-23.998-29.052-42.701v-33.5c0-17.364-13.614-32.042-30.972-32.518-18.009-.494-32.763 13.957-32.763 31.855v34.163c0 18.705-11.719 35.559-29.012 42.685-17.372 7.231-37.642 3.697-50.919-9.58l-1.152-1.152c-12.278-12.278-32.284-13.03-44.894-1.093-13.083 12.385-13.297 33.036-.642 45.692l1.62 1.62c13.277 13.277 16.811 33.545 9.597 50.879-7.145 17.335-23.998 29.052-42.701 29.053h-33.5c-17.364 0-32.042 13.614-32.518 30.972-.494 18.009 13.957 32.763 31.855 32.763h34.164c18.705 0 35.559 11.719 42.685 29.012 7.231 17.372 3.697 37.642-9.58 50.919l-1.152 1.152c-12.278 12.278-13.03 32.284-1.093 44.894 12.385 13.083 33.036 13.297 45.691.642l1.621-1.62c13.277-13.277 33.545-16.811 50.878-9.597 17.335 7.145 29.052 23.998 29.052 42.701v33.5c0 17.364 13.614 32.042 30.972 32.518 18.009.494 32.763-13.958 32.763-31.855v-34.165c0-18.704 11.718-35.557 29.009-42.684 17.376-7.232 37.645-3.698 50.922 9.579l46.219 46.219c12.279 12.278 32.284 13.031 44.894 1.094 13.083-12.385 13.297-33.036.642-45.692l-46.688-46.688c-13.277-13.277-16.811-33.545-9.597-50.879 7.145-17.335 23.998-29.052 42.701-29.052h34.163c17.898 0 32.35-14.754 31.856-32.763zm-255.988 111.498c-60.986 0-110.602-49.616-110.602-110.602s49.615-110.603 110.602-110.603 110.602 49.616 110.602 110.603c0 60.986-49.616 110.602-110.602 110.602z"/><circle cx="256" cy="256" r="80.602"/></g></svg>