<svg id="Layer_1" xmlns="http://www.w3.org/2000/svg" xmlns:xlink="http://www.w3.org/1999/xlink" viewBox="-351.5 228.4 253 97.6"><style>.st0{clip-path:url(#SVGID_2_);fill:url(#SVGID_3_)}.st1{clip-path:url(#SVGID_5_);fill:url(#SVGID_6_)}.st2{clip-path:url(#SVGID_8_);fill:url(#SVGID_9_)}.st3,.st4{clip-path:url(#SVGID_11_);fill:#8c2416}.st4{clip-path:url(#SVGID_13_)}.st5{clip-path:url(#SVGID_15_)}.st5,.st6,.st7{fill:#8c2416}.st6{clip-path:url(#SVGID_17_)}.st7{clip-path:url(#SVGID_19_)}.st10,.st8,.st9{fill:#8c2416}.st8{clip-path:url(#SVGID_21_)}.st9{clip-path:url(#SVGID_23_)}.st10{clip-path:url(#SVGID_25_)}.st11{clip-path:url(#SVGID_27_)}.st11,.st12,.st13{fill:#8c2416}.st12{clip-path:url(#SVGID_29_)}.st13{clip-path:url(#SVGID_31_)}.st14{clip-path:url(#SVGID_33_)}.st14,.st15,.st16{fill:#8c2416}.st15{clip-path:url(#SVGID_35_)}.st16{clip-path:url(#SVGID_37_)}.st17{clip-path:url(#SVGID_39_)}.st17,.st18,.st19{fill:#8c2416}.st18{clip-path:url(#SVGID_41_)}.st19{clip-path:url(#SVGID_43_)}.st20{clip-path:url(#SVGID_45_)}.st20,.st21,.st22{fill:#8c2416}.st21{clip-path:url(#SVGID_47_)}.st22{clip-path:url(#SVGID_49_)}.st23{clip-path:url(#SVGID_51_)}.st23,.st24,.st25{fill:#8c2416}.st24{clip-path:url(#SVGID_53_)}.st25{clip-path:url(#SVGID_55_)}.st26{clip-path:url(#SVGID_57_)}.st26,.st27,.st28{fill:#8c2416}.st27{clip-path:url(#SVGID_59_)}.st28{clip-path:url(#SVGID_61_)}.st29{clip-path:url(#SVGID_63_)}.st29,.st30,.st31{fill:#8c2416}.st30{clip-path:url(#SVGID_65_)}.st31{clip-path:url(#SVGID_67_)}.st32{clip-path:url(#SVGID_69_)}.st32,.st33,.st34{fill:#8c2416}.st33{clip-path:url(#SVGID_71_)}.st34{clip-path:url(#SVGID_73_)}.st35{clip-path:url(#SVGID_75_)}.st35,.st36,.st37{fill:#8c2416}.st36{clip-path:url(#SVGID_77_)}.st37{clip-path:url(#SVGID_79_)}.st38{clip-path:url(#SVGID_81_)}.st38,.st39,.st40{fill:#8c2416}.st39{clip-path:url(#SVGID_83_)}.st40{clip-path:url(#SVGID_85_)}.st41{clip-path:url(#SVGID_87_)}.st41,.st42,.st43{fill:#8c2416}.st42{clip-path:url(#SVGID_89_)}.st43{clip-path:url(#SVGID_91_)}.st44{clip-path:url(#SVGID_93_)}.st44,.st45,.st46{fill:#8c2416}.st45{clip-path:url(#SVGID_95_)}.st46{clip-path:url(#SVGID_97_)}.st47{clip-path:url(#SVGID_99_)}.st47,.st48,.st49{fill:#8c2416}.st48{clip-path:url(#SVGID_101_)}.st49{clip-path:url(#SVGID_103_)}.st50{clip-path:url(#SVGID_105_)}.st50,.st51,.st52{fill:#8c2416}.st51{clip-path:url(#SVGID_107_)}.st52{clip-path:url(#SVGID_109_)}.st53{clip-path:url(#SVGID_111_)}.st53,.st54,.st55{fill:#8c2416}.st54{clip-path:url(#SVGID_113_)}.st55{clip-path:url(#SVGID_115_)}.st56{clip-path:url(#SVGID_117_)}.st56,.st57,.st58{fill:#8c2416}.st57{clip-path:url(#SVGID_119_)}.st58{clip-path:url(#SVGID_121_)}</style><defs><path id="SVGID_1_" d="M-300.6 312.7c.6.4.7.8.5 1.5-.3-.5-.6-.9-.5-1.5m-5.7-1.1l.7-.7c-.1.4-.2.5-.7.7m2.2 2.4c-.2-.1-.3-.3-.2-.6 0-.3-.1-.6-.3-.9-.2-.2-.2-.4-.2-.6.2-.5 0-.9-.2-1.3v-.1c.2-.4.4-.7.9-.7.3 0 .4.2.7.8.3-.2.6-.5.9-.7.3.2.4.4.2.6-.1.2 0 .4.1.5h.1c.1 0 .3-.1.4 0 .2.1 0 .3 0 .4-.1.2-.2.3-.3.5-.4.5-.7 1-.7 1.6-.1.4-.4.7-.7.7-.4 0-.5-.1-.7-.2m.7-4.1c-.2 0-.4-.2-.4-.5 0-.2.1-.3.4-.3.3 0 .5.2.5.4.1.2-.2.4-.5.4.1 0 0 0 0 0m-5.7 2.9c-1.1-1.1-2.3-2.2-3.4-3.3-.1-.1-.1-.2-.2-.3h.2c1.2.7 2.5.8 3.8.8h2.4c.2 0 .4 0 .7.1-.2.3-.4.5-.5.7-.7.7-1.5 1.4-2.2 2.1-.1.1-.2.2-.3.2-.3-.1-.4-.2-.5-.3m7.4-3.9s-.1-.1 0-.1c.1-.1.2-.2.3 0 0 .1-.1.2-.2.2 0-.1-.1-.1-.1-.1m2.6-.6c.2-.1.4 0 .6.1.1.2.1.4 0 .6-.5-.1-.5-.4-.6-.7m-3.7-.3c.2.1.3.2.2.5-.3-.1-.4-.3-.2-.5m-8.2 1.1c-.2 0-.4-.1-.6-.2-.3-.2-.3-.5 0-.6.3-.2.6-.3.9-.5.4-.2.8-.2 1.2.1.6.3 1.1.7 1.7 1.1l.3.3v.1h-1.4c-.7-.1-1.4-.1-2.1-.3m7-1.5h.1c0 .2.1.3.1.5-.2-.1-.3-.3-.2-.5m4.3-.4c.2.2.2.4.1.6-.2.6 0 1.1.5 1.5.3.3.4.6.3 1-.2.4-.3.8-.5 1.2-.2-.1.1-.6-.4-.5-.2.5.2 1.1-.1 1.7-.6-.5-1.1-.9-1.2-1.6-.1-.7.3-1.3.6-1.9-.3.3-.6.5-.9.8.1-.4 1.1-2.2 1.6-2.8m-20-.1c.5.2.5.4.2.9 0-.3-.3-.6-.2-.9m13.2 2.1c-.1 0-.2-.1-.3-.1-.8-.5-1.6-1.1-2.3-1.6 0 0-.1-.1-.1-.2.1-.1.2-.1.3-.2.6-.2 1.2-.5 1.8-.7.4-.2.4-.1.6.3.3.7.3 1.4.5 2.1 0 .3 0 .4-.2.4h-.3m-11.8-2.6c.1-.1.1-.3.1-.4s.2-.2.2-.2c.1 0 .2.1.3.2.1.1 0 .2.1.4 0 .3 0 .5.1.8-.1 0-.1.1-.2.1-.4.2-.6.2-.8-.3-.1-.1-.2-.3-.3-.3-.2-.1-.3-.1-.3-.3 0-.2.2-.3.5-.2v.4h.1l.2-.2m6.2 7.1c-.1-.1-.2-.3-.2-.4-1.2-2.1-2.3-4.2-3.5-6.3-.2-.3-.3-.6-.4-1l.1-.1c.2.2.5.5.6.7.8 1.3 1.8 2.4 2.9 3.4.4.4.8.9 1.3 1.3.5.5 1 1 1.6 1.4l.1.1c.2.2.2.5-.1.6-.2.1-.4.1-.5.1-.3 0-.5 0-.7.2-.1.1-.2.1-.2.1-.1.1-.3.1-.4.1-.2.1-.4 0-.6-.2m6.5-4.8c-.1-.2-.1-.3-.1-.5-.1-.7-.2-1.4-.5-2-.1-.3 0-.4.5-.5.1.3.2.6.2.9.3-.1.7-.1.9.2.2.2.3.4.3.7 0 .6-.2.8-.9.9v.3l-.2.2-.2-.2m3.6-.7c-.4-.3-.4-.8-.1-1.1.4-.4.8-.8 1.3-1.2.3.2.2.7.6.8 0-.1 0-.2-.1-.3.1.1.2.1.1.3-.3.4-.5.9-.8 1.3-.2.3-.4.4-.6.4-.1-.1-.3-.1-.4-.2m-15.3 7.5c0-2.2-.1-4.5-.1-6.7v-1.3c0-.2.1-.4.1-.6 0-.3 0-.6-.1-.9 0-.2 0-.4.3-.5.2-.1.4 0 .5.3s.2.6.3.8c.5 1.3 1.2 2.5 1.9 3.7.5.8.9 1.6 1.4 2.4.3.4.4.9.1 1.4-.1.2-.1.4.1.6.3.3.3.4-.1.7l-1.8 1.2c-.7.5-1.5 1-2.2 1.5-.1.1-.2.2-.4.2 0-.8.1-1.8 0-2.8m22.5-9.1c.2-.2.3-.5.5-.7l.3-.3c.2-.1.3 0 .4.2.1.4.2.7.4 1.1.1.5.3 1 .4 1.5v.5c-1.7-.3-3.3-.6-4.9-.9-.1-.2 0-.4.2-.4.7-.2 1.3-.6 2-.6.4.1.6-.1.7-.4m-19.5 1l-.6-.9c-.3-.4-.6-.8-1-1.3.2-.3.4-.2.6-.2h.2c.3.2.6.4.8.5 1.1.5 2.1.9 3.2 1.3.1 0 .1.1.2.1-.4.3-.9.6-1.4.5-.1 0-.3-.2-.4-.3h-.3c-.3-.1-.4-.1-.5.3 0 .1-.1.2-.1.4-.3 0-.5-.2-.7-.4m-3.4-2.5c0 .1 0 .2-.1.4-.1-.2 0-.3.1-.4m13.9 1.8c-.2-.2-.3-.4-.6-.5-.3 0-.5-.4-.5-.7 0-.3.2-.5.5-.6.2-.1.4-.2.7-.2.2-.1.3 0 .3.2.1.5.3 1 .4 1.5.2.5.1.6-.3 1-.2-.2-.3-.5-.5-.7m5.1.6l-.1-.1c-.7-1-.6-.9-.1-1.7.1-.2.3-.4.4-.6.2-.3.4-.3.7-.1.2.2.4.2.6.2h1.3c.4 0 .7.2 1.1.5-.1.2-.2.3-.2.5-.1.3-.4.5-.8.5-.4.1-.8.2-1.3.3-.2 0-.3.1-.4.2-.3-.5.2-.9-.1-1.3-.2 0-.3.2-.3.4-.1.3-.1.6-.2 1 0 .1-.1.3-.2.4h-.1c-.1-.1-.2-.2-.3-.2m-1.4-2.2c-.2-.4.1-.8.5-.9.1 0 .3 0 .5.1s.2.4.1.6c-.1.3-.4.5-.7.8-.1-.2-.3-.4-.4-.6m-.7-1.2c.3.1.4.1.6.1v.1l-.3.3c-.1-.2-.2-.3-.3-.5m-5.9-.1c.4.3.6.7.9 1 .1.1 0 .3-.1.3-.1.1-.3.1-.5.2-.2-.5-.2-1-.3-1.5m3.8.8c0-.1.1-.3.2-.5 0-.1.1-.1.1-.1.7-.6 1.3-.4 1.6.4.1.3 0 .6-.2.9-.3.3-.7.6-1.1 1-.4-.5-.6-1.1-.6-1.7m-23.7-.5c0-.2.1-.3.3-.5.2-.1.3-.3.5-.6.3 0 .4 0 .5.3.4.9.4 1.7-.4 2.5-.2.2-.5.4-.6.7-.1.2-.3.2-.5.4 0-1 .1-1.9.2-2.8m3.4 4.8c-.6-1.1-.8-2.3-1.2-3.5 0-.2 0-.4.1-.6.3-.8.9-1.3 1.7-1.7.2-.1.5-.1.7-.1s.4.2.5.4c.2.5.5 1 .8 1.6.2.4.4.8.4 1.3 0 .3-.1.6-.3.8-.6.7-1.1 1.3-1.7 2-.2.2-.4.4-.5.4-.2-.2-.3-.3-.5-.6m20.2-5.3c-.3-.1-.3-.4-.4-.6l.1-.1c.3.1.6.2 1 .4-.3.1-.5.3-.7.3m-13.7.1c.2-.3.4-.4.7-.6.6-.3 1.2-.4 1.8-.5.2 0 .3 0 .4.2.1.1.1.3.2.5-.5.6-1.1.9-1.8.9-.4 0-.8-.2-1.3-.5m-8.3-.7c-.1-.5.2-.8.7-.6.3.1.7.3 1 .4-.4.5-.7.9-1.1 1.4-.3-.4-.5-.8-.6-1.2m-1.5 0c-.2 0-.3-.1-.3-.3 0-.3.1-.5.1-.8.3.1.6.2.9.2-.1.4-.4.5-.7.9.2 0 .2 0 0 0 .1 0 .1 0 0 0m22.6-1.5c.4-.2.6-.2.9.1.2.2.4.5.6.8 0 0 0 .1-.1.1-.5-.2-1.1-.4-1.4-1m5 2.4c.1-.4.1-.7.5-1.1.5-.4.9-.9 1.3-1.3.1-.1.2-.4.4-.2s-.1.3-.2.4-.2.2-.3.2c-.1.1-.2.3-.3.5.6.1.7-.4 1-.6.1.1.2.1.3.2.1-.2.1-.3.2-.5.1.1.2.1.2.2l.9 1.5c.1.2.3.5.4.7.1.1.1.3.1.5-.4.2-1.4.2-2.4 0-.1-.2-.1-.3-.2-.5-.1.1-.2.1-.2.1-.2.2-.4.2-.7.1-.3-.2-.6-.3-1-.2m-8.7-2.7c.4-.1.5.1.3.7-.2-.2-.4-.4-.3-.7m2 3c-.2-.1-.3-.4-.4-.5-.6-.7-.8-1.5-.5-2.4.1 0 .3 0 .4-.1.5-.2.8-.1 1 .4.1.3.1.6.2.9.1-.2.2-.4.3-.7l-.4-.4c.4-.2.6-.1 1 0l-.3.6c.5.5.6 1.1.8 1.7.1.2 0 .3-.2.4-.1 0-.1.1-.2.1-.4.1-.8 0-1.1.2-.3.1-.5-.1-.6-.2m2.9-2.9l.1-.1c.3-.2.4-.2.5.2.2.4.3.8.4 1.2h-.1c-.2-.4-.5-.9-.9-1.3m-20.6 1c-.1 0-.1 0-.2-.1-.2-.1-.4-.2-.6-.4.2-.2.3-.4.5-.6.2-.3.4-.3.8-.1.3.2.4.4.3.6-.1.3-.4.5-.6.5-.1.1-.2.1-.2.1m23.3 1.2c-.3-.1-.5-.2-.9-.4 1.1-1 2.2-1.7 3.5-2l.1.1c-.1.1-.2.3-.3.4-.2.2-.4.4-.7.6-.3.2-.5.5-.6.9s-.5.6-.8.6c-.1-.2-.2-.2-.3-.2m-12.6.9c.1 0 .3-.1.3-.2s0-.2-.1-.3l-.3-.3c1.2-.9 2.4-1.7 3.6-2.6 0 0 .1 0 .1.1s-.1.3-.1.4-.1.2-.1.3.1.2.1.2c.1 0 .2 0 .2-.1.1-.1.1-.3.2-.5s.1-.4.4-.4c.2 0 .4.1.4.4 0 .8.4 1.5.7 2.2.2.4.2.9.3 1.3.1.3-.1.6-.4.8-.6.3-1.3.6-1.9.9-.1-1.5-.6-2.9.2-4.3-.6.1-.9.4-.9.9v.8c.1.5.1.9-.1 1.3s-.2.9.1 1.4c-1.6-.5-3.1-1.1-4.6-1.7.4-.7.9-.9 1.6-.6.1.1.3.1.4.1-.2-.1-.2-.1-.1-.1m19.3-3.4c.7 0 1.3.2 1.8.4-.2.1-.5.2-.7.2-.4 0-.7-.2-1.1-.6m-1.2.3c-.3-.1-.7-.2-1-.2v-.1c.7-.1 1.3.3 2 .4-.1.1-.2.1-.3.1-.1 0-.3-.1-.7-.2m-35.3-.1c.1-.1.1-.2.2-.3.1.1.1.1.1.2 0 0-.1.1-.3.1zm15.9.3c-.1-.3-.1-.5.3-.6.5-.1 1.1-.1 1.6-.1-.4.4-.8.7-1.3.9h-.2c-.2 0-.3 0-.4-.2m.5 1.2c-.1-.3-.1-.4.2-.5l2.4-1.2c.2-.1.5-.2.9-.1-.3.3-.6.5-.9.7l-1.8 1.2c-.1.1-.2.1-.4.1-.1.1-.2 0-.4-.2m14.2-2c.3 0 .5 0 .8-.1v.1l-.5.5c-.3.2-.5.3-.8.5-.5.3-.9.5-1.5.8l-.6-1.5h.5c.9 0 1.5-.2 2.1-.3m-28.6 0c.2-.1.4-.1.6-.2.1.2.2.4 0 .6-.3 0-.5 0-.6-.4m23.4 0h-.7c.3-.3.3-.3.7 0m1.2-.1c.4-.2.6-.2.9-.1-.2.1-.3.2-.5.2-.1 0-.2 0-.4-.1m-16.8 2.4c-.2-.1-.5-.1-.7-.2-.4-.1-.6-.4-.7-.7-.1-.4-.1-.7.2-1 .2-.2.5-.4.7-.6.2-.1.3-.1.4 0 .3.5.6 1.1.9 1.6v.2c0 .5-.2.7-.6.7-.1.1-.1.1-.2 0m18.3-2.5c.4-.3.6-.1.9-.1v.1c-.3.1-.6.1-.9 0m6.7-.3c.1 0 .1 0 0 0 .4-.1.7-.2 1-.2.2 0 .4 0 .4.2-.2.2-.5.2-.7.2-.2.1-.4 0-.7-.2m-31.5 1c-.3-.3-.3-1 .1-1.2.2-.1.3-.1.4.1.1.5.2.9.3 1.4 0 0-.1 0-.1.1-.3-.2-.5-.2-.7-.4m2.6-1.3c.2.2.2.3.3.5l-.1.1c-.1-.3-.1-.4-.2-.6m13.6-.1c.1.2 0 .3-.2.3-1.1.1-2.3.2-3.4.2v-.1c.4-.2.8-.3 1.2-.2h.5c.7.1 1.3 0 1.9-.2m2.6.3c-.1 0-.1-.1-.1-.1.1-.1.2-.1.4-.2 0 .3-.1.3-.3.3.1 0 .1 0 0 0m-10.5 2.9c0-.1-.1-.2-.1-.3-.3-.5-.3-.9-.1-1.4.1-.5.3-.9.5-1.4.1-.2.3-.3.5-.2.4.1.7.2 1.1.3.1 0 .1 0 .2.1.3.2.7.3 1 .4.2.1.4.3.4.5.3 0 .4.3.5.8 0 .2 0 .3-.2.3-.4.1-.9.2-1.3.3-.4.1-.8.2-1-.3-.4.7-.7 1.3-.4 2.1.1.2.1.4.1.7-.4-.2-.1-.9-.8-.9-.2.6-.8 1-1.3 1.4-.1-.1-.2-.3-.3-.3-.1 0-.2.1-.3.1-.2-.4-.4-.9-.5-1.4-.1-.2 0-.4.2-.5.1-.1.3-.1.4-.2.3.2.3.4.3.7v.6c0 .1.1.1.2.2.1-.1.2-.1.2-.2v-.2c0-.4.2-.6.6-.6h.5c0-.3-.2-.2-.3-.3-.4-.1-.5-.3-.3-.8.2 0 .2.4.4.4-.3.2-.2.1-.2.1m-15.4-1.4c.1-.5.4-.9.8-1.1.2-.1.4-.2.5-.3.3-.2.5-.4.8-.5.3.2.3.4 0 .6l-.1.1c-.2.1-.4.2-.3.5.1.3.2.5.5.6.1 0 .3 0 .4-.1.2 0 .3-.1.5-.2-.1.3-.3.5-.5.7-.2.2-.5.3-.7.5-.5.3-1 .5-1.6.8-.4-.5-.4-1-.3-1.6m42-2c0 .4.1.7.1 1-.5.1-1 .1-1.8-.3h.1c.6 0 1.1-.4 1.6-.7m-33.7 1.8c-.3-.5-.3-1-.3-1.6 0-.2.1-.4.4-.4.1 0 .3 0 .6-.1-.1.3-.1.5-.1.7-.2.7-.1.8.5 1.1-.2.2-.4.4-.6.7-.3-.2-.4-.3-.5-.4m5.8-.4c-.2-.3-.3-.6-.5-.9-.1-.2-.1-.3.1-.4.1-.1.3-.3.5-.4.3 0 .7.1 1.1.1 0 .8-.3 1.4-.6 2-.4 0-.5-.2-.6-.4m-3.1-.3c-.1-.1 0-.2 0-.3.1-.1.2-.1.3-.2.3-.2.6-.5.8-.7.1-.1.2-.1.2-.2.4.4.5.6.2 1s-.6.7-1 1c-.2-.2-.4-.4-.5-.6m2-1.3c-.1-.1-.1-.2-.1-.3.1 0 .2-.1.3 0 .1 0 .2.1.2.2s-.1.2-.2.2c0 0-.1-.1-.2-.1m11.2.9l.5-.5c.4-.3.9-.7 1.4-1 .1.2.1.4.2.5l-.6.3c-.2.1-.3.3-.5.4-.2.2-.4.3-.7.3-.1.1-.2 0-.3 0m-13.9-.6c-.2-.3-.4-.5-.6-.8.2-.3.5-.4.8-.4.5 0 1 .1 1.6.2 0 .1 0 .2-.1.3-.2.4-.5.7-.9.9-.1.1-.2.1-.3.1-.2 0-.3-.1-.5-.3m-7.1.7c-.1-.3-.3-.6-.4-.9-.1-.2-.1-.3 0-.4.3-.2.6-.5 1-.7 0 .6.1 1 .1 1.5 0 .4-.2.7-.6.9 0-.1-.1-.3-.1-.4m38.9-2.4h1v.1c-.3.2-.5.4-.9.6 0-.2 0-.4-.1-.7m-4.2 1.6c.2 0 .3-.2.5-.3.3-.3.5-.5.7-.8.3-.3.7-.6 1.2-.6h.5c.3 0 .6.1 1 .1 0 .1.1.2.1.3.1.8.2.7-.5 1.1-.5.3-1 .3-1.6.2h-1.9m-8.9.1c.1-.9.2-1.5.4-2-.1.4 0 1.7.2 2.3h-.1c-.3 0-.6-.1-.5-.3m8.7-1v-1c.2-.2.4-.1.6 0 .4.1.4.3.2.6-.3.4-.5.8-.8 1.3h-.5c.4-.3.5-.6.5-.9m-1.1-1.1h.6c.1 0 .2.1.2.2 0 .4.1.8-.1 1.3-.3-.5-.5-1-.7-1.5m-36.5 1.3c0-.5.2-.8.6-1 .3-.2.7-.3 1.1-.4.5.5.1.9-.2 1.3.2 0 .3.1.4.1-.2.3-.4.5-.8.7 0-.2 0-.3.1-.5-.6.1-.7.7-1.3 1 .1-.4.1-.8.1-1.2m31.7.9c-.2-.1-.4-.2-.4-.4-.1-.2-.1-.4-.2-.6-.1-.4-.2-.7-.4-1.1 0-.1-.1-.2-.1-.3h1.3c.4 0 .8.1 1.2.1.6 0 1.1 0 1.7-.1.7-.1 1.2.2 1.6.8.2.3.3.6.4.9.1.1.1.3.2.4.4.5.7.7 1.1.8-.6.2-1.3.1-1.9-.1-.2-.1-.4-.1-.6-.1-.3 0-.6-.1-.9-.2-.6-.3-1.3-.6-1.9-.8-.2-.1-.4-.1-.7-.1.2.7.9.7 1.3 1.1h-.5l-1.2-.3m-32.1-2.6c0 .3 0 .3-.4.4l.4-.4m3.9 0c.1.7-.3 1.1-1.1 1.3.1-.7.7-.9 1.1-1.3m-.7-.1c0 .2-.2.3-.3.5-.2-.3-.2-.3.3-.5m24.6 3.7c-.2-.4-.4-.6-.6-1.1-.1-.2-.2-.5-.3-.7-.1-.1-.1-.3-.2-.4.5-.4 1-.7 1.5-1 .1 0 .2-.1.2-.2.3-.3.6-.5 1-.6 0 .1.1.1.1.2-.1.2-.2.4-.3.7-.1.9-.5 1.9-.3 2.3-.3.2-.5.4-.7.6 0 .1-.2.2-.4.2m-19.9-3c0-.1 0-.2.1-.3.1-.3.1-.4-.2-.5h-.2c.1-.4.3-.5.6-.3l.1.1c.4.6.5 1.3.4 2.1-.5-.2-.7-.6-.8-1.1m5 .6c-.2-.1-.5-.3-.5-.6 0-.1.1-.2.2-.3.2-.1.5-.2.8-.3.4-.1.7-.2 1.1-.5.2-.2.3-.2.6.1-.5.5-1 .9-1.5 1.4-.1.1-.2.2-.3.2h-.4m16.8-1.7c.1-.1.1-.1 0 0 .1-.1.1-.1 0 0 .1 0 .1 0 0 0m-23.1-.2c-.3.5-.9.8-.6 1.6.3-.3.5-.6.8-.9.1.2.2.3.2.5s.1.4 0 .6c-.1.3-.1.5-.1.7.1.7-.2 1.1-.8 1.3-.3.1-.8 0-1-.3-.1-.1-.1-.2 0-.3 0-.1.1-.2.2-.4v-.3h-.3c-.1 0-.1.1-.2.3-.3-1.3.4-2.3 1.8-2.8m-2.1.3c0-.2.2-.3.3-.3.4-.1.7-.2 1.2-.4-.5.4-.9.8-1.3 1.1-.1 0-.2-.2-.2-.4m25.8-.7c.1 0 .1 0 .2.1 0 .1-.1.2-.2.4h.3c.5 1 .8 2.1.8 3.3-.2 0-.3.1-.5.1h-.7c0-.4-.1-1.1-.1-1.4 0-.1 0-.2-.1-.3v-1c.1-.2.1-.5.2-.7l.1-.1c-.1-.1 0-.2 0-.4m-28.1-.4c.3.8.1 1.1-.6 1.5l-.9.3c-.1-.8.4-1.4 1.5-1.8m-2-.4c.1.5.1.9-.1 1.3-.1.2-.2.4-.4.4s-.3.2-.4.3c-.3.3-.6.6-1 .8-.1.1-.3.1-.5.2l-.1-.1c.2-.4.4-.9.6-1.3.2-.4.3-.8.5-1.1.1-.2.2-.3.4-.2h.3c.3.1.5 0 .7-.3m2.6 1.4c0-.4 0-.9.1-1.3 0-.3.2-.6.5-.6.2 0 .3.2.4.6 0 .5 0 .9-.3 1.4-.4 0-.5-.1-.7-.1m2.3-.8c.1-.1.3-.2.4-.4.1-.2.3-.3.3-.5.1-.2.2-.2.3-.3.2 0 .3.1.4.2.2.4.1.7-.4.8-.3.2-.6.2-1 .2.1.1 0 0 0 0m2-1c.2-.1.3-.1.5-.2s.4-.1.5.1c.2.2.4.2.7.1.5-.2 1.1-.2 1.6 0 .4.1.8.2 1.2.1.4 0 .8 0 1.2.2.3.1.6.2.8.2.3.1.5.2.6.5.1.2.1.4-.1.5-.3.1-.6.3-.9.4-.8.3-1.5.5-2.2 1-.2.2-.5.3-.8.2-.1 0-.1-.1-.2-.1 0-.5 0-1 .1-1.4 0-.3-.1-.4-.4-.6-.1.7-.1 1.2-.2 1.9-.4-.1-.6-.3-.8-.6l-.3-.6c-.2-.6-.5-1-1.2-.9 0-.3 0-.5-.1-.8m24.6 2.2c-.3 0-.5-.1-.8-.2-.2-.1-.3-.3-.2-.6 0-.2.2-.3.4-.3.3 0 .5-.3.8-.4.8-.4 1.5-.8 2.3-1.2.2-.1.3 0 .4.1.6.7 1.1 1.5 1.4 2.4-1 .1-2 .2-3 .2h-1.3m-27.7-2.2c-.1-.5.2-.8.7-.7.4.1.7.2.9.5-.4.5-.8.9-1.3 1.4-.1-.5-.2-.9-.3-1.2m-3.3 1.1c.1-.4.1-.7.2-1.1.1-.5.7-.9 1.2-.9.1 0 .2.1.3.2.2.2.1.7-.1.9-.6.3-1.1.6-1.6.9 0 .1 0 0 0 0m29.4-2.3c0 .1 0 .1 0 0 0 .1 0 .1 0 0m-20.1.8c0-.2.1-.4.3-.4.5-.2.9-.4 1.4-.6.2-.1.5-.1.6.1.3.3.7.5.9.9.1.2.1.4.2.5h-.8c-1 0-2.1-.2-2.6-.5m16.7 2.6c.3-1.3.6-2.6 1.1-3.7 0 .2.1.3.1.4.1.5.3 1 .6 1.4.3.4.5.9.8 1.3-.3.2-.6.3-.9.5l-1.8 1.2c0-.4 0-.8.1-1.1m-23.1-3.6c0-.1-.1-.3 0-.4.1-.1.3-.3.5-.3.2-.1.3.1.4.3.1.2 0 .3-.2.4s-.3.2-.5.3c0-.1-.1-.2-.2-.3m33.1 3.5c-.1-.1-.2-.2-.2-.3-.2-.3-.4-.6-.6-1-.3-.5-.5-.9-.8-1.4-.3-.5-.2-.7.3-1 .4-.2.9-.4 1.4-.7.1.2.2.3.2.5.1.6.2 1.3.2 1.9.1.5.1.9.2 1.4 0 .2 0 .4-.2.5-.1 0-.2.1-.3.1 0 .1-.1.1-.2 0m-14 .3c-.4-.4-.9-.8-1.3-1.2-.2-.1-.4-.3-.5-.4-.3-.2-.3-.3 0-.6.5-.5.8-1.1 1.1-1.7.1-.3.3-.6.4-.8h.1c.2.5.5 1 .7 1.5.3 1 .7 2 1.1 3 .2.4.2.8.3 1.2s.3.7.5 1c-.5.4-.6.4-.9.1 0 .3-.2.3-.3.3-.7-.2-1.3-.1-1.9 0h-.2c-.6-.1-1.2 0-1.8 0-.4 0-.5-.1-.7-.5-.1-.1-.1-.2-.2-.4-.5-.7-.9-1.4-1.2-2.1-.1-.1-.2-.3-.3-.4-.2-.3-.4-.6-.3-.9 0-.7 0-1.5-.3-2.2v-.3c.2.1.3.2.4.3.5.4 1.1.9 1.6 1.3l.1.1c.5.5 1.1.8 1.6 1.3.2.2.4.4.6.5.4.4.8.7 1.1 1.1.4.4.7.8 1.1 1.2l.7.7c-.4-.8-.9-1.5-1.5-2.1m20.6-1.8l.3-.3c1.1-.9 2.3-1.8 3.4-2.8 0 0 .1 0 .2-.1v1.9c-1.3.5-2.6.9-3.9 1.3 0 .1 0 .1 0 0m-40-2.9c-.2-.1-.1-.4-.2-.6.3.1.5.2.7.5-.1.1-.2.2-.3.2 0-.1-.1-.1-.2-.1m25.7-.7c.3.3.5.7.6 1 .1.6.4 1.2.6 1.8 0 .1 0 .1.1.2 0 .3-.1.5-.1.8 0 .2-.1.3-.1.5-.1 0-.3.1-.4.1-.2-.4-.4-.7-.6-1.1-.4-.7-.7-1.5-.9-2.4 0-.1 0-.2-.1-.3 0 .1.1.2.2.2.4 0 .3-.6.7-.8m-4.9 0l-.1-.1.1.1m.9 6.8c-.1-.2-.2-.4-.2-.6-.2-1-.8-1.9-1.2-2.8-.3-.9-.6-1.9-.9-2.8-.1-.2-.1-.4-.1-.6.3 0 .6 0 .9-.1 0 .1.1.2.1.2.1.3.2.4.5.5.1.7.4 1.3.7 1.9.5 1.3 1 2.7 1.4 4-.3.2-.6.5-1 .7 0-.2-.1-.3-.2-.4m-20.3-6.2c.4-.4.9-.5 1.3-.8.1.5-.1.8-.9 1.3-.2-.2-.3-.3-.4-.5m38 2.9c.2-.1.3-.2.4-.3.6-.5 1.2-1.1 1.8-1.6.3-.3.7-.6 1-.9.3-.3.6-.7 1-1 .1.2.2.3 0 .5-1.3 1.1-2.5 2.1-3.8 3.2-.1.1-.1.3-.3.3 0-.1-.1-.1-.1-.2m-2.1-3.9c.2.6.4 1.2.5 1.7.2.7.3 1.5.4 2.2 0 .2 0 .4-.2.6-.4.4-.8.8-1.3 1.2 0 0-.1.1-.2.1-.5 0-.9-.1-1.4-.2-.4-.1-.5-.3-.5-.7v-.6c-.3-1-.2-2-.4-2.9-.1-.3.1-.5.3-.6.5-.2 1-.5 1.5-.7h.4c.1 0 .2.1.4.1s.3-.1.5-.2m-12.9-.2c.1.2.1.4.2.7-.1-.2-.1-.4-.2-.7m-13.1 4.5c-.5-.8-1-1.6-1.6-2.3-.2-.2-.3-.5-.7-.5-.1 0-.1-.1-.2-.1l.2-.2c.5-.3 1.1-.5 1.6-.8.2-.1.4-.3.6-.4.3-.2.4-.2.8 0 .4.3.6.7.7 1.1.2.6.3 1.2.5 1.7.1.3.1.7.1 1 0 .4.1.8.3 1.2.5.8.9 1.7 1.3 2.6.2.4 0 .5-.4.4-.6 0-1.1-.2-1.6-.5-.3-.2-.6-.3-1-.2-.1 0-.3-.1-.4-.1-.3-.1-.5-.1-.8-.2-.1 0-.3-.1-.3-.2s.1-.2.2-.3c.3-.2.6-.5.9-.7s.5-.5.7-.8c-.2 0-.3-.1-.5-.1.1-.4.5-.3.7-.5v-.1c-.2 0-.4.1-.6.1h-.3c0 .2-.1.1-.2-.1m-15.1-1.6c.3-.7.5-1.4 1-2.1.1-.2.2-.4.2-.6.1-.2.1-.4.4-.5v.4c-.4 1-.9 2-1.3 3-.3 0-.4-.1-.3-.2m2.3-.9c-.7-.3-.7-.4-.5-1.1.1-.4.2-.7.4-1.1.1-.2.1-.3.3-.3.2 0 .4.1.5.3.1.4.2.8.2 1.1s-.1.6-.1.8c-.1.3-.3.4-.5.4-.1 0-.2 0-.3-.1m21.3-2.5c0 .1.1.2.1.2h-.3c.1 0 .2-.1.2-.2m2.2.2c.1-.2.2-.2.3-.3 0 .1-.1.2-.2.3 0 .1 0 0-.1 0m2.9-.5c.4.4.4.6.2 1-.2-.3-.2-.6-.2-1m-23.9 1.5c-.4-.1-.7-.4-.9-.8-.1-.3.1-.6.5-.7.3-.1.7-.1 1-.2.6-.2 1 0 1 .7 0 .2-.1.3-.3.4-.3.2-.6.3-.9.5-.1 0-.2.1-.2.1h-.2m-11.5-1.7c.2-.3.2-.3.5-.3-.1.3-.1.3-.3.3 0 .1-.1.1-.2 0m33.5 1.7c.6 0 .9-.3.8-.9-.1-.5-.1-1-.2-1.5 0 0 0-.1.1-.1.3.9.5 1.8.6 2.7v.7c-.2.6-.4 1.2-.5 1.9-.1.4-.2.9-.3 1.3-.1.4-.2.7-.3 1.1h-.1c-.2-.4-.3-.7-.4-1.1-.4-1.2-.7-2.3-1.1-3.5 0 0 .1 0 .1.1.1 0 .3.1.3.1.1-.1.1-.2.2-.3v-.4c0-.2.1-.4.3-.4 0 .1.2.3.5.3m-27.2-1.4c.1-.1.2-.1.3-.2.3-.3.7-.5 1-.8.2-.1.3-.3.5-.1.2.1.2.3.1.5-.1.5-.6.8-1.1.8-.3.1-.6 0-.8-.2m23-.3c-.1-.2-.1-.3 0-.5.1-.1.1-.3.2-.5.1 0 .3.1.2.2-.2.4.1.7.2 1.2-.1.1-.2.1-.2.2-.2-.2-.3-.4-.4-.6m8.7 5.3c-.1-.2-.1-.4-.2-.5v-.1c.2-.7.4-1.4.6-2 .1-.4.1-.8.1-1.3v-.7c0-.4.1-.7.4-.9.3-.2.6-.5.9-.8 0 .1.1.3.1.4.1.5.3.9.6 1.4.4.7.7 1.4 1.1 2.1.1.2-.1.5-.5.7l-1.5.9c-.1.1-.2.1-.2.2-.5.4-.9.6-1.4.6.1 0 0 0 0 0m17-5c.3-.4.7-.8 1.1-1.2.3-.3.5-.2.7.1l.1.1c.5.9 1 1.9 1.6 2.9-1.2.5-2.3.9-3.5 1.4v-.8c0-.3 0-.7-.1-1 0-.2 0-.3.2-.5.5-.4 1-.7 1.7-.7.1 0 .3-.1.4-.2.2-.1.2-.3 0-.5-.1-.1-.3-.2-.4-.3-.3.9-1.2.9-1.8 1.4-.3-.2-.2-.5 0-.7m-40.3 3.4c-.2-.2-.2-.6 0-.9.3-.4.7-.8 1-1.2.4-.4.8-.8 1.1-1.2.3-.3.4-.7.7-1.1.1-.1.1-.3.3-.5.1.2.2.3.2.5.4.8.7 1.7 1.1 2.5.2.4.2.4-.1.7-.3.3-.7.6-1.1.8-.4.2-.8.4-1.2.7-.2.2-.5.2-.8.2-.4-.1-.9-.2-1.2-.5m-1.4-4.4c-.2-.1-.3-.3-.1-.6.2.2.3.3.4.5-.1.1-.1.2-.2.2l-.1-.1m24.7-.6c.1.4.2.9.1 1.1-.1.2 0 .5 0 .7v2c0 .5-.2.8-.4 1.1-.1-.5-.3-1-.5-1.4 0-.3 0-.5-.2-.7-.3-.3-.3-.7-.1-1.1.3-.5.6-1 1-1.6v.1c0-.1 0-.2.1-.2m-31.8.2c.4-.2.7-.3 1.1-.4.2.2.1.4 0 .6s-.3.3-.5.4-.5.2-.8.4c-.3-.5-.2-.8.2-1m21.7-.7c-.1.4-.2.7-.5 1l-.1.1c-.1.1-.2.2-.1.3.1.1.3.1.4 0 .2-.1.4-.3.6-.4 0 0 .1 0 .2-.1.3.3-.1.6-.1.9.5.1.6.4.6.8 0 .1 0 .1.1.2v.1c.1.4 0 .8-.3 1.2-.1.2-.1.4-.2.5-.2.4-.3.9-.6 1.3-.1.2-.4.4-.7.5-.2.1-.4 0-.5-.1l-.7-.7c-.6-.6-1.2-1.1-1.8-1.7l-.9-.9c.1-.2.2-.3.3-.5.1-.1.2-.2.2-.3.2-.3.4-.5.7-.5.4-.1.9-.3 1.3-.4h.2c.2-.1.4-.2.6-.2.5-.4.9-.7 1.3-1.1m-9.8.5c.3-.2.6-.4 1-.6.1-.1.4 0 .5.1.2.1.5.3.7.5.5.6 1.1 1.1 1.6 1.7-.6.7-1.5.8-2.1 1.4-.2-.2-1.2-2.1-1.7-3.1m-11.8-.4c.1-.2.2-.3.6-.2-.2.2-.3.3-.6.2.1.1.1.1 0 0m24.8 1.3c-.1-.2-.1-.5 0-.7l.6-.9c.3.6.3 2 .1 2.6-.2-.3-.5-.7-.7-1m-29.8-1c0-.8.3-1.1 1.2-.8-.2.3-.4.5-.7.8-.1.1-.3.1-.5.2v-.2m49.6 4.7c.7-1.2 1.4-2.5 1.9-3.8.2-.5.5-.9.8-1.4.1-.1.2-.2.3-.4.1.6.1 1.2.2 1.7.1.6-.1 1.2-.5 1.6-.7.7-1.5 1.4-2.2 2.1-.2.2-.4.3-.6.5 0-.1 0-.2.1-.3m-39.9-5.2c.3-.5.6-.6 1-.2.4.3.6.8.7 1.2 0 .2 0 .3-.2.4-.3.1-.7.2-1 .3-.4.1-.5 0-.7-.3-.1-.2-.2-.3-.2-.6-.5.2-.2.7-.4 1-.5-.6-.4-1.5.3-2.3.2.1.1.3.1.5s-.1.4.2.6c0-.2.1-.4.2-.6m-9.5 1.1c.2-.1.4-.2.5-.5l.1-.1c.4-.3.8-.5 1.2-.8.3-.2.6-.3 1-.2.2.1.4.1.7.1.2 0 .3.1.5.1-.2.5-.5.7-1 .9-.6.2-1.3.4-1.9.5l-1.5.3c0-.1.2-.2.4-.3m11.7-.9c-.2-.1-.2-.3 0-.5.1-.1.3-.2.4-.3 0 .4.1.7.1 1-.1 0-.3-.1-.5-.2m15.9-.8c0 .3-.1.5-.3.7 0-.4 0-.6.3-.7m-1.5-.1c.1 0 .2 0 .3.1.1.1.1.3.1.4l-.3.3-.9.9c-.1.1-.2.1-.3.2-.3.1-.6.2-.9.2-.2.1-.4.1-.6.2s-.3.1-.5.2c.1-.1.2-.3.3-.4.4-.5.8-.9 1.2-1.4 0-.1.1-.2.2-.3.1 0 .2 0 .3.1.1-.1.1-.1.1 0 .3-.2.7-.3 1-.5M-328 294l-.3-.3c-.2-.2-.1-.3 0-.5.2-.2.4-.5.6-.7.2-.1.2-.3.2-.5-.1-.4-.1-.8-.2-1.2-.1-.2 0-.4.2-.5.7-.3.8-.7.6-1.4-.1-.4-.1-.7-.2-1.2.3-.1.6-.2.9-.2.1 0 .3.1.4.2.5.3.9.7 1.4 1 .2.1.5.2.8.3-.2.5-.3.9-.7 1.3-.4.5-.8.9-1.2 1.4-.2.3-.4.6-.7.8-.5.5-1 .9-1.4 1.4-.1.1-.2.1-.2.1 0 .1-.1.1-.2 0m23.9-6.6c.4.5.3 1.3-.2 2.3-.4-.8-.3-1.6.2-2.3m-2.2 0v.9c-.3-.5-.3-.6 0-.9m4.9 1c-.2-.3-.3-.7-.4-1.1v-.2c.4.6 1 1.2 1.9 1.3.8.1 1.3 1.3 1.9 1.8 0 .2.1.3.1.5.1.5.3.9.6 1.2l.3.3h-.1l-.2.2c-.5.3-.9.5-1.4.8-.3.2-.5.1-.7-.2-.1-.1-.1-.2-.2-.3-.4-.7-.7-1.4-1.1-2.1-.1-.2-.2-.4-.2-.6 0-.3-.1-.6-.2-.8h.1c.1-.1.1-.2-.1-.1-.1-.3-.2-.5-.3-.7m-1.9-1c.2-.1.4-.3.5-.4.1.1.2.2.2.3.1 0 .1.1.1.2 0 .2.1.3.1.4.2.4.5.8.7 1.2-.2.1-.5.3-.8.5 0-.1-.2-1.6-.2-1.7-.1 0-.1.2-.2.3-.1-.2-.1-.3-.2-.4-.1-.1-.2-.2-.2-.4m-35.9.2c.7-.2 1.4-.4 2-.6-.3.5-.8.7-1.3.7-.2 0-.5 0-.7-.1m6.1-.9c.2.3.2.4-.4.7 0-.4.1-.6.4-.7m3.4.2c.1-.1.1-.3.3-.3.1 0 .3.2.4.3.1.2.1.4-.1.5-.2.1-.4.2-.5.3-.1-.1-.2-.3-.2-.4-.4.1-.2.7-.7.7-.1-.5.2-.8.5-1.1.1.2.2.2.3.2-.2.1-.1 0 0-.2m-7.3.9c.1-.5.6-.9 1.5-1.2 0 .3.1.5.1.7 0 .4-.2.6-.5.6h-.1c-.3 0-.6-.1-1-.1m22-1.1c0-.1.1-.3.1-.4 0 0 .1 0 .1.1l-.2.3c.1.1.1 0 0 0m-9 1.9c-.3-.2-.6-.3-.8-.5-.2-.1-.3-.2-.5-.3-.2-.1-.2-.3-.1-.4.1-.2.2-.2.4-.2.8 0 1.6-.2 2.3-.4.5-.2 2-.3 3.1-.5.1 0 .1.1.2.2 0 .6.1 1.2.2 1.9s.5 1.4.6 2.2c-.1-.1-.2-.1-.3-.2-.2-.2-.5-.4-.7-.6-.4-.5-.9-.8-1.4-1.2h-1.3c-.3.3-.6.4-.9.4-.3-.2-.5-.2-.8-.4m-7.3-1.9c.1-.2.1-.4.2-.6.1.3.1.5 0 .6s-.1.2-.1.2c-.1.8-.6 1.4-1 2-.2.3-.3.3-.5 0-.1-.1-.1-.1-.1-.2.2-.2.3-.4.5-.7h-1.1c.2-.4.4-.8 1-.6.1-.2.1-.3.2-.4l.3-.3c.2.2.3.3.4.3 0 .1.1-.1.2-.3m.7 0c-.1-.2-.1-.2.2-.7 0 .2-.1.5-.1.7h-.1m26.9-.7c.4-.1.6 0 .6.6-.3-.1-.4-.2-.6-.6m-30.6.2c.3-.1.5-.2.8-.3 0 .4-.2.6-.5.7l-.9.3c.1-.4.3-.6.6-.7m1.8-.5c.2 0 .5-.1.7-.1-.1.2-.3.2-.4.2-.1 0-.2-.1-.3-.1m32.1.5c0-.3.1-.5.3-.7.2.2.4.4.6.5.9.7 1.4 1.6 1.4 2.7v1c-.5-.4-1.2-1.9-1.9-1.8-.3.1-1-.6-1.6-1.4 0-.1.1-.2.1-.2.1 0 .3 0 .4.1s.2 0 .3-.2c.1-.1.1-.2.3-.2 0 .1.1.2.1.2m-26.6.7c.4-.1 2-.5 2.6-.6 1-.2 2.5-.9 2.5-.9.2 0 .4 0 .5.1.4.2.8.4 1.2.5.1 0 .1.1.2.1-1.4.2-3.1.4-3.8.6-1.1.3-2.2.3-3.3.5.1-.1.1-.2.1-.3m23.1-1.4c.3-.3.3-.3.5 0h-.5m-15.5.5c.4-.2.8-.4 1.1-.7.1-.1.3-.2.5-.3h.2c-.1.1-.2.1-.3.2-.1.2-.3.3-.3.5v.2c0 .4.3.5.7.4.1 0 .2-.1.3-.2.3-.2.6-.4.9-.7s.7-.4 1-.1c.2-.1.4-.1.6-.2v.2c-.3.5-.6 1-1 1.3-.2.2-.5.3-.9.3-.2 0-.5-.1-.6.2-.1.3.1.4.3.6.3.3.7.6.9 1 0 .1.1.1.1.2-.5.7-1.1 1.4-1.7 2.1-.1.1-.2.2-.2.4 0 0 0 .1-.1.1-.2-.1-.3-.4-.4-.6 0-.1-.1-.2 0-.3-.1-.2-.1-.6-.1-.9l-.3-1.2-.3-1.2c-.1-.3-.1-.6-.2-.9 0 0-.1-.2-.1-.3h1.2v-.3c-.4.1-.8.2-1.3.2 0 .1 0 0 0 0m32.9 3.8c-.1-.4-.1-.9-.2-1.3 0-.4-.1-.7.1-1.1.2-.4.2-.5-.4-.7-.1-.6-.2-1.3-.3-2h.1c.1.1.2.1.2.2.3.6.7 1.2 1 1.7.3.5.6 1.1 1 1.6.2.4.2.4-.1.7-.3.2-.7.5-1 .8l-.4.4v-.3m-14.2-5.1v.3c-.2-.2-.2-.2 0-.3m-32.3 0h.4s0 .1.1.1c-.2.2-.4.3-.6.5-.3-.4-.3-.5.1-.6m-1.5.7c.1-.2.2-.4.4-.6.1-.2.3-.2.4.1.1.1.1.3.1.4s-.1.2-.2.3c-.2.1-.4.2-.8.3 0-.3 0-.4.1-.5m5.8 1.6c-.1-.3-.1-.6-.2-1 0-.2 0-.4.2-.6.4-.4.8-.6 1.4-.8.1 1-.3 1.9-.2 2.8-.1.1-.2.1-.2.1-.2.1-.4.1-.5.1-.3 0-.4-.2-.5-.6m-2.7-2.4c0 .4 0 .4-.8.5.2-.4.5-.4.8-.5m-7.5 1.4c.2-.4.4-.9.6-1.3.1-.3.3-.4.6-.3.7.1 1.5.2 2.2.1.3 0 .4.1.4.3 0 .2-.1.4-.2.6-.4.5-1 .8-1.6 1-.7.2-1.4.4-2.2.7 0-.5.1-.8.2-1.1m23.7-1.6c.1 0 .2-.1.4-.1-.1.2-.1.2-.2.2 0 0-.1 0-.2-.1m28.3-.2c1.6.8 3.1 1.6 4.7 2.5-.7.2-1.1.7-1.5 1.1l-.6.6c-1.1-1.3-1.8-2.8-2.6-4.2m-15.2.4c-.2 0-.4-.1-.6-.1v-.1c.1 0 .2-.1.3-.1.3 0 .5-.1.6-.4.1-.1.2-.1.3-.2h.2s0 .1.1.1c0 0 0 .1.1.1v.1c-.1.5-.2.6-.4.6-.2.1-.3 0-.6 0m-32.4-.6c-.1-.1 0-.2-.1-.3h.1c.1.1.2.2.2.3-.1.1-.1.1-.2.1.1 0 .1 0 0-.1m14.1 1.6c-.2-.1-.3-.2-.6-.3.3-.3 1.4-.4 1.5-1.1.1-.3.7-.7 1.4-1v.7c-.1.5 0 .7.2.9-.2.1-.4.2-.6.4-.4.4-.8.5-1.1.5-.4 0-.6 0-.8-.1m18.8-2.2c-.4.1-.7.1-1 .2.3-.5.6-.6 1-.2m-23.1.6c1.4-.3 2.8-.6 4.2-.7.2 0 .4-.1.6-.2l.9-.3c.3-.1.5-.1.6.1-.5.1-1.1.5-1.4 1.3-.2.7-1.1.7-1.5 1.1-.1 0-.2-.1-.3-.1-.3-.1-.6 0-.8.1-.1.1-3.7 1.3-4.5.9.1-.5.1-1 .2-1.5 0-.2.1-.4.4-.3h.1c.5-.1 1-.2 1.5-.4m-13-.3c.8-.4 1.7-.7 2.6-1.1 0 .3.1.6.1.8 0 .4-.1.5-.5.5h-.6c-.5.1-1.1.1-1.6-.2m4.3.5c.7-.8 1.3-1.6 2.1-2.2.1 0 .2-.1.2 0 .1.1.1.2.1.3s-.1.3-.2.4c-.2.4-.2.5.2.5v.8c0 .2-.2.3-.3.5-.4-.2-.4-.3-.2-.5.1-.1.2-.2.2-.3v-.3h-.3c-.1.1-.2.2-.2.3-.3.4-.6.6-1 .6-.2 0-.4-.1-.6-.1m30.9-2.6c.2-.1.2-.1.3 0-.1.1-.1.1-.3 0 .1.1.1.1 0 0m-28.3-.2c.2-.1.4-.1.4.1 0 .1-.1.2-.1.2h-.1c-.1 0-.1-.2-.2-.3m.8 1.1c.1-.3.2-.6.2-.9 0-.1 0-.1.1-.2.6-.5 1.5-.4 1.8.3.2.5.4 1 .6 1.6s.1.8-.5 1c-.3.1-.6.3-1 .4-.1 0-.3.1-.4.1s-.3 0-.4.1c-.3.2-.4.1-.6-.1-.1-.1-.1-.2-.1-.3.1-.2.3-.5.4-.7 0-.1.1-.2.1-.2-.1-.2 0-.3.1-.5s.2-.3 0-.5c-.1-.1-.2-.1-.3-.1m3 .8c-.2-.8-.5-1.5-.9-2.3.7-.1 1.3-.2 2 0 .2 0 .4.1.5.2l1.2.9.9.6c.2.2.5.3.7.5v.1c-.3.1-.6.2-.9.2-1 .2-1.9.3-2.9.4h-.2c-.2-.1-.3-.2-.4-.6m-7.3-.5c-.2-.3-.1-.6.2-.7.7-.3 1.3-.8 2-1.2l.1-.1c.3-.2.4-.2.6-.1.2.2.2.5 0 .8l-.1.1c-.6.6-1.2 1.1-1.8 1.7-.2.2-.3.3-.6.4-.1-.3-.2-.6-.4-.9m32.8-2v-.2c.2-.1.3 0 .4.1l-.2.2c-.1 0-.1 0-.2-.1m-1.9-.3h.3l-.1.1s-.1 0-.2-.1m-31.9-.4c.1.2.2.4.2.6-.3-.2-.2-.4-.2-.6m-4.9 3.6c.8-1.5 1.9-2.7 3.2-3.7v.1c-.3 1-.8 2-1.4 2.9-.3.5-.7.8-1.2.8-.2.1-.4 0-.6-.1m2.7-1.3c.2-.3.3-.6.3-1 0-.1.1-.3.2-.4.2-.3.3-.5.5-.8l.3-.3c.1.2.3.4.4.6l.6 1.2c.1.3.1.5-.1.6-.7.3-1.5.6-2.2.9h-.2c.1-.3.1-.6.2-.8m2.7-1.8c-.1-.4.1-.7.6-.8.7-.1 1.4-.1 2.1 0 .2 0 .3.2.2.4 0 .1-.1.2-.2.3-.8.4-1.5 1-2.4 1.2-.1-.3-.2-.7-.3-1.1m14.1-.5c.4-.1.7-.2 1.1-.3.4-.1.6 0 .6.4-.2.2-.6 0-.7.4.2.1.5.1.7.2.6.1 1.2.2 1.7.4.3.1.6.2 1.1.4-.4.3-.8.3-1.2.3h-.7c-.2 0-.3 0-.5.2-.1.1-.2.2-.3.2l-1.8.6c-.2.1-.4.1-.6.1-.5.2-.9.2-1.4-.1-.8-.6-1.7-1.1-2.5-1.9h.3c.4 0 .7-.1 1.1-.3.5-.3 1.1-.5 1.6-.7.1.1.2.1.3.2.2.1.4.2.6.2.4-.3.5-.3.6-.3m-10.5-.1c-.1 0-.2-.2-.3-.3l.1-.1c.2 0 .3.1.5.1v.1c-.1.1-.3.3-.3.2 0 .1 0 .1 0 0m-10.9 3.8c-2-.2-4.1-.4-6.1-.8-.3-.1-.5-.1-.8-.1 0-.3.1-.5.3-.6.1-.1.3-.1.4-.1 1.4-.2 2.6-.8 3.8-1.4.3-.2.7-.4 1-.6 1.6-.9 3.3-1 5.1-.5.1 0 .1.1.2.1v.1c-.8 1.1-1.7 2.3-2.5 3.4-.3.4-.7.6-1.2.6 0-.1-.1-.1-.2-.1m38.7-4.5c.1-.1.2-.3.3-.4 0 0 .1 0 .1.1-.1.1-.2.3-.3.4 0 0 0-.1-.1-.1m-31.1-.4c.6.2 1.2.2 1.7.4v.1h-1.7v-.5zm-1.3.2c0-.2.2-.3.4-.3.3 0 .4.1.4.5 0 .2-.1.3-.3.3-.3-.1-.5-.3-.5-.5m10.6-.1c.8-.4 1.5-.3 2.2.2.2.1.4.3.6.5l-1.2.6c-.6.3-1.2.4-1.8.4-1.1 0-2.2.1-3.3.1-.4 0-.7.2-1.1.3-.3.1-.4.1-.5-.2-.1-.3-.2-.5-.4-.8.6-.4 1.3-.8 2.1-.9.4 0 .8 0 1.3.1h.7c.5 0 1-.1 1.4-.3m20.8-.3l.3-.1v.1h-.3c.1 0 .1 0 0 0m-13.2 0c.1-.1.1-.2.2-.3.4-.4.7-.4 1.2-.1.2.2.4.3.6.5-.2.1-.5.1-.7.1-.4.1-.9 0-1.3-.2m-21.5.3c-.3-.1-.5-.1-.8-.2v-.1c.6-.2 1.1-.5 1.6-.7l.1.1c.1.7 0 .9-.4.9-.1.1-.3.1-.5 0m20.2-.8c.4-.6.8-.7 1.3-.4-.2.4-.5.6-.8.6-.2.1-.4 0-.5-.2m-10.3-1.2c.3.2.3.4.3.7h-.1c-.1-.2-.1-.4-.2-.7m-4.9 1.5c-.5-.1-.6-.3-.3-.8.2-.2.5-.4.4-.7.5-.2.6-.2.8.3.1.3.2.5.3.7.1.2.2.4.3.7-.5 0-1-.1-1.5-.2m1.9-.3c-.2-.4-.4-.8-.6-1.3.5 0 .9 0 1.3.3.1.1.3.2.5.3.1-.2.1-.3.2-.4h1c.2 0 .3.1.4.3.1.3.2.7.4 1.1-.4-.1-.5-.6-1-.6 0 .5.6.6.7 1-.2.2-.4.2-.7.2-.3.1-.5.1-.7.1-.8 0-1.1-.3-1.5-1m4.1.6h-.3c-.5-.1-.6-.2-.3-.7.2-.3.2-.6.2-.9 0-.4.1-.5.6-.4.4.1.7.1 1 .4.1.1.3.1.5.2.5.1.9.3 1.4.4.3.1.5.3.7.6-.5 0-.9.1-1.4.4-.2.1-.4.1-.7.1-.5 0-1.1-.1-1.7-.1m11.4-2.5l.1-.1-.1.1c.1.1.1.1 0 0 0 .1 0 .1 0 0m-17.5-.6c.2-.1.3-.1.4.2.1.3.1.4-.2.6-.1-.3-.1-.5-.2-.8m27.3-.2c.1.1.1.1.1.2h-.1v-.2zm-22.7 1c-.2-.3-.3-.7-.5-1 0 0 .1 0 .1-.1.3.2.6.4 1 .5.2.1.3.3.2.4 0 .1-.1.2-.2.3h-.2c-.2.1-.4 0-.4-.1m-5.3-1.4c.3.1.3.1.3.5-.1-.2-.2-.3-.3-.5m2.5 1.1c-.3-.2-.3-.3-.1-.5.3-.4.6-.7 1-1 .1-.1.2-.1.3 0 .2.1.4.2.5.4.3.5.5 1 .7 1.5-.3.1-.6.1-.9 0-.3 0-.5-.1-.8 0-.2-.1-.5-.3-.7-.4m4-.4c-.2-.3 0-.4.1-.6-.2-.2-.5-.4-.2-.8.8.4 1.3 1.2 1.3 2.1-.6-.1-.9-.4-1.2-.7m-7.2.2c-.1 0-.2-.1-.4-.1s-.3-.1-.5-.1c0-.2-.2-.4-.5-.4-.6-.1-1.1-.2-1.7-.4-.3-.1-.6-.3-.9-.5v-.1c.3 0 .6-.1.9-.1h2.6c.4 0 .6.2.8.5.1.2.2.5.2.7 0 .3-.1.4-.3.4 0 .1-.1.1-.2.1m27.9-1.4c.1-.1.1-.2.2-.3 0 0 .1 0 .1.1-.1.1-.2.2-.3.2.1 0 0 0 0 0m-24.5-.4c.2 0 .4 0 .4.2-.3.3-.6.7-.9 1-.1.1-.3.3-.5.2-.2-.2-.3-.4-.3-.6 0-.4.5-.8.9-.8h.4m16.2 0l.1-.1.2.2-.1.1-.2-.2m-16.7-.4c-.2 0-.3.1-.5.1.1-.3.2-.3.5-.1m13.2-.4c.6 0 1.1.4 1.3.8l.4.4h.2c.2 0 .3.1.4.4-.4.1-.6.2-.7.1-.1 0-.2 0-.3-.1-.1 0-.2-.1-.3-.1-.3.1-.5.5-.6.7 0 .3.1.5.2.7v.1c.2.1.4.1.5.2.1 0 .1.1.1.1h.1c.2.1.5.2.7.4-.4.1-.8.1-1.1 0 0 .1-.1.1-.2.1-.2 0-.3 0-.4.2 0 .1-.1.1-.2.1-.1.2-.1.4-.2.6 0-1.5.1-3.1.1-4.7m8.7-.4c.3.1.3.3.3.4 0 0-.1 0-.1.1 0-.1-.1-.3-.2-.5m-24.3.5c0-.1 0-.3-.1-.5.4.2.8.1 1.2.4-.3.1-.5.3-.8.4h-.1c0-.1-.1-.2-.2-.3m23.5-.7c.3.3.3.4.1.7 0-.2-.1-.4-.1-.7m-20.6-.1c.1.1.1.2.2.3h-.1c-.2 0-.3-.1-.1-.3m-3.4 1.1c-.1 0-.2-.1-.3-.2-.2-.2-.4-.3-.5-.5-.1 0-.1-.2-.1-.3s.1-.2.1-.3c.1-.3.4-.3.6-.1.1.1.1.1.1.2.1.3.1.7.2 1 .1.2 0 .3-.1.2 0 .1 0 .1 0 0m25.4-1.5c.2.3.2.6.3.8h-.1c-.1-.2-.2-.5-.2-.8m-20.1 2.4c.1-.2.2-.2.2-.4-.2-.1-.3-.2-.4-.2-.6-.2-.6-.2-.4-.8-.2-.3-.4-.6-.2-1 .1.3.2.5.5.4l.1.1c.4.4.8.7 1.1 1.1.3.3.3.4.1.8-.1 0-.2 0-.2-.1-.3-.1-.3 0-.3.3-.1-.1-.2-.1-.5-.2m-1.4-2.9l.2.4h-.1c0-.1-.1-.3-.1-.4m-3.5 0l-.2-.2.1-.1c.1.1.2.1.3.2-.1 0-.2.1-.2.1m2 .5c-.1-.1-.3-.2-.4-.3-.2-.1-.4-.2-.4-.4-.1-.3-.1-.7-.1-1 .6.4.7 1.2 1.5 1.4 0 .2-.1.4-.1.6-.3-.1-.4-.2-.5-.3m11.3 7.2c-.5-.3-.9-.6-1.4-.9s-1-.7-1.5-1.1c-.2-.2-.6-.2-.9-.3-.2-.1-.4-.1-.5-.1-.3-.1-.5-.2-.6-.5-.2-.5-.4-1-.7-1.6-.1-.1-.2-.3-.3-.4-.7-.6-1-1.4-1-2.3-.1-.6-.1-1.1-.1-1.7v-.3l.3-.3c.2-.1.2.1.3.2.5.7 1 1.4 1.5 2.2s1.1 1.5 1.4 2.4c.1.4.4.7.6 1s.4.6.7.9c0 .1 2.5 2.7 2.8 3.1h.1s.4 0 .1-.1c-.1-.1-2.7-3.2-2.8-3.3-.1-.2-.3-.4-.4-.6-.2-.3-.2-.4.1-.6.3-.2.7-.5 1-.7.1.1.1.2.2.3.3.5.6 1 1 1.5.2.3.3.5.4.8.2.8.7 1.4 1.5 1.7.1 0 .1.1.1.1.1.7-.2.8-.6.9h-.5c-.4-.1-.6-.2-.8-.3m-9.3-8.6c.2-.3.3-.6.5-.9.3 0 .4.4.6.2l.6.6c.1.1.1.2.2.4.2.6.2 1.3.1 2-.2-.2-.4-.3-.5-.5-.2-.2-.4-.3-.5-.5-.3-.3-.2-.6-.1-.9-.4-.2-.3.3-.5.3-.4-.4-.5-.5-.4-.7m-7.6-.5c.2-.2.4-.3.5-.4.3-.2.5-.2.8 0s.6.3.8.5c.4.2.6.5.7 1.1-1-.1-1.8-.7-2.8-1.2m4.8-.3c-.2-.3-.1-.6.1-.7.1-.1.2-.1.3.1.3.4.6.7.8 1.1.3.4.3.8.1 1.3-.4-.7-.8-1.3-1.3-1.8m-2.9-.4c-.1-.1-.2-.3-.1-.5s.3-.3.5-.2.3.2.3.5c0 .2 0 .4-.1.7-.2-.2-.4-.3-.6-.5m7.2-.7c.2.6.2.7-.2.8-.1-.3 0-.5.2-.8m1.9.8c.4-.4.9-.6 1.4-.8.2-.1.4.1.5.2.1.2.2.5.3.7.2.4.3.8.5 1.2.3.5.6 1 .8 1.5.2.3.3.6.4.9.2.5.1.7-.3 1.1-.2.1-.4.2-.5.3-1-1.7-2.1-3.4-3.1-5.1m-7.8.6c-.1-.5-.2-1-.3-1.4.8.5 1.3 1.6 1.1 2.3-.4-.2-.6-.5-.8-.9m16.5 2.4v-.1c.7-.4 1.1-1.1 1.5-1.8.4-.7.8-1.4 1.4-2 .1-.1.2-.3.3-.4.1.2.2.3.3.4.1.2.2.3.2.5.5 1 1.2 2 1.5 3 .1.4.3.8.2 1.2-.1.2.1.4.3.5.3.1.4.4.6.7.1.1.1.3-.1.4-.2.1-.3-.1-.4-.2-.7-1-1.4-1.9-2.1-2.9l-.3-.3s-.1 0-.1.1c0 .9.6 1.6.9 2.5-.6-.3-.9-.9-1.6-1.2v.4c0 .1 0 .2.1.4h-.3c-1-.1-1.7-.7-2.4-1.2m-10-3.4c-.1-.3-.2-.7-.2-1 .4.3.6.7.7 1.1-.1.1-.3.1-.3.1-.1 0-.2-.1-.2-.2m-5.9-.4c-.1-.2-.3-.4-.3-.7.4-.1.7.1 1.1.7-.2.2-.3.3-.4.3-.2 0-.3-.1-.4-.3m.8-.7c-.2-.1-.3-.3-.4-.4l.1-.1c.4-.3.6-.2.7.3 0 .1 0 .3-.1.3h-.2l-.1-.1m6.2-.3c-.1-.1-.2-.2-.4-.3-.2-.2-.2-.3 0-.4l.6-.3c.2-.1.4-.1.6-.1s.4.1.4.3c0 .3.1.5.2.8.1.3 0 .4-.3.4h-.8c.2.6.1.7-.3.9-.5-.6-.5-.8 0-1.3m6.7 6.7c0-.1 0-.2-.1-.3v-1c.2-.7.3-1.4.5-2.1.2-.8.4-1.5.6-2.2.1-.4.1-.8.1-1.3v-1c.1.2.1.3.1.5 0 .5.1.9.2 1.4v3.8c0 1 0 2-.1 3 0 1.1 0 1.5.4 2.6-.6.2-.9.2-1.3-.2v-.1c0-.1-.1-.1-.1-.2-.2-.4-.4-.8-.5-1.2-.1-.3-.3-.6-.5-.9-.4-.5-.7-.9-.9-1.5-.1-.3-.3-.6-.5-.9-.4-.7-.8-1.4-1.1-2.1-.2-.3-.3-.7-.4-1-.3-.6-.5-1.2-.8-1.8-.1-.3 0-.4.2-.6.4-.3.8-.6 1.1-.9.1.4 0 3 1.6 3.9.7.4.8 1.7 1.2 2.4 0 .2 0 .3-.1.5-.1.5 0 .9.2 1.4h-.1c.4 1.5.8 2.6.8 2.7v.2l.1.1c.1-.5-.1-1.6-.4-3h-.1c-.1.1-.1-.1-.1-.2m-11.7-7.2c-.2-.1-.4-.1-.5-.1-.1-.5 0-.5 1-.9.2 1.2.5 2.4.7 3.7-.9-.7-1.4-1.6-1.2-2.7m-.9-1.3c0-.2.2-.4.4-.4s.5.1.7.1v.1c-.2.1-.4.3-.7.4h-.2c0 .1-.2 0-.2-.2m-.7-.1c.1.2.2.3.3.5.2.3.1.5-.2.7-.7.4-1.6.1-1.8-.8-.1-.3.1-.5.2-.6.1-.2.3-.4.6-.2.6-.3.8 0 .9.4m22.3 6.6c-.6-.2-1-.6-1.3-1.2-.4-.8-1-1.5-1.5-2.3-.2-.3-.3-.6-.5-1-.1-.2-.1-.3.1-.5s.3-.5.4-.8c.2-.5.4-.9.6-1.4h.1c.2.9.4 1.7.5 2.6.1.7.3 1.3.6 2 .3.9.7 1.8 1.2 2.7 0 0-.1-.1-.2-.1m-10.4-2.4c-.5-.1-1.2-2.6-1.4-3.6.5-.4.9-.9 1.4-1.3.1-.1.1-.1.2-.1 0 .2.1.4.1.7.1 1 .3 1.9.8 2.8.6 1 .7 2 .4 3.1-.1.3-.2.6-.3 1-.4-.7-.5-2.4-1.2-2.6m6.5-3.3c-.3-.4-.3-.6.1-.8.4-.3.9-.6 1.3-.9l.1.1c-.4.7-.5 1.5-1.1 2.2-.2-.3-.3-.4-.4-.6m-3.5.7c0-.5-.1-.9-.2-1.3v-.2l.2-.2.9-.9c.1.2.1.4.1.6-.2.8-.5 1.6-.7 2.4l-.1.1c-.1-.1-.2-.3-.2-.5m-1.9.5c-.2-.2-.3-.6-.3-.9-.1-.7-.3-1.4-.4-2.1.1 0 .3 0 .4.1 0 .1 0 .2-.1.3.2-.1.4 0 .4.1.4.2.7.5 1 .7v2.4c0 .5-.2.8-.4 1.1 0-.6-.2-1.2-.6-1.7m1.1-2.4c-.1-.1-.1-.3 0-.4s.2-.2.3-.4c0 .1.1.2.1.3h-.1c0 .2 0 .4-.1.5-.1.1-.2 0-.2 0m2.6 2c-.2-.4-.3-.8-.5-1.2-.2-.5-.1-1.1-.1-1.6 0 0 0-.1.1-.2l.6.6c.1.2.2.3.4.5l1.2 1.8c.1.2.2.4 0 .6l-.6.9-.6.9c-.3.4-.5.8-.7 1.2-.2.5-.6.8-1.1 1.1-.1-.4-.1-.8-.1-1.2v-1.3c-.1-.8 0-1.6.3-2.3.1-.2.3-.4.5-.7.2.5.3 1.1.7 1.5.1-.2 0-.4-.1-.6m-20.9-3c1.2 0 2.1 1.1 2 2.1-.6-.8-1.6-1.3-2-2.1m17.1-.3c0 .1-.1.2-.1.4-.2-.3-.2-.3.1-.4m2.1.1v-.2l.1-.1c.2.2.4.3.5.6-.2.2-.4.3-.6.4v-.7m-9 .4c.2-.4.6-.6 1.1-.7.1.5.1.9.1 1.3-.1 0-.1.1-.1.1-.5-.1-.8.1-1 .6-.1.3-.3.5-.5.7.1-.7 0-1.4.4-2m7.5-1.1c.4.2.6.5.3.9-.1.2-.2.3-.4.6-.1-.3-.1-.4.1-1.5m-12.6.6c-.2-.6 0-.8.6-.8.2.6.2 1.1.2 1.7-.5 0-1-.1-1.5-.3-.4-.2-.4-.3-.1-.6 0-.1.1-.1.2-.2.1.1.2.2.3.4.1.1.2.2.4.3 0-.2-.1-.3-.1-.5m7 .1c-.1-.5 0-.6.4-.8 1.2-.5 2.5-.2 3.3.9 0 .1.1.1.1.2-1 .9-1.9 1.8-2.9 2.6-.3-1-.6-1.9-.9-2.9m7.4-1.1c.5.4.6.7.3 1-.2-.2-.2-.5-.3-1m-8.9-.1c.4 0 .5.1.5.3 0 .3-.2.4-.7.4.1-.3.1-.5.2-.7m8-.5c.2.4.2.7 0 1.1-.5-.3-.5-.7 0-1.1m.6-.2h.1c0 .1.1.2.1.3h-.1c0-.1-.1-.2-.1-.3m.9-.1c.2.3.2.6.3 1-.5-.3-.5-.5-.3-1m-15.7.9l-.9-.9c.4-.2.6-.2.8.1l.6.6c-.1.2-.2.3-.3.3s-.1 0-.2-.1m16.5 1.3c-.2-.3-.2-.5.1-.7.4-.4.8-.7 1.2-1.1.2-.2.5-.4.8-.7.2.4-.3.7.1 1l.4-.4c.3.3.5.6.6.9s0 .5-.2.7c-.2.2-.4.4-.7.6-.4.3-.8.6-1.3 1-.3-.4-.7-.8-1-1.3m-4.9-.5c-.5-.4-1-.8-1.6-1.2l.9-.3c.4-.2.7-.4 1.1-.6.2-.1.4-.1.5.1.4.7.2 1.7-.5 2-.1 0-.1.1-.2.1 0-.1-.1-.1-.2-.1m-4.2-1.1c-.1-.4-.2-.7-.1-1.1.6.1 1 .6 1.5.9-.4.3-.7.4-1 .4h-.1c-.1 0-.2-.1-.3-.2m6.1-.5c.1-.3.2-.6.3-1 .2.2.3.5.2.8-.1.1-.2.2-.3.2h-.2m3.2-1.2c0 .5-.1.8-.3 1.2-.3-.5-.2-.8.3-1.2m-1.1-.1c.1.6 0 .9-.4.9-.3-.4.1-.6.4-.9m-11.4 1.6c.3-.4.5-.7.8-1.1.2-.3.9-.6 1.3-.5.2.1.3.3.2.4l-.3.3c-.4.2-.5.5-.3.9v.1c-.1.3-.3.5-.3.7-.3.8-.7 1-1.6.9-.2 0-.4-.1-.5.2 0 .2-.2.4 0 .5.2.2.4.1.6 0 .3-.2.6-.3 1-.5-.1.7-.2 1.3-.4 1.9l-1.6-.8c0 .3.2.5.4.6.3.3.5.6.7.9.1.4.1.8-.1 1.1-.3.5-.6.9-1 1.4-.3-.5-.3-1-.4-1.5-.2-1-.4-2-.5-3.1-.1-.6-.2-1.3-.3-1.9v-.3c.3-.1.6-.1.9-.3.3-.1.5-.3.8-.5.2-.1.3-.1.6-.2-.1.5-.6.7-.4 1.2.1 0 .3-.2.4-.4m15.4-.1c-.2-.3-.2-.6-.1-.9.2-.4.4-.7.6-1 .2-.2.4-.3.7-.1.6.4 1.1.7 1.7 1.1l-.3.3c-.1 0-.2-.1-.3-.1-.6-.3-.8-.3-1.2.3l-.3.6c-.1.2-.2.4-.3.7-.1-.3-.3-.6-.5-.9m-2.9-1.7c.1-.1.2-.3.4-.4l.1.1c-.1.2-.2.3-.3.5-.1-.2-.2-.2-.2-.2m-2.1.2v-.4c0-.2.1-.4.3-.4.2-.1.4-.2.7-.3.2.3.1.5-.1.7-.2.2-.3.5-.5.8-.3-.1-.4-.2-.4-.4m-1.8-.1c-.1 0-.3-.1-.3-.2-.1-.3-.3-.5-.5-.8-.2-.2-.2-.4 0-.6.2 0 .4 0 .6.1.5.1.8.5.7 1 .1.2-.2.5-.5.5.1 0 0 0 0 0m1-1.7c.2.3.3.6.2.9-.2-.2-.3-.5-.2-.9m.7 0c.2-.1.5-.2.7-.2.1 0 .2.1.2.2s0 .2-.1.3c-.2.1-.5.3-.7.4-.2-.3-.3-.5-.1-.7m-7-.1c-.3.1-.5.3-.8.4.1-.5.3-.6.8-.4m-9.3.5c.6-.2 1.1-.5 1.7-.6.2 0 .3 0 .4.2l.6 1.5v.3c-.7-.4-1.3-.7-2.1-.2-.3-.5-.5-.8-.6-1.2m22.7-.4c.3-.7.8-1.1 1.5-.9-.2.2-.5.3-.8.5-.2.1-.5.3-.7.4 0 .3-.1.4-.4.5.1-.2.2-.4.4-.5m-17.6-.8c0-.1 0-.1 0 0 .1-.1.3-.2.4-.2v.1c-.1.1-.2.1-.3.1h-.1m4.9 3.2c-.4-.2-.6-.5-.6-.9 0-.6.2-1.2.8-1.5l.2-.2c0-.2.2-.3.4-.4.3-.1.6-.3.9-.5.7.1.9.4.7 1.2.2.1.3.3.5.4.4.3.7.7.8 1.2.1.3.1.4-.2.6-.4.3-.9.5-1.5.6h-.6c-.4-.1-.9-.2-1.4-.5m5.3-2.8c-.1-.2-.2-.4-.2-.7 0-.1.1-.2.1-.2s.2 0 .2.1c.1.2.2.5.3.8 0 .1-.1.2-.2.3-.1-.2-.2-.2-.2-.3m.8-.8c-.1-.3 0-.5.3-.6.3-.1.6 0 .7.2.1.1.1.3.1.4.1.4 0 .6-.4.7-.1 0-.3.1-.4.1-.1-.3-.2-.6-.3-.8m-6.6-.8c0 .3-.2.5-.4.7l-.9.6c-.1.1-.3.1-.2.3 0 .1 0 .1-.1.2-.5.9-1.1 1.7-1.9 2.3-.1.1-.2.1-.3.2-.2.1-.4.1-.5-.1 0-.1-.1-.1-.2-.2-.3.6-.7 1.1-1.4 1.2-.2-.6-.3-1.2-.4-1.7-.2-.6-.3-1.2-.2-1.7.8 0 1.7-.1 2.5-.1.1.4-.2.9.1 1.3.1-.6.2-1.1.8-1.3.4-.1.9-.2 1.4-.3-.1-.2-.2-.3-.5-.3h-1.1v-.1c.1-.1.2-.1.3-.2.5-.1 1-.3 1.4-.4.5-.1 1-.2 1.6-.4m-.1 1.2c-.1-.1 0-.3.1-.4.2-.2.5-.4.7-.6.4-.4.9-.3 1.3-.3.2 0 .3.2.1.4-.2.3-.4.5-.7.6s-.5.3-.8.4c-.1.1-.3.1-.4.1 0 0-.2-.1-.3-.2m14.2-1c.1-.3.2-.6.6-.7.3-.1.5 0 .6.3-.3.3-.6.4-1 .4h-.2m-10 1.6c-.2-.1-.3-.3-.4-.4-.2-.2-.4-.5-.6-.8.1-.1.2-.3.4-.4.3-.2.6-.4.4-.8.2 0 .3 0 .5.1v.4c-.1.4 0 .7.3 1l.1.1c.3.4.2.8-.3.9h-.1c-.2 0-.3 0-.3-.1m2.2-2.3c.3-.1.6-.2 1 .1l-1-.1m1.9 0c.5-.3.8-.3 1 .2-.1 0-.2.1-.2.1-.3 0-.6-.2-.8-.3m1.4-.2l.3.3h-.2c-.2 0-.1 0-.1-.3m2.2.7c0-.2.1-.4.3-.5.5-.3 1-.2 1.5-.2.2 0 .3.2.2.4-.1.1-.2.3-.4.4-.1.1-.3.1-.4.2.1.8.1.9-.8 1.2 0 .1.1.2.1.3.1.1.2.2.1.4s-.3.3-.5.2c-.4-.2-.8-.3-1-.7l-.3.3.3.3c.2.2.5.3.7.5.3.2.3.4 0 .7-.1.2-.3.3-.4.5-.6-.4-.7-1-1-1.5-.1 0-.1.1-.3.1.3.6.6 1.2.8 1.7-.5.5-1 .9-1.5 1.3l.3-.9c-.1 0-.2 0-.4-.1.1-.1.1-.2.2-.3.1-.4.3-.7.4-1.1s.1-.4-.3-.7c-.3.4-.6.8-1 1.3 0-.5.4-.9-.2-1.3.4-.2.6-.3.9-.4-.2-.4-.5-.2-.8-.1 0-.5-.5-1-.2-1.5.4 0 .5.5 1 .4 0-.1 0-.3-.1-.4.5 0 .5.4.8.7.1-.2.2-.3.3-.4s.1-.2.2-.3l.1.1c-.1.2-.1.4-.2.6h.1c.4-.4.9-.5 1.4-.5.3 0 .6 0 .9-.3-.1-.2-.3-.2-.5-.2h-.2c0-.1 0-.2-.1-.2m-1.6-.4c.4-.5.7-.6 1.3-.2-.3.3-.6.4-.8.4s-.3 0-.5-.2m-13.1 0c0-.1 0-.2.1-.3.1-.3.1-.3.4-.3.9.1 1.9.2 2.8.3.1 0 .3.1.4.1v.1c-.3.2-.6.3-1 .2h-1l-1.2.3h-.2c-.3.1-.3 0-.3-.4m-4.6.1c-.1-.2-.1-.5-.1-.8 0-.1.2-.2.4-.2.3 0 .6 0 .9.1.9.1 1.9.2 2.8.3.1 0 .1 0 .2.1 0 .7-.3 1.2-1 1.4-.3.1-.5.1-.8.1-.4 0-.7.1-1.2.2v-.6c0-.4-.2-.5-.6-.5h-.1c-.1 0-.2.1-.3.1l-.2-.2m12.3-.9c.3-.4.7-.4 1.5 0-.2.2-.4.2-.7.2-.3.1-.5-.1-.8-.2m-2.8-.1c-.2-.2-.2-.3-.1-.6.2.2.4.3.7.5-.1.1-.2.2-.3.2-.2.1-.3 0-.3-.1m11.3-.1c.2-.4.4-.5.9-.8.2.6.1.9-.5.9-.1 0-.2 0-.4-.1m-9.1-.9s.1 0 0 0c.3.1.6.2.9.4-.2.2-.3.4-.5.6-.3-.3-.3-.7-.4-1m11.1-.2c0 .4 0 .6-.1.9-.3-.2-.3-.3.1-.9m-9 1.1c-.4-.6-.1-1.3.8-1.6.1.5.2.9.3 1.3 0 .2-.1.4-.4.4h-.3c-.2.1-.3 0-.4-.1m1.5.1c-.1-.5-.2-1.1-.2-1.6v-.1c.4.4.9 1.4 1 2-.2 0-.3.1-.5.1-.2-.2-.3-.3-.3-.4m-5.9-2.7c.8.3 1.4 1.1 1.3 1.7-.7-.4-.8-1.2-1.3-1.7m-4.5 2.4c.2-.9.5-1.8.7-2.7.8.5 1.5 1.1 2.3 1.6.4.3.7.7.9 1.2 0 .1.1.2.1.5-1.4-.3-2.7-.4-4-.6m5.6-3.3c.2.3.2.6.2.9-.2-.3-.3-.6-.2-.9m6.1 3.6c-.1-.1-.2-.2-.2-.3-.2-.5-.5-1-.7-1.5-.3-.8-.2-1.2.5-1.7.2-.2.5-.3.8-.5.1 1 .1 1.9.2 2.7 0 .3.1.5.1.8 0 .2.1.4-.1.5-.1 0-.2.1-.3.1-.1 0-.2-.1-.3-.1m5.3-2.1c-.1-.2-.3-.5-.4-.7-.1-.2-.1-.3 0-.5.3-.4.5-.8.8-1.2l.1-.1c.1.4.2.8.2 1.3 0 .3 0 .6-.1.9 0 .1-.1.3-.2.4 0 .1-.1.1-.2.1l-.2-.2m-4.1 1.9c-.1-1.3-.2-2.7-.2-4 0-.2 0-.4.2-.6.5-.4.9-.8 1.4-1.2.3-.2.4-.2.6.2 0 .1.1.2.1.2.6.9 1 1.9 1 3.2.3-.2.5 0 .6.2 0 .1.1.1.1.2.3.4.2.5-.1.8-.2.2-.4.3-.5.6 0 .1-.1.1-.2.1-.2.1-.3.2-.5.3-.4.2-.4.2-.7-.1-.5.5-1.1.3-1.7.4-.1-.1-.1-.2-.1-.3m-10.6-2.3c-.4-.3-.9-.6-1.3-.9-.2-.1-.2-.2-.2-.5.1-.3.2-.7.2-1 .1-.4.1-.9.3-1.3l.4.4c.1.2.3.3.4.5.5 1 1.2 1.9 2 2.8l.1.1c.2.3.3.6.5.8.2.3.4.5.6.7.1.1.2.3.1.5-.1 0-.2-.1-.3-.1-.2-.1-.3-.3-.6-.2-.1 0-.2-.1-.3-.1-.7-.6-1-1.3-1.2-2.2 0-.2-.1-.4-.3-.4-.2-.1-.5 0-.6.2-.1.1-.1.3 0 .4.1.2.2.3.3.5.1-.1 0-.1-.1-.2m-3.8 2.3c-.8 0-1.6-.1-2.4-.2-.9-.2-1.5-.8-1.7-1.7-.1-.5-.2-1-.2-1.5l-.3-2.7c0-.3 0-.6.1-1 .1.1.2.1.2.1 1.2 1.1 2.5 1.9 3.9 2.6l1.2.6c.6.3.7.7.6 1.3-.1.5-.2 1-.4 1.5 0 .7-.4 1-1 1 .1 0 .1 0 0 0m4.5-4.5c-.1-.3-.3-.5-.5-.8l-.9-1.2c-.2-.2-.3-.4-.2-.7v-.4c.1-.5.2-1.1.2-1.6 0-.6.2-1.2.4-1.7 0-.2.1-.3.2-.5l.2-.2c.9 2.9 1.9 5.8 2.8 8.6-.5-.2-.8-.4-.9-.9-.1-.4-.4-.6-.8-.5h-.1c-.1.1-.3 0-.4-.1m6.7-12.8c-.2 0-.5.1-.7.2-.7.4-1 1.4-.6 2.1.3.7 1.2 1 2 .8.1 0 .2-.1.4-.1.1.1.1.1.1.2 1.4 2.1 2.3 4.4 3.3 6.7.2.3.1.7-.2 1l-1.3 1.3s-.1 0-.2.1c0-.8-.2-1.5-.4-2.2-.2-.6-.4-1.2-.4-1.9 0-.1 0-.2-.1-.3-.1-.1-.2-.2-.3-.2s-.3.1-.4.2c-.1.2 0 .4.1.5.7 1.3 1.1 2.6 1.1 4.1 0 .3-.1.5-.3.7-.5.4-.9.8-1.4 1.1h-.1c-.4-.7-.6-1.5-.7-2.3-.1-.7-.2-1.3-.3-2-.1-.5-.1-.6-.7-.7-.2 0-.4-.2-.5-.3-.3-.6-.6-1.3-.5-2v-.4c-.1-.2-.3-.3-.4-.4-.2-.1-.2.2-.3.3 0 0 0 .1-.1.1-.2.4-.1.4.1.7.1.1.2.2.3.4.3 1.3 1 2.5 1.4 3.8.3.8.6 1.6.8 2.5.2.8 0 1.6-.7 2.1-.1 0-.1.1-.2.1-.3.3-.4.3-.8.2-.8-.4-1.5-1.3-1.4-2.4 0-.1 0-.3.1-.4 0-.3-.1-.4-.4-.5-.6 0-.7-.1-.8-.7-.1-.5-.3-1-.4-1.6-.6-2-1.2-4-1.9-6-.3-.9-.3-1.8.3-2.7.2-.3.1-.6-.3-.7-.3-.1-.5 0-.8 0-.6.1-.6.2-.5.7 0 .1.1.3.1.4.2.5.3 1.1.5 1.6v.3c-.3.1-.7-.1-.9.3.6.6.5 1.4.4 2.1 0 .4 0 .7-.1 1.2-.4.3-.2.9-.6 1.4l-1.2-1.8c-.3-.5-.4-1-.4-1.6v-.4c-.1-.3-.2-.5-.5-.5-.3-.1-.4.1-.6.3 0 .1-.1.1-.1.2-.2.4-.2.5.2.6.4.2.7.5.8 1l.3.9c.3.5.7 1.1 1 1.6s.5.9.3 1.5c-.2.7-.3 1.3-.5 2 0 .1-.1.2-.1.3-.7-.4-1.5-.7-2.2-1.1-1-.6-1.9-1.1-2.9-1.7-.2-.1-.4-.3-.5-.4.2-.2.3-.4.5-.5.3-.4.4-.9.1-1.3-.4-.6-.9-.9-1.6-1.1-.3-.1-.6.1-.7.3l-.3.6c-.2.4-.3.9-.3 1.3 0 .2.1.3.3.4.3.1.5.2.8.4v.5c0 1.9.2 3.8.6 5.7.2 1 .5 2 .7 3 .1.4.1.5-.4.7-1 .3-1.9.6-2.6 1.2-.2.1-.4.1-.5 0s-.2-.1-.3-.2c-1.4-1-2.5-2.2-3.6-3.4-1.1-1.2-2.2-2.3-3.6-3.2-.2-.1-.5-.3-.7-.4-.5-.1-.8.1-.8.6v.4c.1.2.2.3.3.4.2-.1.3-.3.4-.4.2-.3.6-.4.8-.2.7.5 1.5 1 2.1 1.7.6.7 1.2 1.4 1.9 2.1.7.7 1.5 1.4 2.3 2.1.3.3.3.3.2.6-.4.5-.4.5.1.9l.1.1c.3.2.4.3.7.1.5-.3.7-.3 1.1.1.6.6 1.2 1.3 1.8 2 .1.1.1.2.2.4-.4.3-.8.3-1.2.3-.8 0-1.5-.1-2.2-.3-.2 0-.3-.1-.5-.1-.4.1-.8-.1-1.1-.4-1.3-1.3-2.6-2.5-3.9-3.7-.1-.1-.3-.2-.5-.3s-.4.1-.4.3c-.1.2 0 .4.2.5.9.3 1.5.9 2.2 1.5.1.1.1.2.2.2h-.2c-1 .1-1.7 1.1-1.4 2.1.2.6.6 1 1.3 1.1.7.1 1.3-.2 1.7-.8.1-.1.2-.3.3-.5.2.1.4.2.5.4.5.7 1 1.3 1.6 1.8.6.5 1.2 1.2 1.9 1.7.3.2.2.4.1.6-.3.6-1.1.9-1.8.4-.2-.2-.5-.4-.8-.5-.8-.5-1.6-.9-2.4-1.4-.1 0-.1-.1-.1-.1-.6-.5-1.2-1-1.8-1.6-.2-.2-.5-.4-.6-.8 0-.2-.2-.3-.5-.3-.2 0-.5.3-.5.4s.1.2.1.2c.3 0 .4.2.5.4.3.3.6.6 1 .8.4.3.7.5 1.1.8.2.2.5.4.6.6s.3.4.5.5c.7.4 1.3.8 1.9 1.2l.2.2c-.5.4-.8.4-1.3.2-.3-.1-.7-.3-1-.4s-.6-.1-.8.1c.1.3.2.4.5.5.2.1.5.2.7.2.2.1.3.2.5.3-.3.1-.5.2-.6.3-.8.3-1.7.5-2.6.5-.2 0-.4 0-.5.2s0 .4.1.6l.3.3c.3.3.5.2.8-.1.1-.1.1-.2.2-.3.1-.2.2-.3.4-.3.7-.2 1.4-.4 2.2-.7.7-.2 1.3-.1 1.8.3.3.2.6.3.9.5.1 0 .1.1.2.2-.2 0-.4-.1-.5 0-.4.2-.3.7.1.9.5.2.8.6 1.2 1-.2.1-.4.1-.6.1-.5-.1-1.1 0-1.6.1-1.5.2-2.9.1-4.3-.4-1.6-.6-3.2-1.1-4.8-1.5-.9-.3-1.8-.6-2.4-1.4-.3-.1-.4-.1-.7 0-.2.1-.3.3-.4.4-.2.4-.1.8.3.9.2.1.4.1.6.1.7 0 1.3.3 1.9.5 1.5.5 2.9.9 4.4 1.4.2.1.3.1.5.2-.1.2-.2.3-.3.5-.2.3-.1.5.1.7.2.2.4.1.6-.1s.5-.3.8-.3c1.1 0 2.1.2 3.1.7.5.2 1 .4 1.6.5.2 0 .5.1.7.3-.2.1-.3.1-.4.1-.6 0-1.2.1-1.8.1h-8.5c0-.3-.1-.5-.3-.8l-.3-.3c.2-.1.3-.1.5-.2-.3-.2-.6-.4-.8-.6-.3-.2-.5-.3-.9-.2-.1 0-.3.1-.3.2 0 .3-.2.3-.4.4-.6.3-.9 1-.8 1.7s.5 1.1 1.2 1.3c.7.2 1.5-.1 1.9-.8.1-.1.1-.2.1-.3.1 0 .2.1.2.1.5 0 1 .1 1.5.1h5.4c1.3 0 2.5-.1 3.8-.1.2 0 .4 0 .6.2-.3.1-.5.2-.8.3-1.5.5-3.1 1.1-4.6 1.6-1 .3-2.1.3-3.1-.1-.1-.1-.3-.1-.4-.1-.3 0-.4.2-.4.5s.2.4.4.4c.4.1.9 0 1.3 0 .2 0 .4-.1.6.1-.2.1-.4.2-.5.3l-2.4 1.2c-.8.4-1.7.7-2.7.8-.8.1-1.6.2-2.3.4-.1-.4-.3-.3-.3-.1v.1c0 .3.2.6.6.6.2 0 .3 0 .5.1.5.1.9.1 1.4-.2.4.4.9.5 1.4.6.1 0 .3 0 .4.1 1.5.3 3 .5 4.5.6.4 0 .8 0 1.2.1-.2.4-.5.4-.8.4-.7-.1-.8.4-.6.8.1.3.5.6.8.5.4 0 .4-.3.4-.6 0-.2.2-.4.4-.4.5-.2 1-.4 1.5-.5.3-.1.6-.2 1-.1v.1c-.4.6-.6 1.4-.8 2.1-.1.4-.3.6-.7.7-.5.1-1 .1-1.4.1-1.3-.1-2.5-.1-3.7-.1-1.7 0-3.4-.2-5-.8-.3-.1-.4 0-.6.2-.1.3-.1.5.1.7s.5.3.7.1c.5-.3.9-.2 1.4-.2 1.2.2 2.3.5 3.5.4.5 0 1 .1 1.3.6.2.2.3.2.4.1.4-.4.8-.5 1.4-.5h1.2c.1 0 .3-.1.4 0 .3 0 .4.1.4.4v.8c0 .4-.2.5-.6.6-.2 0-.4 0-.5.1-.5.1-.6.2-.5.7 0 .3 0 .4-.4.5-.3 0-.5.1-.8.1-1 .3-2 .4-3 0-.2-.1-.5-.1-.7.1-.2.2-.2.4-.1.7.1.1.1.2.2.3.2.3.3.3.6 0s.7-.5 1.2-.5 1.1 0 1.6-.1c.6-.1 1.1-.2 1.6-.4h.4v.1c-.2.4-.2.7.1 1 .3.3.5.1.8 0 .1 0 .2-.1.3-.1.2-.1.3-.2.3-.4 0-.3-.1-.5-.1-.8 0-.2 0-.3.2-.4.8-.2 1.6-.4 2.5-.6l-.3.3c-.6.5-1.2 1-1.8 1.6-.9.8-1.8 1.4-3 1.6-.2 0-.4.1-.5.2-.2.2-.6.3-.5.7.1.4.5.5.8.6h.1c.1 0 .3-.1.4-.2s.1-.2.2-.3c.2-.5.6-.9 1.1-1.2.7-.4 1.4-.9 2-1.4.8-.6 1.5-1.3 2.2-2 .2-.2.3-.3.6-.3.3.6.2 1-.3 1.4-.1.1-.3.2-.5.3-.4.3-.9.5-1.3.8-1.1.8-2 1.6-3 2.5-.6.5-1.2 1-1.9 1.5-.3.2-.7.4-1 .6-.2-.1-.4-.4-.7-.5-.5-.3-.9-.4-1.5-.1-.6.4-1 1.2-.8 1.9.2.7.9 1.2 1.7 1.1.8 0 1.5-.6 1.5-1.4 0-.3.1-.4.3-.5 1.2-.6 2.3-1.5 3.3-2.4.8-.7 1.5-1.3 2.4-2 .8-.6 1.6-1 2.6-1.1.4-.1.8-.2 1.2-.1 0 .1-.1.2-.1.2-.6 1.2-1.2 2.3-1.6 3.6-.1.2-.2.4-.4.5-.6.3-1.2.7-1.8 1-.1.1-.2.2-.2.4.1.2.2.3.4.2.2 0 .3-.1.5-.3.3-.2.5-.4.8-.6.1-.1.2-.2.5-.2-.3.5-.5 1-.9 1.4-.4.5-2.3 1.7-3 1.9-1.1.3-2.1.5-3.2.8-1.3.3-2.7.5-4.1.3h-.3c-.3 0-.5.2-.6.5-.1.2.1.3.2.4.2.2.5.2.8.1 0 0 .1 0 .1-.1.5-.4 1.1-.5 1.7-.5.5 0 .9 0 1.4-.1.4-.1.9-.2 1.3-.3 2.5-.5 5.1-1.2 7.5-2.2.2-.1.5-.1.7-.2 0 .1.1.2.1.2-.1.7-.1 1.5-.2 2.2 0 .2-.2.3-.3.4l-.9.6c-.4.3-.7.6-1.1.9-.4.3-.8.4-1.3.3-.5-.2-1 .1-1.3.6-.1.1-.1.3-.1.4 0 .2.5.5.7.5.3 0 .4-.2.5-.4 0-.1 0-.1.1-.2.1-.2.2-.3.5-.2.1 0 .2 0 .3-.1.5-.3 1-.6 1.5-.8.3-.2.6-.3.9-.6.2-.2.4-.3.6-.5.1.2.1.3.2.5 0 .3 0 .5.1.8.1.7 0 1-.7 1.3-.2.1-.4.2-.3.4 0 .2.2.3.4.3s.3.1.5.2c.2.3.2.3.6.2.1-.1.2-.1.3-.2.3-.1.4-.3.4-.6v-.5c.1-.6.6-1.1 1.3-1-.2 0-.2.2-.3.3-.2.3-.3.7-.5 1-.3.5-.6.9-.8 1.5 0 .1-.2.2-.3.3-.1.1-.2.2-.2.3 0 .5-.4.9-.8 1.2-.4.4-.8.7-1.3 1.1-.1.1-.2.1-.3.2-.7.3-1.1 1-.9 1.8.2.6.9 1 1.7.8.8-.2 1.5-1.3.7-2-.2-.1-.2-.3-.1-.5.1-.4.2-.8.5-1.1.5-.5.8-1 1.2-1.6.4-.6.7-1.2 1.1-1.9.2-.3.3-.6.4-.9.1-.3.3-.6.5-.9l.3-.3c.1-.3.4-.4.6-.5.3-.1.5 0 .6.3.1.2 0 .4 0 .6 0 .1-.1.2-.1.3 0 .1 0 .3.1.4s.3.1.4.1l.6-.3c.3-.2.3-.3.1-.6l-.5-.5c.3-.2.5-.2.8-.2.2 0 .3.1.3.2.1.3.1.6.2.9.1.4-.1.8-.4 1.1-.6.6-1.3 1.1-2.2 1.2-.6.1-.7.3-.4.8 0 .1.1.1.1.2 1-.6 1.9-1.2 2.9-1.9v.9c0 .6-.3 1.1-.5 1.6-.2.4-.4.7-.6 1.1-.1.1-.1.2-.1.4s.1.5.3.6c.2.1.3-.1.4-.2l.6-.6c.3-.3.6-.7.7-1.1 0-.1.1-.2.2-.2.3-.2.5-.4.8-.7.1-.1.3-.2.4-.4.2.6.4 1.1.6 1.7.3.7.5 1.5.9 2.2.2.4.1.6-.1.9l-1.5 1.8c-1.3 1.5-2.6 3.1-4.1 4.4-.4.3-.7.6-1.2.5-.3-.1-.5.1-.5.5 0 .3.1.5.4.6.2.1.3.1.5.1.5.1.8-.1 1.1-.5.3-.4.5-.9.9-1.3.9-1.1 1.9-2.1 2.9-3.2.7-.8 1.3-1.7 2-2.5.1-.1.2-.3.4-.2.2.1.3.4.1.6-.1.1-.1.2-.2.3-.1.1-.1.2-.1.3.1.3.4.5.7.6.3.1.4-.1.5-.3l.2-.2c.2-.3.2-.6 0-.8-.2-.2-.4-.4-.7-.6-.2-.2-.2-.3 0-.5.3-.3.6-.7.8-1s.4-.6.6-.8c.1-.1.2-.1.3-.2.2.2.4.3.6.5.1-.1.1-.1.2-.1s.1-.1.3-.1c-.1.3-.1.4-.2.6-.3.6-.6 1.3-.8 1.9-.6 1.4-1.1 2.8-1.7 4.2-.3.8-.7 1.4-1.5 1.8-.1.1-.3.2-.4.3-.3.4-.2.8.3.9.2.1.5.1.7.1v-.7c0-.4.1-.8.4-1 .6-.6 1-1.3 1.3-2l2.4-5.7c.1-.2.1-.3.2-.5h.1c.1.3.1.6.2 1 .3-.1.5-.2.7-.3v1c-.1 1.1-.2 2.3-.1 3.5.1 1.3.2 2.7.2 4 0 1-.2 2-1.1 2.7-.2.2-.2.4 0 .6.3.4.7.5 1.2.4.7-.2.8-.4.5-1-.1-.3-.1-.5.1-.7.1-.1.2-.2.3-.2 2.5-1.7 5-3.4 7.6-5.1.2-.1.4-.1.6 0 .3.2.7.4 1 .6.3.2.6.3.9.5.3.2.4.3.4.7-.1.3.1.4.3.5.8.1.8.1 1-.6v-.1c0-.4-.1-.6-.5-.8-.2-.1-.4-.1-.5-.1-.9-.1-1.6-.5-2.2-1.2.8-.9 1.9-1.1 2.8-1.8.2.4.3.7.4 1 .2.4.3.9.5 1.4.3.7.3 1.4-.2 2-.1.2-.3.4-.4.6l-.6.9c-.7 1.3-1.6 2.4-2.5 3.5-.1.1-.2.2-.3.2-.1-.1-.2-.1-.3-.2-.3-.1-.6-.1-.8 0-.5.2-.8.7-.9 1.3 0 .6.2 1 .8 1.2.6.3 1.2.1 1.7-.3.4-.5.5-.8.1-1.5-.1-.2-.1-.3 0-.4l.3-.3c.9-.8 1.6-1.8 2.3-2.8.4-.6.7-1.1 1.1-1.7.1-.1.1-.2.2-.3l.3.6c0-.1.1-.2.1-.3.1-.4.1-.8.2-1.2.1-.4.2-.7.6-.8.1-1.1.6-2 1.2-2.8.2.2.2.5.3.8.1.3.2.7.3 1 0 .2.1.3.2.5.1.4 0 .7-.2 1-.3.4-.3.6 0 .9.2.2.3.4.2.7-.2.7-.3 1.4-.5 2v.4c.1.2.5.2.8.1s.2-.3.1-.5c-.2-.5-.3-1.1-.1-1.6.2-.7.4-1.3.6-2 0 0 .1 0 .1-.1.1.2.1.3.1.4.1.8.2 1.7.2 2.5.1 1.5.1 3 .1 4.5 0 .7 0 1.5-.2 2.2-.1.6.3 1.1.9.9.1 0 .1 0 .2-.1.5-.2.6-.5.3-.9-.8-.9-.9-1.9-.8-3 0-.3.1-.7.1-1 .1-1.6-.2-3.1-.3-4.7 0-.5-.1-.9-.1-1.4.7.4 1.1 1.1 1.8 1.3.1-.1.2-.2.2-.3.3-.5.1-.8-.4-.9-.1 0-.3 0-.4-.1-.3-.1-.7-.2-1-.4-.3-.1-.4-.4-.3-.8.2-.9.6-1.8.9-2.7l.1.1c.7 1.2 1.6 2.3 2.2 3.6.4.7.8 1.4 1.5 2 .3.2.3.3.1.7-.1.3-.1.4.2.5h.5c.4-.1.6-.5.3-.8-.2-.2-.4-.4-.6-.5-.6-.5-1.1-1.1-1.4-1.8-.5-1.2-1.2-2.3-2-3.4-.2-.2-.3-.4-.5-.6-.2-.2-.2-.5 0-.8.1.1.1.2.1.2.9 1.2 2 2.1 3.1 3.1.2.2.3.2.5 0 .1-.1.1-.2.2-.4.1-.4 0-.6-.4-.7-.9-.1-1.6-.5-2.1-1.2-.4-.6-.9-1.1-1.3-1.7v-.2c.4 0 .7 0 1.1.1 1.2.3 2.4.5 3.5.8.1 0 .3.1.4.1.5.2.8.6.8 1.1v.4c.3.8.5 1.6.8 2.3.2.6.5 1.3.7 1.9.2.6.2.6.8.4.1 0 .3-.1.4-.2.4-.3.3-.6-.1-.8-.9-.5-1.4-1.3-1.6-2.2-.2-.7-.3-1.5-.5-2.2v-.2c.2 0 .3 0 .4.1 1.2.6 2.6 1 3.6 2.1.2.2.5.2.6-.2.1-.2.1-.5 0-.7-.1-.4-.3-.5-.7-.4-.3.1-.5.1-.8 0-.8-.5-1.7-.9-2.6-1.3-.8-.4-1.2-1-1.2-1.8 0-.1 0-.3-.1-.4-.2-.5-.3-.9-.5-1.4-.1-.3-.1-.6 0-.8.1-.2.2-.5.1-.7-.2-.2-.5-.1-.7-.1-.2.1-.3 0-.4-.2-.3-.5-.6-1.1-.9-1.6-.1-.2-.2-.4-.4-.7.9.1 1.8.2 2.6.4.5.1.9.3 1.3.6.2.1.2.2.2.4 0 .4-.1.8-.4 1.1-.1.1-.2.3-.1.5s.2.3.4.2c.4-.1.6-.2.5-.5-.1-.4-.1-.8 0-1.3.6.4 1.1.8 1.6 1.1 1 .7 1.9 1.5 2.8 2.5.1.1.2.3.2.5-.1 1 .8 1.6 1.7 1.4.8-.2 1.5-1.3.6-2.1-.1-.1-.3-.3-.5-.4-.5-.3-.9-.3-1.4.1-.1.1-.2.1-.3.2-.1-.1-.1-.2-.2-.3-1.2-1.3-2.6-2.4-4.1-3.4l-.2-.2c-.5-.4-.5-.6 0-.9.1-.1.3-.2.4-.3-.2-.2-.3-.4-.4-.5-.2-.1-.3-.3-.6-.5 0-.2-.1-.6-.1-1 .4-.1.7-.1 1.1-.2.3 0 .4-.1.5-.4 0-.1 0-.1.1-.3.8.7 1.6 1.4 2.4 2.2.2.2.2.5.3.7v.3c.1.3.3.4.5.2.3-.1.4-.3.5-.6.1-.3 0-.5-.4-.6-.3 0-.5-.1-.7-.3-.8-.7-1.6-1.3-2.4-2l-.2-.2c.3-.1.6.1.8.2l.6.3c.2.1.5 0 .7-.2.2-.2 0-.3-.2-.5-.1-.1-.1-.1-.1-.2-.2-.3-.3-.4-.6-.2-.4.1-.7.1-1.1 0-.2-.1-.5-.1-.8-.1-.2 0-.4-.1-.6-.2-.2-.2-.4-.4-.6-.5h-.3c.2.3.4.4.6.7h-.4c-.1-.1-.1-.4-.4-.4 0 .1-.1.2-.1.4-.4 0-.7-.1-1.2-.1.2-.1.2-.2.3-.3s.2-.1.2-.2c0 0-.1-.2-.1-.3.2-.1.5-.3.7-.4l.3.3c1.6-.7 3.2-1.3 4.9-1.9 0 .6-.1 1.2-.1 1.7 0 .4 0 .7-.3 1-.1.1-.2.3-.1.4.1.2.4.3.7.2.2-.1.4-.2.4-.5s0-.6-.1-.9c-.1-.6-.1-1.3 0-1.9 0-.2.1-.3.3-.4.8-.3 1.6-.7 2.3-1 .3-.1.7-.2 1.1-.2.1 0 .3.1.3.2.5.8 1 1.7 1.5 2.5.1.3.2.5 0 .8-.4.7-.1 1.6.6 1.9.8.3 1.7-.1 1.9-.9.1-.3.1-.5 0-.8-.3-.5-.8-1-1.4-1-.2 0-.3-.1-.4-.3-.4-.6-.8-1.1-1.1-1.7-.2-.3-.4-.5-.2-.9.1-.2-.1-.5-.2-.8h-.6c-.1-.1-.1-.2-.2-.3-.5-.8-.9-1.5-1.4-2.3-.4-.6-.5-.6 0-1.2l.2-.2c.2-.2.5-.3.7-.2.1 0 .2.1.3.1.3 0 .5-.1.7-.3.1-.2.2-.4 0-.7v-.3c.7.3 1.3.6 2 1 .8.4 1.5.8 2.3 1.1 1.3.6 2.7 1.2 4 1.8 1 .4 2 .8 2.9 1.3.1.1.3.1.4.2.2.1.4 0 .5-.1s.1-.3.1-.5c-.1-.2-.3-.2-.5-.2-.3 0-.6 0-.8-.1-.5-.2-1-.4-1.6-.6-4.5-2-8.9-4.3-13.3-6.6-.1-.1-.2-.1-.4-.3.4-.1.6 0 .8 0 3.2.9 6.5 1.7 9.8 2.3 1.2.2 2.4.6 3.4 1.4.1 0 .1.1.2.1.3.1.4.1.6-.2.1-.1.1-.2.1-.3-.4-.1-.7-.2-1-.3-.9-.4-1.9-.7-2.9-1-3.6-.8-7.2-1.6-10.7-2.6.2-.2.4-.1.7-.1.8.1 1.6.2 2.3.3 1.3.1 2.7.3 4 .4 1.1.1 2.3.1 3.4.1 1.5 0 3 .2 4.5.6.1 0 .1.1.2.1.2 0 .4-.1.4-.4s0-.4-.3-.5c-.3 0-.5-.1-.8-.1-2.3-.1-4.7-.2-7-.4-2.3-.1-4.6-.3-6.8-.5-.2 0-.4 0-.6-.1l.2-.2c1.2-.4 2.3-1 3.5-1.3.5-.1 2.1-.8 2.1-.9.4-.2.9-.4 1.3-.5.8-.2 1.6-.3 2.4-.7.1 0 .3.1.4.1.5.1.8-.1 1.1-.5.3-.4.3-1 0-1.4-.3-.4-.7-.5-1.2-.5-.5.1-.7.4-.9.8-.1.1-.1.3-.1.4-.4.3-.9.5-1.4.7-.2.1-.3.2-.5.3-.4.4-.8.8-1.4.7-.1 0-.2.1-.3.2-.2.2-.4.3-.6.3-.3 0-.6.1-.8.2-1 .4-2 .9-3 1.2-.6.2-1.1.5-1.5 1-.1.2-.3.3-.5.2h-.2c.9-1.9 1.8-3.8 2.7-5.6.2-.4.4-.7.6-1.1.3-.5.3-.6-.2-.8-.1 0-.1 0-.2-.1 0 0 0 .1-.1.1 0 .1 0 .1-.1.2-.1.8-.5 1.5-.8 2.2-.6 1.1-1.1 2.2-1.7 3.3-.3.6-.4 1.1-.7 1.7v.1h-.3c-.3.5-.4 1-.2 1.5 0 0 .5.3.8 0l.3 1.8c.1.8-.1 1.5-.6 2.2-.3.5-.6 1-.9 1.6-.7 1.6-1.6 3.1-2.5 4.7-.1.2-.3.4-.5.6h-.1v-.4c0-.2.1-.4.1-.5 0-1.4-.1-2.8-.1-4.2 0-.4 0-.8.4-1 .2-.1.2-.3.1-.5s-.4-.3-.7-.1c-.2.1-.2.2-.2.4.1.2.1.5.1.7v1.2c0 1.1.1 2.2.1 3.4v.5h-.1c-.1-.2-.1-.4-.2-.7 0-.2 0-.5-.1-.7-.3-.9-.5-1.9-.8-2.8-.4-1.2-.7-2.5-1.7-3.5-.1-.1-.1-.3 0-.5 0-.1.1-.2.1-.3-.1-.1-.3-.2-.4-.3h-.3c-.4.2-.5.7-.1 1 .4.3.8.7 1 1.1l.9 2.4c-.2.2-.4.4-.6.5l-.6.3c-.3.2-.7.3-1 .4-.1 0-.2.1-.3 0l-.6.3c-.1-.3-.2-.5-.3-.8-.1-.1-.1-.2-.1-.2h-.1v-.1c-.1-.3-.2-.5-.2-.8-.1-.7-.1-1.4-.2-2.1 0-.3-.1-.6-.1-.9-.1-.2-.2-.3-.3-.5 0 .1 0 .2-.1.3-.4-.6-.8-1-1.3-1.4-.1 0-.1-.1-.2-.1-.1-.2-.3-.3-.4-.5-.1-.1-.1-.1-.1-.2l-.1-.1c-.3-.5-.1-.8.4-1.2.2-.1.4-.2.6-.2s.5 0 .6-.3c-.3-.1-.5-.1-.7-.2 0-.1-.1-.2-.1-.3-.2-.4-.4-.4-.7-.2.1-.2 0-.1-.1-.1-.3.2-.4.1-.5-.3.2 0 .3 0 .5-.1.4-.1.4-.1.3-.5v-.1c.3-.1.7.1.8-.4h-.5c-.3 0-.6-.1-.8-.4-.2-.2-.2-.4-.1-.6.1-.1.2-.3.3-.4v-.3c-.1-.1-.3-.1-.4 0-.1 0-.2.2-.4.3-.3.3-.6.4-1 .3-.3-.1-.4-.3-.2-.6.4-.5.7-1 1.1-1.5.1-.2.2-.4.1-.6s-.3-.3-.5-.3h-.4c-.5 0-.6-.2-.5-.6 0-.1.1-.2.1-.3.1-.3-.1-.4-.4-.4-.1 0-.3.1-.4.2-.3.1-.4 0-.4-.3s0-.5.1-.8c0-.2 0-.4-.3-.4-.2 0-.3.1-.4.3-.1.4-.2.7-.3 1.1s-.2.4-.6.4v-.7c0-.4 0-.7.3-1 .2-.2.3-.5.5-.8-.1-.1-.3-.2-.4-.4-.1.2-.2.3-.4.5-.2-.3-.1-.6.1-.9-.2-.2-.3-.4-.5-.6-.3.1-.4.3-.5.6-.1.3-.3.4-.6.4h-.4c-.4 0-.7-.2-.8-.6-.1-.3-.1-.6-.1-.8 0-.4-.3-.6-.6-.7 0 .6.4 1.2.3 1.9-.4-.3-.4-.9-1-.7-.1-.3-.3-.6-.4-.9-.4.3-.8.5-1 .7-.3-.3-.5-.6-.8-.8-.4-.3-.8-.7-.9-1.2s-.4-.9-.4-1.4c-.1-1-.2-1.9-.5-2.8-.2-.6-.1-1.2.4-1.7.3-.3.7-.6 1.1-.9.4-.3.8-.5 1-1s.6-.7 1.2-.7h.3c0-.5.3-.6.6-.8l1.2-.6c.5-.4 1-.7 1.7-.6.2 0 .3-.1.3-.2 0-.3 0-.5-.2-.7-.2-.1-.4-.1-.7.1-.1.1-.2.2-.4.3l-2.1 1.5c-.5.3-.8.2-.9-.4v-.3c-.1-.3-.1-.5-.4-.7v.3c.1.5.1.9.2 1.4 0 .4-.2.6-.5.7-.2.1-.5.1-.7 0-.5-.2-1-.5-1.5-.8-.2-.1-.2-.3-.1-.5l.3-.3c.3-.2.5-.5.8-.6.3-.2.3-.6.7-.7.1 0 .1-.2.1-.3.1-.2.1-.3.2-.5.2.1.3.2.4.3.2.3.5.3.8.2 1.2-.3 2.3-.5 3.6-.6 1.1 0 2.2-.2 3.3-.4 1.2-.2 2.4-.5 3.5-1 .3-.1.7-.3 1.1-.2v.2c-.1.8.3 1.4 1.1 1.5.7.2 1.5-.2 1.7-.9.1-.3.1-.7-.1-.9-.2-.3-.5-.5-.8-.7-.5-.3-1-.2-1.4.1-.2.2-.4.3-.6.3-1.8.4-3.6.8-5.4 1.1-1.7.3-3.3.4-5 .7h-.5v-.1l.4-.4c.7-.5 1.5-1.1 2.3-1.6 1.7-1 3.5-2 5.3-3 1.3-.7 2.7-1.2 4.2-1 .3.1.5-.1.6-.5.2-.6.1-.8-.2-1-.5-.2-.8-.1-.9.4-.1.4-.2.5-.6.5-.2 0-.4 0-.6.1-1.1.2-2.1.6-3 1.1-1.2.7-2.4 1.4-3.5 2-1.2.7-2.4 1.5-3.4 2.4 0 0-.1 0-.1.1 0-.1 0-.2.1-.3 1-1.2 2-2.4 3.2-3.4.6-.5 1.1-1.1 1.6-1.7.4-.5.8-.9 1.3-1.2.2-.1.3-.3.2-.5-.1-.2-.2-.3-.3-.4-.2-.2-.5-.3-.8-.1-.2.1-.3.3-.2.7.1.4 0 .7-.2.9-.1.2-.3.3-.5.5-.8.8-1.5 1.5-2.3 2.2-.9.9-1.8 1.9-2.5 3-.5 0-.5 0-.6.1-.2.2-.3.2-.6 0-.1-.1-.2-.2-.4-.3-.1.2-.2.3-.3.4-.1-.1-.2-.2-.2-.3V255c0-.7.3-1.1.9-1.4.1.2-.1.5.3.5 0-.1.1-.3.1-.4.3-1 .9-1.8 1.7-2.5.5-.4 1-.8 1.5-1.3.4-.4.9-.6 1.5-.6h.2c.3-.1.4-.3.3-.6-.2-.5-.7-.5-1.2-.1-.6.5-1.2 1.1-1.8 1.6l-1.2.9c-.1.1-.2.1-.3.2.1-.4.1-.6.2-.9.3-1.1.7-2.3 1.1-3.4.2-.7.4-1.4.5-2.2.1-.9.3-1.7 1-2.4.2-.2.2-.4 0-.5-.1-.1-.2-.1-.3-.2-.6-.4-.8-.4-1 .4.1.6.1.9.1 1.3.1 1-.1 2-.4 3-.7 1.9-1.3 3.7-1.8 5.7-.1.6-.3.7-.9.7-.6 0-.6 0-.6-.6v-.2c-.2-.8.1-1.5.5-2.2.8-1.3 1.3-2.7 1.7-4.2v-.3h-.4c-.5 0-.6.1-.5.6.2.7.1 1.4-.3 2-.3.5-.5 1-.8 1.5-.1.2-.2.3-.5.3v-.2c-.1-1.7-.3-3.3-.9-4.9-.1-.3-.1-.6 0-.9.2-.7.2-.7-.5-.8-.4 0-.6.1-.6.5 0 .3.1.5.3.7.5.6.8 1.2.9 2 .1 1.2.2 2.4.4 3.6.2 1.1-.4 2-1 2.8 0-.1-.1-.2-.1-.2-.2-.6-.4-1.3-.8-1.9-.2-.3-.1-.3.2-.5.5-.4.5-.8 0-1.1-.1-.1-.3-.1-.4-.2-.4-.2-.7-.4-.8-.8-.1-.2-.2-.4-.2-.5-.7-1.5-1.3-3.1-2.2-4.6-.2-.3-.4-.7-.5-1.1-.1-.2-.1-.4 0-.6s.1-.5.1-.8c-.4-.6-1.4-1.4-2-1.4"/></defs><clipPath id="SVGID_2_"><use xlink:href="#SVGID_1_" overflow="visible"/></clipPath><linearGradient id="SVGID_3_" gradientUnits="userSpaceOnUse" x1="-1086.846" y1="-123.799" x2="-1086.062" y2="-123.799" gradientTransform="matrix(104.352 0 0 -104.352 113063 -12636.537)"><stop offset="0" stop-color="#b31e14"/><stop offset=".149" stop-color="#b42214"/><stop offset=".287" stop-color="#b82d15"/><stop offset=".421" stop-color="#be3d16"/><stop offset=".553" stop-color="#c75516"/><stop offset=".682" stop-color="#d37213"/><stop offset=".81" stop-color="#e29607"/><stop offset=".935" stop-color="#f5c100"/><stop offset="1" stop-color="#ffd900"/></linearGradient><path class="st0" d="M-351.5 238.8h81.8v86.8h-81.8z"/><defs><path id="SVGID_4_" d="M-297.7 244.3c-.4.3-.5.8-.1 1.1.7.5 1.1 1.1 1.4 1.8.2.5.4 1.1.6 1.6.6 1.8 1.3 3.7 1.6 5.6 0 .2.1.5.1.8-.8-.7-3.8-4.9-4.3-5.9.1-.2.3-.3.4-.5.3-.4.4-.9.2-1.4-.3-.5-.7-.9-1.3-1.2-.3-.1-.6-.1-1 0-.8.3-1.2 1.2-1.1 2 .1.7.8 1.3 1.6 1.3.3 0 .5 0 .9-.1.1.2.2.3.3.5.5 1.1 1.3 2.1 2.1 3.1.9 1.1 1.9 2 2.4 3.5-.1.1-.3.3-.5.4-.2.2-.5.3-.5.6.3-.1.5-.3.7-.4.5-.3.7-.2.8.4v.1c.1 1 .3 2 .4 3 .2 1.4.4 2.9.4 4.4 0 .7 0 1.3-.5 1.9-.2.2-.1.4.1.6s.4 0 .6 0c.2-.1.3-.2.3-.4 0-.6-.1-1.3-.1-1.9 0-.8-.1-1.7-.2-2.5-.2-1.6-.5-3.3-.7-4.9v-.5c1.6 1.4 3.2 2.8 4.7 4.1-.1.3-.1.5-.1.7-.1 1 .6 1.8 1.6 1.9 1.1.1 2.1-1 1.8-2-.2-.7-.7-1.2-1.4-1.4-.6-.2-1.1 0-1.5.4h-.1c-1.1-.8-4.8-4.1-5-4.5 3-1.2 5.9-2.3 8.9-3.5.1.1.1.2.2.3.4.7 1.1 1 1.9.8 1.1-.2 1.7-1.5 1.2-2.3-.2-.4-.6-.7-.9-.9-.6-.4-1.4-.3-1.9.3-.2.2-.4.6-.4.9-.1.3-.2.4-.4.5-1.7.7-3.5 1.4-5.2 2.1-.7.3-1.5.5-2.2.8.1-.3.2-.4.4-.6 1.2-1 2.4-2.1 3.6-3.1.8-.7 1.5-1.4 2.6-1.4.1 0 .3-.2.4-.3 0-.1-.1-.3-.2-.4-.1-.1-.3-.2-.3-.2-.3.3-.5.6-.8.8-.9.5-1.7 1.1-2.5 1.8-1.3 1.1-2.5 2.2-3.8 3.4 0-.1-.1-.2-.1-.2.1-.2.1-.4.3-.6 1.1-1.9 2.1-3.8 2.8-5.9.3-.8.8-1.6 1.5-2.2.1-.1.2-.2.2-.3.3-.5.2-.8-.4-.9-.3-.1-.4 0-.4.3 0 .6-.3 1.1-.6 1.6s-.6 1.1-.9 1.7c-.7 1.8-1.6 3.5-2.5 5.2-.2.4-.4.8-.2 1.2 0 0 0 .1-.1.1-.4-.2-.5-.3-.5-.9 0-.8.1-1.7.1-2.5 0-1-.1-2-.2-2.9 0-.5-.1-1 .4-1.3.2-.1.2-.4 0-.6-.2-.2-.5-.3-.7-.1-.2.1-.3.2-.2.5.1.2.1.4.1.6.1 1.5.1 3.1.2 4.6v1.5c-.2-.3-.3-.5-.3-.8 0-.2 0-.5-.1-.7-.5-1.7-1-3.5-1.6-5.2-.2-.7-.6-1.3-1-1.9-.2-.3-.5-.6-.2-1 .1-.2 0-.3-.2-.4-.1-.1-.2-.2-.4-.2-.1 0-.1.1-.2.1"/></defs><clipPath id="SVGID_5_"><use xlink:href="#SVGID_4_" overflow="visible"/></clipPath><linearGradient id="SVGID_6_" gradientUnits="userSpaceOnUse" x1="-1059.528" y1="-132.573" x2="-1058.528" y2="-132.573" gradientTransform="matrix(20.5472 0 0 -20.5472 21469.057 -2468.095)"><stop offset="0" stop-color="#b31e14"/><stop offset=".149" stop-color="#b42214"/><stop offset=".287" stop-color="#b82d15"/><stop offset=".421" stop-color="#be3d16"/><stop offset=".553" stop-color="#c75516"/><stop offset=".682" stop-color="#d37213"/><stop offset=".81" stop-color="#e29607"/><stop offset=".935" stop-color="#f5c100"/><stop offset="1" stop-color="#ffd900"/></linearGradient><path class="st1" d="M-301.4 244.2h21v23.5h-21z"/><defs><path id="SVGID_7_" d="M-284.2 228.7c-.5.5-.6 1.2-.2 1.6.3.3.4.6.3 1v3.2c0 .6-.1 1.1-.1 1.7-.2-.1-.2-.3-.3-.5-.4-.7-.7-1.5-1.1-2.2-.3-.5-.5-.9-.3-1.5-.2-.2-.4-.2-.6 0-.2.2-.1.3 0 .5.4.7.8 1.5 1.1 2.2.1.1.1.3.2.4-.6-.5-1.1-1-1.6-1.6-.7-.5-1.2-1.1-2-1.5-.2-.1-.2-.2-.3-.4 0-.1-.2-.2-.3-.2s-.3.2-.3.3c-.1.3.1.4.3.5.5 0 .8.3 1.1.6 1.2 1 2.2 2.2 3.2 3.5.1.1.1.2.2.4-.3-.3-.6-.4-.9-.5-.9-.5-1.8-1-2.7-1.4-.2-.1-.4-.2-.3-.4 0-.5-.3-.8-.7-1.1-.4-.3-.9-.4-1.4-.1s-.8.9-.7 1.4.4.9 1 1c.5.1 1 0 1.3-.3l.3-.3c.8.4 1.6.9 2.4 1.2.4.2.8.4 1.3.6.7.4 1.4.8 1.8 1.6.4.8.9 1.5 1.4 2.3.3.4.6.9.4 1.4 0 .1.1.3.2.3s.3 0 .3-.1c.2-.1.2-.3.1-.5-.6-1.1-1.2-2.2-1.9-3.2-.2-.3-.4-.7-.7-1 0 0 0-.1.1-.1 1 .3 2 .6 2.9.9v.3c.1.7.5 1.1 1.1 1.2.6.1 1.3-.3 1.5-.9.2-.5 0-1-.6-1.4 0 0-.1 0-.1-.1-.6-.4-1.1-.3-1.6.2-.1.1-.2.3-.3.4-1.1-.3-2.2-.5-3.3-.8.2-.2.3-.4.4-.5 1.2-1.3 2.3-2.5 3.5-3.8.3-.4.6-.7 1.1-.9.1 0 .2-.2.2-.3s-.1-.3-.2-.3-.3.1-.4.2c-.2.2-.3.5-.5.7l-3.3 3.6-.3.3c0-.2 0-.3.1-.5.4-.8.7-1.6 1.1-2.5.3-.6.6-1.1 1.1-1.5.1-.1.2-.3.2-.4-.1-.2-.3-.3-.4-.2-.2.4-.4.7-.6 1.1-.2.4-.4.7-.6 1.1-.4.8-.7 1.7-1.1 2.5-.1.1-.1.2-.2.4v-5h.5c.7 0 1.3-.4 1.4-1 .2-.5-.1-1-.7-1.4-.2-.1-.5-.2-.7-.2-.2-.4-.5-.3-.8 0"/></defs><clipPath id="SVGID_8_"><use xlink:href="#SVGID_7_" overflow="visible"/></clipPath><linearGradient id="SVGID_9_" gradientUnits="userSpaceOnUse" x1="-1042.222" y1="-138.06" x2="-1041.222" y2="-138.06" gradientTransform="matrix(13.6746 0 0 -13.6746 13960.38 -1652.66)"><stop offset="0" stop-color="#b31e14"/><stop offset=".149" stop-color="#b42214"/><stop offset=".287" stop-color="#b82d15"/><stop offset=".421" stop-color="#be3d16"/><stop offset=".553" stop-color="#c75516"/><stop offset=".682" stop-color="#d37213"/><stop offset=".81" stop-color="#e29607"/><stop offset=".935" stop-color="#f5c100"/><stop offset="1" stop-color="#ffd900"/></linearGradient><path class="st2" d="M-291.7 228.3h13.9v14h-13.9z"/><defs><path id="SVGID_10_" d="M-351.5 236.5h253v89h-253z"/></defs><clipPath id="SVGID_11_"><use xlink:href="#SVGID_10_" overflow="visible"/></clipPath><path class="st3" d="M-126 274.5c-2.1 1.9-4.5 2.8-7.2 2.8-6.3 0-9.4-3.4-9.4-10.2 0-3.4.8-6 2.4-7.9 1.6-1.9 3.8-2.9 6.6-2.9 2.6 0 4.8.7 6.4 2.1v-7.3c-1.8-.7-3.8-1.1-5.9-1.1-5.3 0-9.5 1.6-12.6 4.7-3.1 3.2-4.6 7.3-4.6 12.4 0 5.2 1.4 9.3 4.2 12.2s6.6 4.4 11.5 4.4c2.2 0 4.1-.2 5.7-.5 1.6-.4 3.5-1.2 5.6-2.6l-2.7-6.1z"/><defs><path id="SVGID_12_" d="M-351.5 236.5h253v89h-253z"/></defs><clipPath id="SVGID_13_"><use xlink:href="#SVGID_12_" overflow="visible"/></clipPath><path class="st4" d="M-222.2 252.7v-.6l-7.4 1.9v29h7.4z"/><defs><path id="SVGID_14_" d="M-351.5 236.5h253v89h-253z"/></defs><clipPath id="SVGID_15_"><use xlink:href="#SVGID_14_" overflow="visible"/></clipPath><path class="st5" d="M-229.6 243.7v7.3l7.4-1.9v-5.4z"/><defs><path id="SVGID_16_" d="M-351.5 236.5h253v89h-253z"/></defs><clipPath id="SVGID_17_"><use xlink:href="#SVGID_16_" overflow="visible"/></clipPath><path class="st6" d="M-238 274.5c-2.1 1.9-4.5 2.8-7.2 2.8-6.3 0-9.4-3.4-9.4-10.2 0-3.4.8-6 2.4-7.9s3.8-2.9 6.6-2.9c2.6 0 4.8.7 6.4 2.1v-7.3c-1.8-.7-3.8-1.1-5.9-1.1-5.3 0-9.5 1.6-12.6 4.7-3.1 3.2-4.6 7.3-4.6 12.4 0 5.2 1.4 9.3 4.2 12.2 2.8 2.9 6.6 4.4 11.5 4.4 2.2 0 4.1-.2 5.7-.5 1.6-.4 3.5-1.2 5.6-2.6l-2.7-6.1z"/><defs><path id="SVGID_18_" d="M-351.5 236.5h253v89h-253z"/></defs><clipPath id="SVGID_19_"><use xlink:href="#SVGID_18_" overflow="visible"/></clipPath><path class="st7" d="M-188.7 273v.5-37l-7.3 1.8v13c-2-1-4.1-1.5-6.5-1.5-4.3 0-8 1.6-10.8 4.8-2.9 3.2-4.3 7.4-4.3 12.6 0 5.1 1.3 9.2 3.8 12 2.5 2.9 6 4.3 10.3 4.3 1.5 0 3-.3 4.5-.8 1.4-.5 2.5-1.1 3.1-1.8.4-.4.7-.8 1-1.3.3 1 .8 1.8 1.6 2.6s1.7 1.2 2.7 1.2c.9 0 1.7-.1 2.5-.4.7-.3 1.4-.9 1.9-2-1.6-.9-2.5-3.6-2.5-8m-11.9 4.2c-6.3 0-9.4-3.4-9.4-10.1 0-3.5.8-6.1 2.4-8 1.6-1.9 3.8-2.8 6.8-2.8 1.7 0 3.3.6 4.9 1.9v15c-.4 1.6-1.2 2.7-2.4 3.4-.9.4-1.7.6-2.3.6m4.6-4c.1-.2.1-.4.1-.7 0 .3 0 .5-.1.7"/><defs><path id="SVGID_20_" d="M-351.5 236.5h253v89h-253z"/></defs><clipPath id="SVGID_21_"><use xlink:href="#SVGID_20_" overflow="visible"/></clipPath><path class="st8" d="M-155.9 273v-7c0-6.3-1.1-10.6-3.3-12.8-2.2-2.3-5.7-3.4-10.5-3.4-2.4 0-4.5.3-6.4.9v6.5c1.7-.7 3.7-1 5.9-1 4.7 0 7 1.9 7 5.7-1.2-.3-2.2-.5-3.1-.5-5 0-8.9 1.1-11.6 3.2-2.7 2.1-4.1 5.1-4.1 8.8 0 3.2 1 5.7 2.9 7.5 1.9 1.8 4.6 2.6 8 2.6 1.8 0 3.5-.4 5.2-1.1 1.7-.7 2.8-1.6 3.5-2.8.3 1 .9 1.8 1.7 2.6.8.8 1.8 1.2 2.9 1.2 1 0 1.8-.1 2.6-.4.7-.3 1.4-.9 2-2-1.8-.9-2.7-3.6-2.7-8m-7.3-2.3c0 4.6-2.2 6.8-6.6 6.8-3.3 0-4.9-1.5-4.9-4.4 0-3.9 2.9-5.9 8.7-5.9.6 0 1.6.1 2.8.4v3.1z"/><defs><path id="SVGID_22_" d="M-351.5 236.5h253v89h-253z"/></defs><clipPath id="SVGID_23_"><use xlink:href="#SVGID_22_" overflow="visible"/></clipPath><path class="st9" d="M-100.4 268.1c-1.2-1.6-3.2-3-6-4.1s-4.6-2-5.4-2.7-1.3-1.4-1.3-2.2c0-2.1 1.3-3.2 3.8-3.2 2.9 0 5.1.7 6.7 2.1v-6.9c-2.3-.9-4.6-1.3-7.1-1.3-3.2 0-5.9.8-8 2.4s-3.1 3.8-3.1 6.6c0 4.2 2.7 7.5 8.1 9.8 2.5 1.1 4.2 2 5 2.8.9.8 1.3 1.8 1.3 3 0 2.1-1.4 3.2-4.3 3.2-2.7 0-5.1-.9-7.2-2.6v7.3c.8.3 1.5.6 2.1.8 1.3.4 2.9.5 5 .5 3.7 0 6.7-.9 8.8-2.6 2.2-1.7 3.2-4.1 3.2-7.1.3-2.3-.3-4.2-1.6-5.8"/><defs><path id="SVGID_24_" d="M-351.5 236.5h253v89h-253z"/></defs><clipPath id="SVGID_25_"><use xlink:href="#SVGID_24_" overflow="visible"/></clipPath><path class="st10" d="M-256.3 286.2l-.4 1c-.4-.3-1-.4-1.8-.4-.7 0-1.3.3-1.8 1s-.7 1.5-.7 2.6c0 1 .2 1.8.7 2.4s1.1.9 1.8.9c.8 0 1.4-.3 1.8-.9l.6.9c-.7.7-1.5 1-2.6 1s-2-.4-2.6-1.2c-.6-.8-1-1.9-1-3.3 0-1.3.3-2.4 1-3.3.7-.9 1.6-1.3 2.6-1.3 1.1.1 1.9.3 2.4.6"/><defs><path id="SVGID_26_" d="M-351.5 236.5h253v89h-253z"/></defs><clipPath id="SVGID_27_"><use xlink:href="#SVGID_26_" overflow="visible"/></clipPath><path class="st11" d="M-249.5 291.6h-4.5c0 .8.2 1.3.6 1.7.4.4.8.5 1.4.5s1.2-.2 1.6-.6l.5.8c-.2.2-.4.3-.8.5s-.9.3-1.5.3c-.8 0-1.4-.3-2-.8-.6-.6-.9-1.4-.9-2.4 0-1.1.3-1.9.9-2.6.6-.6 1.2-.9 2-.9.9 0 1.6.3 2.1.8s.7 1.2.7 2c0 .3 0 .5-.1.7m-2.6-2.5c-.5 0-.9.2-1.2.5-.3.3-.5.7-.5 1.2h3.5c0-.5-.1-.8-.4-1.2-.5-.3-.9-.5-1.4-.5"/><defs><path id="SVGID_28_" d="M-351.5 236.5h253v89h-253z"/></defs><clipPath id="SVGID_29_"><use xlink:href="#SVGID_28_" overflow="visible"/></clipPath><path class="st12" d="M-244.4 294.7v-3.8c0-.7-.1-1.2-.3-1.4-.2-.3-.5-.4-1-.4-.3 0-.5.1-.8.2-.3.2-.5.3-.6.6v4.8h-1.1v-6.5h.8l.3.8c.4-.6 1-1 1.8-1 1.4 0 2.1.9 2.1 2.6v4l-1.2.1z"/><defs><path id="SVGID_30_" d="M-351.5 236.5h253v89h-253z"/></defs><clipPath id="SVGID_31_"><use xlink:href="#SVGID_30_" overflow="visible"/></clipPath><path class="st13" d="M-241.3 289.2h-.7v-.9h.7V287l1.1-.4v1.8h1.7v.9h-1.7v3.1c0 .5.1.9.3 1.2.2.2.5.3.9.3.3 0 .6-.1.9-.2l.2 1c-.5.1-1 .2-1.5.2s-.9-.2-1.2-.6-.5-.9-.5-1.4v-3.7h-.2z"/><defs><path id="SVGID_32_" d="M-351.5 236.5h253v89h-253z"/></defs><clipPath id="SVGID_33_"><use xlink:href="#SVGID_32_" overflow="visible"/></clipPath><path class="st14" d="M-233.6 289.4c-.2-.2-.5-.3-.7-.3-.4 0-.7.2-1 .6s-.4.8-.4 1.3v3.7h-1.1v-6.5h1.1v1c.4-.8 1-1.2 1.8-1.2.2 0 .5 0 .9.1l-.6 1.3z"/><defs><path id="SVGID_34_" d="M-351.5 236.5h253v89h-253z"/></defs><clipPath id="SVGID_35_"><use xlink:href="#SVGID_34_" overflow="visible"/></clipPath><path class="st15" d="M-232.7 291.5c0-1 .3-1.8.8-2.4s1.2-.9 2-.9c.9 0 1.6.3 2.1.9s.7 1.4.7 2.4-.3 1.9-.8 2.5-1.2.9-2.1.9-1.6-.3-2.1-.9c-.4-.7-.6-1.5-.6-2.5m1.1 0c0 1.6.6 2.4 1.7 2.4.5 0 .9-.2 1.2-.6s.4-1 .4-1.8c0-1.6-.6-2.4-1.7-2.4-.5 0-.9.2-1.2.6-.2.4-.4 1-.4 1.8"/><defs><path id="SVGID_36_" d="M-351.5 236.5h253v89h-253z"/></defs><clipPath id="SVGID_37_"><use xlink:href="#SVGID_36_" overflow="visible"/></clipPath><path class="st16" d="M-218.4 294.7v-.5c-.4.4-.9.6-1.7.6-.8 0-1.4-.3-1.9-.9s-.7-1.4-.7-2.3c0-1 .3-1.8.8-2.5.6-.7 1.2-1 2-1 .6 0 1.1.2 1.5.5v-3h1.1v9.1h-1.1zm0-4.9c-.3-.4-.7-.7-1.1-.7-.6 0-1.1.2-1.4.7-.4.5-.5 1-.5 1.7 0 1.6.7 2.3 2 2.3.2 0 .4-.1.6-.2s.4-.2.5-.4l-.1-3.4z"/><defs><path id="SVGID_38_" d="M-351.5 236.5h253v89h-253z"/></defs><clipPath id="SVGID_39_"><use xlink:href="#SVGID_38_" overflow="visible"/></clipPath><path class="st17" d="M-210.5 291.6h-4.5c0 .8.2 1.3.6 1.7.4.4.8.5 1.4.5s1.2-.2 1.6-.6l.5.8c-.2.2-.4.3-.8.5s-.9.3-1.5.3c-.8 0-1.5-.3-2-.8-.6-.6-.9-1.4-.9-2.4 0-1.1.3-1.9.9-2.6.6-.6 1.2-.9 2-.9.9 0 1.6.3 2.1.8s.7 1.2.7 2c0 .3 0 .5-.1.7m-2.6-2.5c-.5 0-.9.2-1.2.5s-.5.7-.5 1.2h3.5c0-.5-.1-.8-.4-1.2-.5-.3-.9-.5-1.4-.5"/><defs><path id="SVGID_40_" d="M-351.5 236.5h253v89h-253z"/></defs><clipPath id="SVGID_41_"><use xlink:href="#SVGID_40_" overflow="visible"/></clipPath><path class="st18" d="M-205.3 285.9h1.2v8.8h-1.2z"/><defs><path id="SVGID_42_" d="M-351.5 236.5h253v89h-253z"/></defs><clipPath id="SVGID_43_"><use xlink:href="#SVGID_42_" overflow="visible"/></clipPath><path class="st19" d="M-198.5 294.7v-3.8c0-.7-.1-1.2-.3-1.4-.2-.3-.5-.4-1-.4-.3 0-.5.1-.8.2-.3.2-.5.3-.6.6v4.8h-1.1v-6.5h.8l.4.8c.4-.6 1-1 1.8-1 1.4 0 2.1.9 2.1 2.6v4l-1.3.1z"/><defs><path id="SVGID_44_" d="M-351.5 236.5h253v89h-253z"/></defs><clipPath id="SVGID_45_"><use xlink:href="#SVGID_44_" overflow="visible"/></clipPath><path class="st20" d="M-195.4 289.2h-.7v-.9h.7V287l1.1-.4v1.8h1.7v.9h-1.7v3.1c0 .5.1.9.3 1.2.2.2.5.3.9.3.3 0 .6-.1.9-.2l.2 1c-.5.1-1 .2-1.5.2s-.9-.2-1.2-.6-.5-.9-.5-1.4v-3.7h-.2z"/><defs><path id="SVGID_46_" d="M-351.5 236.5h253v89h-253z"/></defs><clipPath id="SVGID_47_"><use xlink:href="#SVGID_46_" overflow="visible"/></clipPath><path class="st21" d="M-185.8 291.6h-4.5c0 .8.2 1.3.6 1.7.4.4.8.5 1.4.5.6 0 1.2-.2 1.6-.6l.5.8c-.2.2-.4.3-.8.5s-.9.3-1.5.3c-.8 0-1.4-.3-2-.8-.6-.6-.9-1.4-.9-2.4 0-1.1.3-1.9.9-2.6.6-.6 1.2-.9 2-.9.9 0 1.6.3 2.1.8s.7 1.2.7 2c0 .3 0 .5-.1.7m-2.7-2.5c-.5 0-.9.2-1.2.5s-.5.7-.5 1.2h3.5c0-.5-.1-.8-.4-1.2-.4-.3-.9-.5-1.4-.5"/><defs><path id="SVGID_48_" d="M-351.5 236.5h253v89h-253z"/></defs><clipPath id="SVGID_49_"><use xlink:href="#SVGID_48_" overflow="visible"/></clipPath><path class="st22" d="M-184.8 296.5l.6-.9c.6.4 1.2.7 1.8.7.5 0 .9-.1 1.2-.3.3-.2.4-.4.4-.7 0-.5-.4-.8-1.1-.8-.1 0-.3 0-.7.1-.3.1-.6.1-.8.1-.9 0-1.3-.3-1.3-1 0-.2.1-.4.3-.6.2-.2.5-.3.8-.4-.9-.4-1.3-1.2-1.3-2.2 0-.7.2-1.2.7-1.7s1-.7 1.7-.7c.6 0 1.1.1 1.4.4l.6-.7.7.7-.7.5c.3.4.4.9.4 1.5 0 .7-.2 1.2-.6 1.6-.4.4-.9.7-1.5.8l-.9.1c-.1 0-.3.1-.4.1-.2.1-.3.2-.3.3 0 .2.2.2.6.2.2 0 .4 0 .8-.1s.6-.1.8-.1c.6 0 1.1.2 1.4.5s.5.7.5 1.3-.3 1.1-.8 1.4c-.5.4-1.2.6-2 .6-.4 0-.8-.1-1.3-.2-.3-.1-.7-.3-1-.5m2.4-7.4c-.4 0-.7.1-.9.4s-.4.6-.4 1 .1.8.4 1.1c.2.3.6.4 1 .4s.7-.1.9-.4c.2-.3.3-.7.3-1.1s-.1-.7-.4-1c-.3-.3-.6-.4-.9-.4"/><defs><path id="SVGID_50_" d="M-351.5 236.5h253v89h-253z"/></defs><clipPath id="SVGID_51_"><use xlink:href="#SVGID_50_" overflow="visible"/></clipPath><path class="st23" d="M-175.2 289.4c-.2-.2-.5-.3-.7-.3-.4 0-.7.2-1 .6-.3.4-.4.8-.4 1.3v3.7h-1.2v-6.5h1.1v1c.4-.8 1-1.2 1.8-1.2.2 0 .5 0 .9.1l-.5 1.3z"/><defs><path id="SVGID_52_" d="M-351.5 236.5h253v89h-253z"/></defs><clipPath id="SVGID_53_"><use xlink:href="#SVGID_52_" overflow="visible"/></clipPath><path class="st24" d="M-170.4 294c-.4.6-1.1.9-2 .9-.5 0-.9-.2-1.3-.6-.4-.4-.5-.8-.5-1.4 0-.7.3-1.2.8-1.7.6-.5 1.3-.7 2.1-.7.2 0 .5.1.8.2 0-1-.4-1.6-1.3-1.6-.7 0-1.2.2-1.6.6l-.5-1c.2-.2.5-.3.9-.5.4-.1.7-.2 1.1-.2.9 0 1.6.2 2 .6.4.4.6 1.1.6 2v2.3c0 .6.2.9.5 1.1v.6c-.5 0-.8-.1-1-.2-.4.1-.5-.1-.6-.4m-.1-2.4c-.3-.1-.6-.1-.7-.1-.6 0-1 .1-1.4.4-.4.3-.5.7-.5 1.1 0 .7.4 1 1.1 1 .6 0 1.1-.3 1.5-.8v-1.6z"/><defs><path id="SVGID_54_" d="M-351.5 236.5h253v89h-253z"/></defs><clipPath id="SVGID_55_"><use xlink:href="#SVGID_54_" overflow="visible"/></clipPath><path class="st25" d="M-163 288.8l-.5.8c-.1-.1-.3-.2-.6-.3-.3-.1-.6-.2-.8-.2-.6 0-1.1.2-1.4.7-.4.4-.5 1-.5 1.8s.2 1.3.5 1.7c.4.4.9.6 1.5.6.5 0 1-.2 1.5-.6l.4 1c-.6.4-1.3.6-2.2.6-.8 0-1.6-.3-2.1-.9-.6-.6-.8-1.4-.8-2.4s.3-1.9.9-2.5c.6-.6 1.4-.9 2.4-.9.3 0 .7.1 1 .2.3.1.6.2.7.4m-3.1 8.7l-.1-.6c.3 0 .6-.1.8-.2.2-.1.3-.3.3-.5 0-.3-.2-.4-.5-.4v-.7c.4 0 .7.1.9.3s.3.5.3.8c0 .4-.1.7-.4.9-.4.3-.8.4-1.3.4"/><defs><path id="SVGID_56_" d="M-351.5 236.5h253v89h-253z"/></defs><clipPath id="SVGID_57_"><use xlink:href="#SVGID_56_" overflow="visible"/></clipPath><path class="st26" d="M-158.2 294c-.4.6-1.1.9-2 .9-.5 0-.9-.2-1.3-.6s-.5-.8-.5-1.4c0-.7.3-1.2.8-1.7s1.3-.7 2.1-.7c.2 0 .5.1.8.2 0-1-.4-1.6-1.4-1.6-.7 0-1.2.2-1.6.6l-.5-1c.2-.2.5-.3.9-.5.4-.1.7-.2 1.1-.2.9 0 1.6.2 2 .6.4.4.6 1.1.6 2v2.3c0 .6.2.9.5 1.1v.6c-.4 0-.8-.1-1-.2-.3.1-.4-.1-.5-.4m.5-8.3c-.2.8-.6 1.2-1.1 1.2-.2 0-.5-.1-.8-.2-.3-.2-.5-.2-.6-.2-.3 0-.5.2-.6.5h-.5c.1-.3.2-.6.4-.9.2-.2.4-.4.7-.4.3 0 .6.1.9.2.3.2.5.2.6.2.3 0 .5-.2.6-.5l.4.1zm-.6 5.9c-.3-.1-.6-.1-.7-.1-.6 0-1 .1-1.4.4-.4.3-.5.7-.5 1.1 0 .7.4 1 1.1 1 .6 0 1.1-.3 1.5-.8v-1.6z"/><defs><path id="SVGID_58_" d="M-351.5 236.5h253v89h-253z"/></defs><clipPath id="SVGID_59_"><use xlink:href="#SVGID_58_" overflow="visible"/></clipPath><path class="st27" d="M-155.9 291.5c0-1 .3-1.8.8-2.4s1.2-.9 2-.9c.9 0 1.6.3 2.1.9s.7 1.4.7 2.4-.3 1.9-.8 2.5-1.2.9-2.1.9c-.9 0-1.6-.3-2.1-.9-.4-.7-.6-1.5-.6-2.5m1.2 0c0 1.6.6 2.4 1.7 2.4.5 0 .9-.2 1.2-.6s.4-1 .4-1.8c0-1.6-.6-2.4-1.7-2.4-.5 0-.9.2-1.2.6s-.4 1-.4 1.8"/><defs><path id="SVGID_60_" d="M-351.5 236.5h253v89h-253z"/></defs><clipPath id="SVGID_61_"><use xlink:href="#SVGID_60_" overflow="visible"/></clipPath><path class="st28" d="M-141.6 294.7v-.5c-.4.4-.9.6-1.7.6s-1.4-.3-1.9-.9-.7-1.4-.7-2.3c0-1 .3-1.8.8-2.5.6-.7 1.2-1 2-1 .6 0 1.1.2 1.5.5v-3h1.1v9.1h-1.1zm0-4.9c-.3-.4-.7-.7-1.1-.7-.6 0-1.1.2-1.4.7-.4.5-.6 1-.6 1.7 0 1.6.7 2.3 2 2.3.2 0 .4-.1.6-.2.2-.1.4-.2.5-.4v-3.4z"/><defs><path id="SVGID_62_" d="M-351.5 236.5h253v89h-253z"/></defs><clipPath id="SVGID_63_"><use xlink:href="#SVGID_62_" overflow="visible"/></clipPath><path class="st29" d="M-133.6 291.6h-4.5c0 .8.2 1.3.6 1.7.4.4.8.5 1.4.5.6 0 1.2-.2 1.6-.6l.5.8c-.2.2-.4.3-.8.5s-.9.3-1.5.3c-.8 0-1.5-.3-2-.8-.6-.6-.9-1.4-.9-2.4 0-1.1.3-1.9.9-2.6.6-.6 1.2-.9 2-.9.9 0 1.6.3 2.1.8s.7 1.2.7 2c0 .3-.1.5-.1.7m-2.7-2.5c-.5 0-.9.2-1.2.5s-.5.7-.5 1.2h3.5c0-.5-.1-.8-.4-1.2-.5-.3-.9-.5-1.4-.5"/><defs><path id="SVGID_64_" d="M-351.5 236.5h253v89h-253z"/></defs><clipPath id="SVGID_65_"><use xlink:href="#SVGID_64_" overflow="visible"/></clipPath><path class="st30" d="M-127 294.7h-1.7v-8.8c1.1 0 1.8-.1 2.1-.1 1.2 0 2.1.4 2.8 1.1s1 1.7 1 3c.1 3.2-1.3 4.8-4.2 4.8m-.5-7.7v6.6c.3 0 .6.1 1 .1.8 0 1.5-.3 1.9-.9.5-.6.7-1.5.7-2.6 0-2.1-.9-3.1-2.7-3.1-.2-.2-.5-.2-.9-.1"/><defs><path id="SVGID_66_" d="M-351.5 236.5h253v89h-253z"/></defs><clipPath id="SVGID_67_"><use xlink:href="#SVGID_66_" overflow="visible"/></clipPath><path class="st31" d="M-117.9 294c-.4.6-1.1.9-2 .9-.5 0-.9-.2-1.3-.6-.4-.4-.5-.8-.5-1.4 0-.7.3-1.2.8-1.7.6-.5 1.3-.7 2.1-.7.2 0 .5.1.8.2 0-1-.4-1.6-1.4-1.6-.7 0-1.2.2-1.6.6l-.5-1c.2-.2.5-.3.9-.5.4-.1.7-.2 1.1-.2.9 0 1.6.2 2 .6.4.4.6 1.1.6 2v2.3c0 .6.2.9.5 1.1v.6c-.4 0-.8-.1-1-.2-.3.1-.4-.1-.5-.4m-.1-2.4c-.3-.1-.6-.1-.7-.1-.6 0-1 .1-1.4.4-.4.3-.5.7-.5 1.1 0 .7.4 1 1.1 1 .6 0 1.1-.3 1.5-.8v-1.6z"/><defs><path id="SVGID_68_" d="M-351.5 236.5h253v89h-253z"/></defs><clipPath id="SVGID_69_"><use xlink:href="#SVGID_68_" overflow="visible"/></clipPath><path class="st32" d="M-111.2 294.7v-.5c-.4.4-.9.6-1.7.6s-1.4-.3-1.9-.9-.7-1.4-.7-2.3c0-1 .3-1.8.8-2.5.6-.7 1.2-1 2-1 .6 0 1.1.2 1.5.5v-3h1.1v9.1h-1.1zm0-4.9c-.3-.4-.7-.7-1.1-.7-.6 0-1.1.2-1.4.7-.4.5-.5 1-.5 1.7 0 1.6.7 2.3 2.1 2.3.2 0 .4-.1.6-.2s.4-.2.5-.4v-3.4h-.2z"/><defs><path id="SVGID_70_" d="M-351.5 236.5h253v89h-253z"/></defs><clipPath id="SVGID_71_"><use xlink:href="#SVGID_70_" overflow="visible"/></clipPath><path class="st33" d="M-109 291.5c0-1 .3-1.8.8-2.4s1.2-.9 2-.9c.9 0 1.6.3 2.1.9s.7 1.4.7 2.4-.3 1.9-.8 2.5-1.2.9-2.1.9-1.6-.3-2.1-.9c-.3-.7-.6-1.5-.6-2.5m1.2 0c0 1.6.6 2.4 1.7 2.4.5 0 .9-.2 1.2-.6s.4-1 .4-1.8c0-1.6-.6-2.4-1.7-2.4-.5 0-.9.2-1.2.6s-.4 1-.4 1.8"/><defs><path id="SVGID_72_" d="M-351.5 236.5h253v89h-253z"/></defs><clipPath id="SVGID_73_"><use xlink:href="#SVGID_72_" overflow="visible"/></clipPath><path class="st34" d="M-102.6 294.3l.4-1.1c.6.4 1.1.6 1.5.6.7 0 1-.3 1-.9 0-.4-.3-.8-1-1.1-.5-.2-.8-.4-1-.5s-.3-.3-.5-.4c-.1-.2-.2-.3-.3-.5s-.1-.4-.1-.6c0-.5.2-.9.6-1.2.4-.3.9-.4 1.5-.4.5 0 1 .2 1.7.4l-.3 1.1c-.4-.4-.9-.5-1.3-.5-.3 0-.5.1-.7.2s-.3.3-.3.5c0 .4.2.7.7.9l.8.4c.5.2.8.5 1.1.8.2.3.3.7.3 1.1 0 .6-.2 1-.6 1.4-.4.3-.9.5-1.6.5-.7-.2-1.3-.3-1.9-.7"/><defs><path id="SVGID_74_" d="M-351.5 236.5h253v89h-253z"/></defs><clipPath id="SVGID_75_"><use xlink:href="#SVGID_74_" overflow="visible"/></clipPath><path class="st35" d="M-251.3 305.3h-4.5c0 .8.2 1.3.6 1.7.4.4.8.5 1.4.5s1.2-.2 1.6-.6l.5.8c-.2.2-.4.3-.8.5s-.9.3-1.5.3c-.8 0-1.4-.3-2-.8-.6-.6-.9-1.4-.9-2.4 0-1.1.3-1.9.9-2.6.6-.6 1.2-.9 2-.9.9 0 1.6.3 2.1.8s.7 1.2.7 2c0 .2 0 .4-.1.7m-2.7-2.5c-.5 0-.9.2-1.2.5s-.5.7-.5 1.2h3.5c0-.5-.1-.8-.4-1.2-.4-.4-.8-.5-1.4-.5"/><defs><path id="SVGID_76_" d="M-351.5 236.5h253v89h-253z"/></defs><clipPath id="SVGID_77_"><use xlink:href="#SVGID_76_" overflow="visible"/></clipPath><path class="st36" d="M-240.9 299.9l-.4 1c-.4-.3-1-.4-1.8-.4-.7 0-1.4.3-1.8 1-.5.7-.7 1.5-.7 2.6 0 1 .2 1.8.7 2.4s1.1.9 1.8.9c.8 0 1.4-.3 1.8-.9l.6.9c-.7.7-1.5 1-2.6 1s-2-.4-2.6-1.2c-.6-.8-1-1.9-1-3.3 0-1.3.3-2.4 1-3.3.7-.9 1.6-1.3 2.6-1.3 1.1.1 1.9.2 2.4.6"/><defs><path id="SVGID_78_" d="M-351.5 236.5h253v89h-253z"/></defs><clipPath id="SVGID_79_"><use xlink:href="#SVGID_78_" overflow="visible"/></clipPath><path class="st37" d="M-239.7 305.1c0-1 .3-1.8.8-2.4s1.2-.9 2-.9c.9 0 1.6.3 2.1.9s.7 1.4.7 2.4-.3 1.9-.8 2.5-1.2.9-2.1.9c-.9 0-1.6-.3-2.1-.9-.4-.6-.6-1.4-.6-2.5m1.2 0c0 1.6.6 2.4 1.7 2.4.5 0 .9-.2 1.2-.7.3-.4.4-1 .4-1.8 0-1.6-.6-2.4-1.7-2.4-.5 0-.9.2-1.2.6-.3.6-.4 1.2-.4 1.9"/><defs><path id="SVGID_80_" d="M-351.5 236.5h253v89h-253z"/></defs><clipPath id="SVGID_81_"><use xlink:href="#SVGID_80_" overflow="visible"/></clipPath><path class="st38" d="M-229.1 308.4v-3.8c0-.7-.1-1.2-.3-1.4-.2-.3-.5-.4-1-.4-.3 0-.5.1-.8.2-.3.2-.5.4-.6.6v4.8h-1.1v-6.5h.8l.3.8c.4-.6 1-1 1.8-1 1.4 0 2 .9 2 2.6v4l-1.1.1c0-.1 0 0 0 0z"/><defs><path id="SVGID_82_" d="M-351.5 236.5h253v89h-253z"/></defs><clipPath id="SVGID_83_"><use xlink:href="#SVGID_82_" overflow="visible"/></clipPath><path class="st39" d="M-222.6 308.4v-4.1c0-.5-.1-.9-.3-1.1-.2-.3-.6-.4-1-.4-.3 0-.5.1-.8.2-.3.2-.5.4-.6.6v4.8h-1.1v-9.1h1.1v3.4c.1-.2.4-.4.7-.6s.7-.2 1-.2c.7 0 1.2.2 1.6.7.4.4.6 1.1.6 1.8v4h-1.2z"/><defs><path id="SVGID_84_" d="M-351.5 236.5h253v89h-253z"/></defs><clipPath id="SVGID_85_"><use xlink:href="#SVGID_84_" overflow="visible"/></clipPath><path class="st40" d="M-214.6 305.3h-4.5c0 .8.2 1.3.6 1.7.4.4.8.5 1.4.5.6 0 1.2-.2 1.6-.6l.5.8c-.2.2-.4.3-.8.5s-.9.3-1.5.3c-.8 0-1.4-.3-2-.8-.6-.6-.9-1.4-.9-2.4 0-1.1.3-1.9.9-2.6.6-.6 1.2-.9 2-.9.9 0 1.6.3 2.1.8s.7 1.2.7 2c0 .2-.1.4-.1.7m-2.7-2.5c-.5 0-.9.2-1.2.5s-.5.7-.5 1.2h3.4c0-.5-.1-.8-.4-1.2-.4-.4-.8-.5-1.3-.5"/><defs><path id="SVGID_86_" d="M-351.5 236.5h253v89h-253z"/></defs><clipPath id="SVGID_87_"><use xlink:href="#SVGID_86_" overflow="visible"/></clipPath><path class="st41" d="M-208.7 302.4l-.5.8c-.1-.1-.3-.2-.6-.3s-.6-.2-.8-.2c-.6 0-1.1.2-1.4.7-.4.4-.5 1-.5 1.8s.2 1.3.5 1.7c.4.4.9.6 1.5.6.5 0 1-.2 1.5-.6l.4 1c-.6.4-1.3.6-2.2.6-.9 0-1.6-.3-2.1-.9-.6-.6-.8-1.4-.8-2.4s.3-1.9.9-2.5c.6-.6 1.4-.9 2.4-.9.3 0 .7.1 1 .2.3.1.5.3.7.4"/><defs><path id="SVGID_88_" d="M-351.5 236.5h253v89h-253z"/></defs><clipPath id="SVGID_89_"><use xlink:href="#SVGID_88_" overflow="visible"/></clipPath><path class="st42" d="M-206.9 308.4v-5.5h-.9v-1h2v6.5h-1.1zm.6-8.9c.2 0 .4.1.5.2.1.1.2.3.2.5s-.1.4-.2.5c-.1.1-.3.2-.5.2s-.3-.1-.5-.2c-.1-.1-.2-.3-.2-.5s.1-.4.2-.5c.1-.2.3-.2.5-.2"/><defs><path id="SVGID_90_" d="M-351.5 236.5h253v89h-253z"/></defs><clipPath id="SVGID_91_"><use xlink:href="#SVGID_90_" overflow="visible"/></clipPath><path class="st43" d="M-196.9 308.4v-4.1c0-1-.4-1.5-1.3-1.5-.3 0-.5.1-.8.3-.2.2-.4.4-.5.6v4.7h-1v-4.6c0-.3-.1-.6-.3-.8-.2-.2-.5-.3-.9-.3-.2 0-.5.1-.7.3-.3.2-.4.4-.5.6v4.8h-1.1v-6.5h.7l.4.7c.4-.6 1-.9 1.6-.9.9 0 1.5.3 1.9.9.1-.2.4-.5.7-.6.3-.2.7-.2 1-.2.6 0 1.1.2 1.5.6s.5 1 .5 1.7v4.3h-1.2z"/><defs><path id="SVGID_92_" d="M-351.5 236.5h253v89h-253z"/></defs><clipPath id="SVGID_93_"><use xlink:href="#SVGID_92_" overflow="visible"/></clipPath><path class="st44" d="M-188.9 305.3h-4.5c0 .8.2 1.3.6 1.7.4.4.8.5 1.4.5.6 0 1.2-.2 1.6-.6l.5.8c-.2.2-.4.3-.8.5s-.9.3-1.5.3c-.8 0-1.5-.3-2-.8-.6-.6-.9-1.4-.9-2.4 0-1.1.3-1.9.9-2.6.6-.6 1.2-.9 2-.9.9 0 1.6.3 2.1.8s.7 1.2.7 2c0 .2-.1.4-.1.7m-2.7-2.5c-.5 0-.9.2-1.2.5s-.5.7-.5 1.2h3.5c0-.5-.1-.8-.4-1.2-.5-.4-.9-.5-1.4-.5"/><defs><path id="SVGID_94_" d="M-351.5 236.5h253v89h-253z"/></defs><clipPath id="SVGID_95_"><use xlink:href="#SVGID_94_" overflow="visible"/></clipPath><path class="st45" d="M-183.8 308.4v-3.8c0-.7-.1-1.2-.3-1.4-.2-.3-.5-.4-1-.4-.3 0-.5.1-.8.2-.3.2-.5.4-.6.6v4.8h-1.1v-6.5h.8l.4.8c.4-.6 1-1 1.8-1 1.4 0 2 .9 2 2.6v4l-1.2.1c0-.1 0 0 0 0z"/><defs><path id="SVGID_96_" d="M-351.5 236.5h253v89h-253z"/></defs><clipPath id="SVGID_97_"><use xlink:href="#SVGID_96_" overflow="visible"/></clipPath><path class="st46" d="M-180.8 302.8h-.7v-.9h.7v-1.4l1.1-.4v1.8h1.7v.9h-1.7v3.2c0 .5.1.9.3 1.2.2.2.5.3.9.3.3 0 .6-.1.9-.2l.2 1c-.5.1-1 .2-1.5.2s-.9-.2-1.2-.6c-.3-.4-.5-.9-.5-1.4v-3.7h-.2z"/><defs><path id="SVGID_98_" d="M-351.5 236.5h253v89h-253z"/></defs><clipPath id="SVGID_99_"><use xlink:href="#SVGID_98_" overflow="visible"/></clipPath><path class="st47" d="M-176.8 305.1c0-1 .3-1.8.8-2.4s1.2-.9 2-.9c.9 0 1.6.3 2.1.9s.7 1.4.7 2.4-.3 1.9-.8 2.5-1.2.9-2.1.9c-.9 0-1.6-.3-2.1-.9-.4-.6-.6-1.4-.6-2.5m1.1 0c0 1.6.6 2.4 1.7 2.4.5 0 .9-.2 1.2-.7.3-.4.4-1 .4-1.8 0-1.6-.6-2.4-1.7-2.4-.5 0-.9.2-1.2.6-.2.6-.4 1.2-.4 1.9"/><defs><path id="SVGID_100_" d="M-351.5 236.5h253v89h-253z"/></defs><clipPath id="SVGID_101_"><use xlink:href="#SVGID_100_" overflow="visible"/></clipPath><path class="st48" d="M-170.4 308l.4-1.1c.6.4 1.1.6 1.5.6.7 0 1-.3 1-.9 0-.4-.3-.8-1-1.1-.5-.2-.9-.4-1-.5-.2-.1-.3-.3-.5-.4-.1-.2-.2-.3-.3-.5-.1-.2-.1-.4-.1-.6 0-.5.2-.9.6-1.2.4-.3.9-.4 1.5-.4.5 0 1 .1 1.7.4l-.3 1.1c-.4-.4-.9-.5-1.3-.5-.3 0-.5.1-.7.2-.2.1-.3.3-.3.5 0 .4.2.7.7.9l.8.4c.5.2.8.5 1.1.8.2.3.3.7.3 1.1 0 .6-.2 1-.6 1.4-.4.3-.9.5-1.6.5-.7-.2-1.4-.4-1.9-.7"/><defs><path id="SVGID_102_" d="M-351.5 236.5h253v89h-253z"/></defs><clipPath id="SVGID_103_"><use xlink:href="#SVGID_102_" overflow="visible"/></clipPath><path class="st49" d="M-160.5 308v2.9h-1.1v-9h1.1v.5c.4-.4.9-.7 1.5-.7.9 0 1.6.3 2.1.9s.7 1.4.7 2.5c0 1-.2 1.8-.7 2.4s-1.2.9-2.2.9c-.3 0-.5-.1-.8-.1-.3-.1-.5-.2-.6-.3m0-4.7v3.8c.1.1.2.2.4.3.2.1.4.1.7.1 1.4 0 2.1-.8 2.1-2.4 0-.8-.2-1.4-.5-1.8s-.8-.6-1.6-.6c-.2 0-.3.1-.6.2-.2.1-.4.3-.5.4"/><defs><path id="SVGID_104_" d="M-351.5 236.5h253v89h-253z"/></defs><clipPath id="SVGID_105_"><use xlink:href="#SVGID_104_" overflow="visible"/></clipPath><path class="st50" d="M-151.5 307.6c-.4.6-1.1.9-2 .9-.5 0-.9-.2-1.3-.6-.4-.4-.5-.8-.5-1.4 0-.7.3-1.2.8-1.7.6-.5 1.3-.7 2.1-.7.2 0 .5.1.8.2 0-1-.5-1.6-1.4-1.6-.7 0-1.2.2-1.6.6l-.5-1c.2-.2.5-.3.9-.5.4-.1.7-.2 1.1-.2.9 0 1.6.2 2 .6.4.4.6 1.1.6 2v2.3c0 .6.2.9.5 1.1v.6c-.5 0-.8-.1-1-.2-.2.2-.4-.1-.5-.4m-.1-2.4c-.4-.1-.6-.1-.7-.1-.6 0-1 .1-1.4.4-.4.3-.5.6-.5 1.1 0 .7.4 1 1.1 1 .6 0 1.1-.3 1.5-.8v-1.6z"/><defs><path id="SVGID_106_" d="M-351.5 236.5h253v89h-253z"/></defs><clipPath id="SVGID_107_"><use xlink:href="#SVGID_106_" overflow="visible"/></clipPath><path class="st51" d="M-145.3 303c-.2-.2-.5-.3-.7-.3-.4 0-.7.2-1 .6s-.4.8-.4 1.4v3.7h-1.1v-6.5h1.1v1c.4-.8 1-1.2 1.8-1.2.2 0 .5 0 .9.1l-.6 1.2z"/><defs><path id="SVGID_108_" d="M-351.5 236.5h253v89h-253z"/></defs><clipPath id="SVGID_109_"><use xlink:href="#SVGID_108_" overflow="visible"/></clipPath><path class="st52" d="M-140.6 307.6c-.4.6-1.1.9-2 .9-.5 0-.9-.2-1.3-.6-.4-.4-.5-.8-.5-1.4 0-.7.3-1.2.8-1.7.6-.5 1.3-.7 2.1-.7.2 0 .5.1.8.2 0-1-.4-1.6-1.4-1.6-.7 0-1.2.2-1.6.6l-.5-1c.2-.2.5-.3.9-.5.4-.1.7-.2 1.1-.2.9 0 1.6.2 2 .6.4.4.6 1.1.6 2v2.3c0 .6.2.9.5 1.1v.6c-.4 0-.8-.1-1-.2-.2.2-.4-.1-.5-.4m-.1-2.4c-.3-.1-.6-.1-.7-.1-.6 0-1 .1-1.4.4-.4.3-.5.6-.5 1.1 0 .7.4 1 1.1 1 .6 0 1.1-.3 1.5-.8v-1.6z"/><defs><path id="SVGID_110_" d="M-351.5 236.5h253v89h-253z"/></defs><clipPath id="SVGID_111_"><use xlink:href="#SVGID_110_" overflow="visible"/></clipPath><path class="st53" d="M-134.5 308l.4-1.1c.2.2.5.3.8.4s.6.2.9.2c.5 0 .8-.1 1.1-.4s.4-.6.4-1c0-.3-.1-.6-.2-.8-.2-.3-.5-.5-1.2-.8l-.7-.3c-.6-.3-1-.6-1.2-1s-.3-.9-.3-1.4c0-.7.2-1.2.7-1.6s1-.7 1.7-.7c.9 0 1.6.2 2 .5l-.3 1c-.2-.1-.4-.2-.7-.3-.3-.1-.6-.2-.9-.2-.4 0-.7.1-.9.3-.2.2-.3.5-.3.9 0 .2 0 .4.1.6.1.2.2.3.3.5.1.1.4.3.9.5l.7.3c.6.3 1 .6 1.2 1s.4.9.4 1.5c0 .7-.3 1.2-.8 1.7s-1.2.7-2.1.7c-.8 0-1.5-.2-2-.5"/><defs><path id="SVGID_112_" d="M-351.5 236.5h253v89h-253z"/></defs><clipPath id="SVGID_113_"><use xlink:href="#SVGID_112_" overflow="visible"/></clipPath><path class="st54" d="M-125 307.6c-.4.6-1.1.9-2 .9-.5 0-.9-.2-1.3-.6-.4-.4-.5-.8-.5-1.4 0-.7.3-1.2.8-1.7.6-.5 1.3-.7 2.1-.7.2 0 .5.1.8.2 0-1-.5-1.6-1.4-1.6-.7 0-1.2.2-1.6.6l-.5-1c.2-.2.5-.3.9-.5.4-.1.7-.2 1.1-.2.9 0 1.6.2 2 .6.4.4.6 1.1.6 2v2.3c0 .6.2.9.5 1.1v.6c-.4 0-.8-.1-1-.2-.2.2-.4-.1-.5-.4m-.1-2.4c-.3-.1-.6-.1-.7-.1-.6 0-1 .1-1.4.4-.4.3-.5.6-.5 1.1 0 .7.4 1 1.1 1 .6 0 1.1-.3 1.5-.8v-1.6z"/><defs><path id="SVGID_114_" d="M-351.5 236.5h253v89h-253z"/></defs><clipPath id="SVGID_115_"><use xlink:href="#SVGID_114_" overflow="visible"/></clipPath><path class="st55" d="M-121.2 301.9v4.1c0 1 .4 1.5 1.3 1.5.4 0 .7-.1 1-.3.3-.2.5-.5.6-.8v-4.5h1.1v6.5h-1.1v-.9c-.1.3-.4.5-.7.7-.4.2-.7.3-1.1.3-.7 0-1.2-.2-1.6-.6-.4-.4-.5-1-.5-1.7V302h1v-.1zm2.5-3.3l-1.3 2h-.8l1-2h1.1z"/><defs><path id="SVGID_116_" d="M-351.5 236.5h253v89h-253z"/></defs><clipPath id="SVGID_117_"><use xlink:href="#SVGID_116_" overflow="visible"/></clipPath><path class="st56" d="M-111.8 308.4v-.5c-.4.4-.9.6-1.7.6s-1.4-.3-1.9-.9-.7-1.4-.7-2.3c0-1 .3-1.8.8-2.5.6-.7 1.2-1 2-1 .6 0 1.1.2 1.5.5v-3h1.1v9.1h-1.1zm0-5c-.3-.4-.7-.7-1.1-.7-.6 0-1.1.2-1.4.7-.4.5-.6 1-.6 1.7 0 1.6.7 2.3 2.1 2.3.2 0 .4-.1.6-.2s.4-.2.5-.4v-3.4h-.1z"/><defs><path id="SVGID_118_" d="M-351.5 236.5h253v89h-253z"/></defs><clipPath id="SVGID_119_"><use xlink:href="#SVGID_118_" overflow="visible"/></clipPath><path class="st57" d="M-103.8 305.3h-4.5c0 .8.2 1.3.6 1.7.4.4.8.5 1.4.5s1.2-.2 1.6-.6l.5.8c-.2.2-.4.3-.8.5s-.9.3-1.5.3c-.8 0-1.4-.3-2-.8-.6-.6-.9-1.4-.9-2.4 0-1.1.3-1.9.9-2.6.6-.6 1.2-.9 2-.9.9 0 1.6.3 2.1.8s.7 1.2.7 2c0 .2-.1.4-.1.7m-2.7-2.5c-.5 0-.9.2-1.2.5-.3.3-.5.7-.5 1.2h3.5c0-.5-.1-.8-.4-1.2-.5-.4-.9-.5-1.4-.5"/><defs><path id="SVGID_120_" d="M-351.5 236.5h253v89h-253z"/></defs><clipPath id="SVGID_121_"><use xlink:href="#SVGID_120_" overflow="visible"/></clipPath><path class="st58" d="M-203.1 325.3v-3.6h3.3v-1.4h-3.3v-2.1h3.6v-1.4h-5.4v8.5h1.8zm6.4-8.5h-1.8v8.5h1.8v-8.5zm5.2 8.7c2.8 0 4-1.9 4-4.4s-1.2-4.4-4-4.4-4 1.9-4 4.4 1.2 4.4 4 4.4m0-7.5c1.8 0 2.1 1.7 2.1 3.1 0 1.5-.3 3.1-2.1 3.1s-2.1-1.6-2.1-3.1.3-3.1 2.1-3.1m11.9 1.6c-.1-2.1-1.6-2.9-3.5-2.9-2.4 0-3.5 1.9-3.5 4.4s1.1 4.4 3.5 4.4c1.9 0 3.4-.8 3.5-2.9h-1.9c0 .9-.5 1.6-1.6 1.6-1.3 0-1.6-1.9-1.6-3.1s.3-3.1 1.6-3.1c1.1 0 1.6.7 1.6 1.6h1.9zm2.8-1.4h1.5c.8 0 1.2.3 1.2 1.1s-.5 1.2-1.2 1.2h-1.5v-2.3zm0 3.7h1.9c.6 0 .7.7.7 1.1.1.8.2 1.5.3 2.3h2c-.3-.5-.4-1.5-.5-2-.1-1.2-.1-2-1.5-2.2 1-.2 1.7-1 1.7-2.1 0-1.7-1.5-2.2-2.9-2.2h-3.5v8.5h1.8v-3.4zm11.5-5.1v4.6c0 1.4-.1 2.7-1.8 2.7-1.8 0-1.8-1.3-1.8-2.7v-4.6h-1.8v5.3c0 2.3 1.6 3.4 3.6 3.4s3.6-1.1 3.6-3.4v-5.3h-1.8zm3 8.5h6.4v-1.4h-4.2l4.1-5.7v-1.4h-6v1.4h3.9l-4.1 5.7-.1 1.4z"/></svg>